<svg width="747" height="597" viewBox="0 0 747 597" fill="none" xmlns="http://www.w3.org/2000/svg">
<g filter="url(#filter0_d_4_3)">
<path d="M538.576 69.7457V388.462H717.552V71.8002C717.552 71.8002 632.814 -38.0987 538.576 69.737V69.7457ZM704.67 77.299V122.636H659.924V43.7812C687.853 55.05 704.67 77.299 704.67 77.299ZM604.332 286.117V216.056H649.078V286.117H604.332ZM649.078 298.478V375.41H604.332V298.478H649.078ZM593.486 203.686H550.095V134.998H593.486V203.686ZM604.332 134.998H649.078V203.686H604.332V134.998ZM593.486 216.047V286.108H550.095V216.047H593.486ZM659.924 216.047H704.67V286.108H659.924V216.047ZM659.924 203.686V134.998H704.67V203.686H659.924ZM649.078 40.1707V122.628H604.332V40.7739C620.872 36.0269 635.928 36.7088 649.078 40.1707ZM593.486 44.603V122.628H550.095V74.5452C565.28 59.8757 579.819 50.3379 593.486 44.603ZM550.095 298.469H593.486V375.401H550.095V298.469ZM659.924 375.401V298.469H704.67V375.401H659.924Z" fill="white" stroke="#002346" stroke-miterlimit="10"/>
<path d="M258.692 186.682H89.1126C87.5258 186.682 86.2394 187.986 86.2394 189.593V304.344C86.2394 305.952 87.5258 307.255 89.1126 307.255H258.692C260.279 307.255 261.566 305.952 261.566 304.344V189.593C261.566 187.986 260.279 186.682 258.692 186.682Z" fill="white" stroke="#002346" stroke-miterlimit="10"/>
<path d="M532.484 129.289C532.484 129.289 567.161 117.076 571.519 153.304C575.884 189.541 521.285 204.534 513.252 172.939C505.219 141.345 532.476 129.289 532.476 129.289H532.484Z" fill="#002346" stroke="#002346" stroke-miterlimit="10"/>
<path d="M476.288 150.393C476.288 150.393 466.185 139.824 468.419 122.82C469.938 111.298 474.847 107.416 474.847 107.416C474.847 107.416 466.659 92.0385 489.507 92.2046C512.354 92.3707 526.168 103.255 526.168 103.255C526.168 103.255 536.427 97.7035 541.518 109.864C546.609 122.024 542.545 140.366 542.545 140.366L476.297 150.393H476.288Z" fill="#002346" stroke="#002346" stroke-miterlimit="10"/>
<path d="M548.61 396.689L590 520.907C590.837 523.416 593.15 525.095 595.764 525.095C599.88 525.095 602.813 521.039 601.562 517.061L562.191 391.898L548.619 396.68L548.61 396.689Z" fill="#E3E4E5" stroke="#002346" stroke-miterlimit="10"/>
<path d="M469.377 405.955L472.466 545.097C472.552 549.022 475.719 552.152 479.593 552.152C483.614 552.152 486.841 548.786 486.72 544.713L482.509 401.908L469.377 405.947V405.955Z" fill="#E3E4E5" stroke="#002346" stroke-miterlimit="10"/>
<path d="M388.651 410.685L344.958 542.632C343.724 546.356 345.657 550.386 349.298 551.724C353.077 553.105 357.236 551.051 358.487 547.178L402.353 411.402L388.651 410.685Z" fill="#E3E4E5" stroke="#002346" stroke-miterlimit="10"/>
<path d="M480.741 399.233L488.178 501.062C488.394 504 490.81 506.273 493.709 506.273C496.91 506.273 499.447 503.537 499.248 500.293L492.691 395.797L480.741 399.233Z" fill="#E3E4E5" stroke="#002346" stroke-miterlimit="10"/>
<path d="M341.757 347.059C341.757 347.059 327.744 396.54 367.426 411.192L370.083 360.81L341.757 347.059Z" fill="white" stroke="#002346" stroke-miterlimit="10"/>
<path d="M364.578 367.699C364.578 367.699 357.262 374.169 357.158 379.659C357.124 381.591 358.349 383.322 360.152 383.934C361.593 384.423 363.957 385.193 366.977 386.067L364.57 367.691L364.578 367.699Z" fill="#E3E4E5" stroke="#002346" stroke-miterlimit="10"/>
<path d="M410.653 380.393L409.618 393.55C409.618 393.55 442.345 405.877 467.885 392.466C467.885 392.466 471.526 390.359 472.811 387.623C472.811 387.623 484.865 372.473 488.256 361.414L466.564 355.88L410.645 380.393H410.653Z" fill="#E3E4E5" stroke="#002346" stroke-miterlimit="10"/>
<path d="M578.973 202.558L600.544 199.962C600.544 199.962 622.675 196.377 620.907 217.603C620.907 217.603 620.173 243.76 604.97 291.301L579.888 386.076C578.568 391.968 573.676 396.339 567.739 396.925L475.728 405.964C475.728 405.964 467.315 417.626 446.512 418.518L410.369 417.172L409.635 393.55C409.635 393.55 441.948 405.929 467.902 392.466C469.981 391.382 471.69 389.686 472.828 387.623C474.891 383.881 478.368 376.922 481.336 367.691L497.419 322.546L506.418 303.409C506.418 303.409 512.613 290.103 523.977 287.262C523.977 287.262 531.061 283.529 539.171 283.372L562.338 282.025L561.898 229.554L578.982 202.549L578.973 202.558Z" fill="white" stroke="#002346" stroke-miterlimit="10"/>
<path d="M425.114 292.647H368.461V310.289H425.114V292.647Z" fill="#FBE493" stroke="#002346" stroke-linecap="round" stroke-linejoin="round"/>
<path d="M424.527 291.449L436.478 292.796L434.856 296.677L428.807 297.578L352.378 295.331L347.365 290.4L362.559 272.758L424.527 291.449Z" fill="white" stroke="#002346" stroke-miterlimit="10"/>
<path d="M425.114 268.274L428.842 287.445C428.842 287.445 429.635 290.225 426.564 291.581L436.469 292.787L440.455 280.976L442.819 277.086C442.819 277.086 440.757 274.69 437.953 275.294C437.953 275.294 435.891 276.194 434.114 275.145C434.114 275.145 433.466 274.673 432.017 274.629C431.24 274.603 430.541 274.175 430.162 273.493C429.446 272.199 427.944 270.083 425.114 268.265V268.274Z" fill="#F0B1BF" stroke="#002346" stroke-miterlimit="10"/>
<path d="M581.51 220.742L562.329 282.034L539.163 283.38C530.75 283.975 523.968 287.271 523.968 287.271C522.933 277.558 518.955 270.678 518.955 270.678L473.363 282.191C467.462 283.092 465.84 280.994 465.84 280.994L458.316 274.113C453.743 268.886 450.939 271.421 450.939 271.421L442.828 277.103C439.584 274.411 437.962 275.311 437.962 275.311C435.9 276.212 434.122 275.163 434.122 275.163C433.233 274.717 432.742 274.69 432.06 274.717C431.378 274.743 430.567 274.21 430.222 273.589C428.617 270.652 425.123 268.291 425.123 268.291L420.403 243.323L450.499 207.296C463.191 189.803 474.994 191.753 474.994 191.753L484.287 191.455C492.993 190.712 498.765 187.11 498.765 187.11L498.834 187.137L499.783 191.604L493.148 198.93C493.148 198.93 489.904 202.217 487.54 208.345C487.54 208.345 485.331 215.82 479.429 221.048C479.429 221.048 476.772 223.889 474.563 225.235C474.563 225.235 470.283 234.8 484.304 234.948C484.304 234.948 496.927 236.548 506.194 231.145C506.47 230.988 506.738 230.813 507.005 230.629C508.929 229.309 516.945 223.714 519.274 220.296L516.177 213.871L524.883 198.921L535.064 180.239C535.064 180.239 534.633 179.05 533.934 176.733C534.59 176.401 535.685 176.838 536.548 177.31C537.333 177.739 538.006 178.351 538.515 179.103L543.908 186.971L567.075 194.297C586.989 200.722 581.536 220.759 581.536 220.759L581.51 220.742Z" fill="#F58F74" stroke="#002346" stroke-linecap="round" stroke-linejoin="round"/>
<path d="M474.546 225.227C474.546 225.227 457.531 232.92 455.037 250.719C454.416 255.134 454.821 259.628 456.107 263.885L457.393 268.125C457.772 269.375 457.315 270.73 456.254 271.473L455.072 272.313L467.168 284.421L503.908 277.392L508.705 273.222C508.705 273.222 512.32 234.939 519.249 220.287L474.546 225.218V225.227Z" fill="white" stroke="#002346" stroke-miterlimit="10"/>
<path d="M401.067 321.348C401.067 321.348 424.234 317.309 443.855 317.912L466.133 317.615C466.133 317.615 475.132 317.318 472.475 304.458C472.475 304.458 472.768 299.527 468.048 297.28C468.048 297.28 467.919 293.005 462.423 293.862C461.638 293.985 460.896 294.282 460.231 294.71L456.694 296.983C456.694 296.983 454.485 299.379 451.681 298.478L452.121 300.122C452.121 300.122 452.414 302.517 450.352 303.112C450.352 303.112 447.254 304.606 445.779 301.468L435.011 292.498L422.025 299.527C422.025 299.527 416.866 301.171 416.27 303.715L409.635 302.814C409.635 302.814 398.272 303.863 401.076 321.348H401.067Z" fill="white" stroke="#002346" stroke-miterlimit="10"/>
<path d="M484.27 359.429L497.41 322.546C497.41 322.546 504.494 306.696 506.41 303.409L472.475 304.458C472.475 304.458 475.02 314.031 468.471 316.942C467.419 317.414 466.262 317.615 465.115 317.589C458.877 317.44 425.339 316.898 401.067 321.357C401.067 321.357 365.804 323 364.768 349.314L361.248 473.122C361.136 482.039 361.671 491.271 359.307 499.856L356.942 510.023L388.962 517.944L402.974 462.632C402.974 462.632 420.239 419.427 412.267 382.509C412.267 382.509 423.63 379.222 435.822 377.814C435.822 377.814 459.412 373.487 472.768 370.025C478.092 368.644 482.397 364.683 484.261 359.447L484.27 359.429Z" fill="#FBE493" stroke="#002346" stroke-miterlimit="10"/>
<path d="M412.284 382.482L410.067 364.701" stroke="#002346" stroke-linecap="round" stroke-linejoin="round"/>
<path d="M357.391 510.154C357.391 510.154 356.727 518.888 352.913 528.198C350.273 534.65 346.045 540.306 340.678 544.678L323.749 558.447C323.749 558.447 308.848 567.565 315.932 573.099C315.932 573.099 320.799 575.494 325.078 572.653C325.078 572.653 328.762 576.386 336.295 573.702C336.295 573.702 339.246 575.791 344.561 573.256C344.561 573.256 348.547 576.84 356.511 571.464C356.511 571.464 370.126 571.586 378.375 563.762C380.946 561.323 383.932 559.382 387.15 557.931L388.97 557.109C388.97 557.109 394.432 555.614 390.152 547.545C390.152 547.545 385.873 539.476 388.97 517.944L357.4 510.172L357.391 510.154Z" fill="white" stroke="#002346" stroke-miterlimit="10"/>
<path d="M328.581 209.351L344.129 286.221C344.552 288.32 346.347 289.841 348.461 289.893L425.218 291.79C427.513 291.843 429.282 289.736 428.842 287.445L413.363 205.784C412.905 203.38 410.783 201.684 408.375 201.78L331.929 205.015C329.729 205.111 328.141 207.174 328.581 209.36V209.351Z" fill="#438DCA" stroke="#002346" stroke-miterlimit="10"/>
<path d="M472.621 310.752L490.473 308.934" stroke="#002346" stroke-linecap="round" stroke-linejoin="round"/>
<path d="M535.03 180.23L533.899 176.725C534.581 176.532 535.306 176.681 535.944 176.943C536.945 177.354 537.791 178.071 538.403 178.971L543.874 186.953L527.351 214.605L516.134 213.862C516.134 213.862 526.902 195.477 535.021 180.23H535.03Z" fill="white" stroke="#002346" stroke-miterlimit="10"/>
<path d="M498.756 187.093C498.756 187.093 486.642 197.12 479.705 200.11C479.705 200.11 484.382 207.751 483.89 215.96C483.89 215.96 486.642 211.318 487.522 208.328C487.522 208.328 489.291 203.249 493.131 198.913L499.766 191.587L498.748 187.093H498.756Z" fill="white" stroke="#002346" stroke-miterlimit="10"/>
<path d="M524.857 198.913L516.151 213.862L519.249 220.287C516.919 223.697 508.903 229.301 506.979 230.621C506.712 230.804 506.444 230.979 506.168 231.137C496.901 236.539 484.278 234.939 484.278 234.939C470.266 234.791 474.537 225.227 474.537 225.227C476.746 223.88 479.403 221.039 479.403 221.039C485.305 215.811 487.514 208.337 487.514 208.337C489.878 202.208 493.122 198.921 493.122 198.921L499.757 191.595L498.808 187.128L497.695 181.874L513.632 154.519L528.386 153.47C530.474 164.652 532.631 172.537 533.899 176.725C534.598 179.041 535.03 180.23 535.03 180.23L524.848 198.913H524.857Z" fill="#F0B1BF" stroke="#002346" stroke-miterlimit="10"/>
<path d="M518.783 128.741C515.228 115.786 501.98 108.204 489.194 111.807C476.408 115.409 468.925 128.832 472.481 141.787L478.937 165.311C482.492 178.267 495.74 185.848 508.526 182.246C521.312 178.643 528.795 165.221 525.24 152.266L518.783 128.741Z" fill="#F0B1BF" stroke="#002346" stroke-miterlimit="10"/>
<path d="M343.232 282.777C343.232 282.777 329.22 270.52 310.332 270.52C310.332 270.52 288.201 269.471 284.517 277.401C284.517 277.401 270.202 292.053 281.713 305.656C281.713 305.656 288.796 316.12 301.782 325.535L364.621 363.748L364.777 349.297C364.777 349.297 363.301 325.081 401.076 321.339C401.076 321.339 397.832 305.044 409.635 302.806L398.539 302.211C387.823 301.634 377.34 298.845 367.728 294.011C359.298 289.771 349.134 284.866 343.241 282.777H343.232Z" fill="#FBE493" stroke="#002346" stroke-miterlimit="10"/>
<path d="M313.076 332.223C313.076 332.223 329.504 342.723 355.182 337.932L370.178 334.715" stroke="#002346" stroke-linecap="round" stroke-linejoin="round"/>
<path d="M343.232 282.777L314.759 275.748" stroke="#002346" stroke-linecap="round" stroke-linejoin="round"/>
<path d="M562.329 282.025H581.217" stroke="#002346" stroke-linecap="round" stroke-linejoin="round"/>
<path d="M541.044 223.994L523.338 258.972" stroke="#002346" stroke-linecap="round" stroke-linejoin="round"/>
<path d="M508.662 273.196C508.662 273.196 512.13 262.565 518.912 270.634C518.912 270.634 522.898 277.663 523.925 287.227C523.925 287.227 533.071 283.188 539.119 283.337L554.806 282.471C554.806 282.471 552.045 278.371 547.912 273.484C543.097 267.793 536.954 263.387 530.008 260.799C524.184 258.631 518.023 257.774 516.695 263.002C516.695 263.002 509.473 264.978 508.653 273.187L508.662 273.196Z" fill="#F58F74" stroke="#002346" stroke-linecap="round" stroke-linejoin="round"/>
<path d="M508.662 273.196L518.912 270.634C518.912 270.634 516.393 266.989 513.148 267.688C513.148 267.688 510.206 268.274 508.653 273.187L508.662 273.196Z" fill="#002346" stroke="#002346" stroke-miterlimit="10"/>
<path d="M516.695 263.011C516.695 263.011 529.085 263.308 533.96 271.386" stroke="#002346" stroke-linecap="round" stroke-linejoin="round"/>
<path d="M431.309 274.551C431.309 274.551 427.763 274.516 427.176 278.135" stroke="#002346" stroke-linecap="round" stroke-linejoin="round"/>
<path d="M442.768 277.042C442.768 277.042 431.076 276.343 434.64 284.692L443.216 278.686L442.776 277.042H442.768Z" fill="#F0B1BF" stroke="#002346" stroke-miterlimit="10"/>
<path d="M436.038 275.6L446.452 233.392" stroke="#002346" stroke-linecap="round" stroke-linejoin="round"/>
<path d="M442.819 277.095L437.599 280.679C435.442 282.165 434.208 284.692 434.364 287.332L434.916 296.703C434.985 297.875 435.692 298.933 436.771 299.361C437.513 299.658 438.367 299.658 439.118 298.767L440.007 302.832C440.334 304.335 441.749 305.332 443.259 305.114C444.692 304.904 445.753 303.662 445.753 302.194V301.459C445.753 301.459 446.935 304.449 450.326 303.103C450.326 303.103 452.095 302.806 452.095 300.113L451.655 298.469C451.655 298.469 453.76 299.221 456.046 297.508C457.03 296.765 458.057 296.083 459.101 295.418L460.197 294.71C460.947 294.229 461.802 293.923 462.69 293.819C464.58 293.609 467.539 293.853 468.04 297.272C468.04 297.272 472.759 299.51 472.466 304.449L506.401 303.4C506.401 303.4 512.743 290.094 523.96 287.253C523.96 287.253 523.226 278.432 518.946 270.66L473.355 282.174C473.355 282.174 468.04 283.372 465.831 280.976L458.307 274.096C458.307 274.096 454.468 269.165 450.93 271.403L442.819 277.086V277.095Z" fill="#F0B1BF" stroke="#002346" stroke-miterlimit="10"/>
<path d="M439.135 298.775L438.859 288.599C438.842 287.952 439.144 287.34 439.653 286.965L444.597 283.372" stroke="#002346" stroke-linecap="round" stroke-linejoin="round"/>
<path d="M445.77 301.459L444.476 292.123C444.373 291.353 444.726 290.584 445.391 290.191L449.463 287.716" stroke="#002346" stroke-linecap="round" stroke-linejoin="round"/>
<path d="M451.672 298.469L450.999 294.955C450.792 293.871 451.37 292.787 452.38 292.376L454.623 291.449" stroke="#002346" stroke-linecap="round" stroke-linejoin="round"/>
<path d="M529.283 143.749C529.283 143.749 509.516 154.511 494.442 137.83C481.215 123.187 484.14 122.217 484.14 122.217C482.233 123.109 479.334 124.778 476.616 127.751C472.803 131.921 471.405 136.397 470.861 138.661C466.815 130.601 467.859 125.294 468.635 122.68C469.671 119.218 471.94 115.616 476.271 112.338C483.441 106.918 486.651 100.396 486.651 100.396L522.208 104.129L528.507 139.535L529.292 143.74L529.283 143.749Z" fill="#002346" stroke="#002346" stroke-miterlimit="10"/>
<path d="M526.401 155.638C529.823 155.638 532.597 152.527 532.597 148.688C532.597 144.85 529.823 141.738 526.401 141.738C522.98 141.738 520.206 144.85 520.206 148.688C520.206 152.527 522.98 155.638 526.401 155.638Z" fill="#F0B1BF" stroke="#002346" stroke-miterlimit="10"/>
<path d="M483.691 157.78C483.683 158.821 482.837 159.66 481.81 159.651C480.784 159.642 479.955 158.786 479.964 157.745C479.973 156.705 480.818 155.866 481.845 155.874C482.872 155.883 483.7 156.74 483.691 157.78Z" fill="#002346" stroke="#002346" stroke-miterlimit="10"/>
<path d="M500.094 153.567C500.085 154.607 499.24 155.446 498.213 155.437C497.186 155.429 496.358 154.572 496.366 153.532C496.375 152.491 497.221 151.652 498.247 151.661C499.274 151.669 500.102 152.526 500.094 153.567Z" fill="#002346" stroke="#002346" stroke-miterlimit="10"/>
<path d="M485.917 152.858L487.246 164.774L490.879 163.629" stroke="#002346" stroke-linecap="round" stroke-linejoin="round"/>
<path d="M488.247 141.598C488.238 142.892 489.326 143.915 490.603 143.801C492.527 143.627 495.348 143.557 498.032 144.169C499.024 144.396 500.025 143.819 500.292 142.822C500.542 141.861 499.99 140.978 499.11 140.541C497.307 139.649 494.477 138.364 490.007 139.465C489.006 139.71 488.256 140.558 488.247 141.598Z" fill="#002346" stroke="#002346" stroke-miterlimit="10"/>
<path d="M479.369 143.74C479.757 144.947 479.395 146.258 478.601 146.564C477.393 147.036 475.676 147.893 474.244 149.353C473.709 149.895 472.941 149.685 472.492 148.846C472.061 148.041 472.138 147.027 472.535 146.328C473.355 144.903 474.684 142.779 477.686 142.324C478.359 142.219 479.058 142.77 479.369 143.732V143.74Z" fill="#002346" stroke="#002346" stroke-miterlimit="10"/>
<path d="M490.171 172.354C490.171 172.354 495.133 175.23 497.868 170.098" stroke="#002346" stroke-linecap="round" stroke-linejoin="round"/>
<path d="M342.292 39.0779H172.712C171.125 39.0779 169.839 40.3813 169.839 41.9891V156.74C169.839 158.348 171.125 159.651 172.712 159.651H342.292C343.878 159.651 345.165 158.348 345.165 156.74V41.9891C345.165 40.3813 343.878 39.0779 342.292 39.0779Z" fill="white" stroke="#002346" stroke-miterlimit="10"/>
<path d="M345.165 41.9978V53.4764H169.839V41.9978C169.839 40.3893 171.124 39.0867 172.712 39.0867H342.283C343.871 39.0867 345.156 40.3893 345.156 41.9978H345.165Z" fill="#E3E4E5" stroke="#002346" stroke-miterlimit="10"/>
<path d="M177.19 49.5074C178.815 49.5074 180.132 48.1727 180.132 46.5263C180.132 44.8799 178.815 43.5452 177.19 43.5452C175.565 43.5452 174.248 44.8799 174.248 46.5263C174.248 48.1727 175.565 49.5074 177.19 49.5074Z" fill="#438DCA" stroke="#002346" stroke-miterlimit="10"/>
<path d="M189.917 49.5074C191.542 49.5074 192.859 48.1727 192.859 46.5263C192.859 44.8799 191.542 43.5452 189.917 43.5452C188.292 43.5452 186.974 44.8799 186.974 46.5263C186.974 48.1727 188.292 49.5074 189.917 49.5074Z" fill="#F58F74" stroke="#002346" stroke-linecap="round" stroke-linejoin="round"/>
<path d="M202.652 49.5074C204.277 49.5074 205.594 48.1727 205.594 46.5263C205.594 44.8799 204.277 43.5452 202.652 43.5452C201.027 43.5452 199.71 44.8799 199.71 46.5263C199.71 48.1727 201.027 49.5074 202.652 49.5074Z" fill="#FBE493" stroke="#002346" stroke-miterlimit="10"/>
<path d="M381.429 65.3833H296.165C292.662 65.3833 289.823 68.2595 289.823 71.8089V82.8678L280.03 88.2093L289.823 94.3202V107.591C289.823 111.14 292.662 114.016 296.165 114.016H381.429C384.932 114.016 387.771 111.14 387.771 107.591V71.8089C387.771 68.2595 384.932 65.3833 381.429 65.3833Z" fill="white" stroke="#002346" stroke-miterlimit="10"/>
<path d="M328.02 73.3213H300.6V77.2903H328.02V73.3213Z" fill="#E3E4E5" stroke="#002346" stroke-miterlimit="10"/>
<path d="M379.937 84.2317H300.6V87.2128H379.937V84.2317Z" fill="#E3E4E5" stroke="#002346" stroke-miterlimit="10"/>
<path d="M334.88 92.1783H300.6V95.1595H334.88V92.1783Z" fill="#E3E4E5" stroke="#002346" stroke-miterlimit="10"/>
<path d="M375.036 91.1818H340.756V94.1629H375.036V91.1818Z" fill="#E3E4E5" stroke="#002346" stroke-miterlimit="10"/>
<path d="M334.88 100.116H300.6V103.097H334.88V100.116Z" fill="#E3E4E5" stroke="#002346" stroke-miterlimit="10"/>
<path d="M272.014 159.66H299.142C290.729 123.747 273.723 122.907 273.723 122.907L272.006 159.66H272.014Z" fill="#FBE493" stroke="#002346" stroke-miterlimit="10"/>
<path d="M186.508 159.66H219.624L225.051 121.841C225.051 121.841 208.933 122.907 201.358 132.052C197.095 137.192 189.589 151.267 186.508 159.66Z" fill="#FBE493" stroke="#002346" stroke-miterlimit="10"/>
<path d="M206 148.286C205.931 152.264 206.284 156.076 206.906 159.66H282.394C282.653 144.099 273.731 122.907 273.731 122.907L270.427 122.374L225.059 121.85C225.059 121.85 206.397 124.367 206.008 148.295L206 148.286Z" fill="#FBE493" stroke="#002346" stroke-miterlimit="10"/>
<path d="M270.427 122.365C270.427 122.365 255.353 118.764 251.876 118.764C251.876 118.764 242.221 118.012 225.051 121.841C225.051 121.841 238.148 132.428 251.522 146.494C254.232 149.344 258.917 148.531 260.504 144.92L270.427 122.365Z" fill="white" stroke="#002346" stroke-miterlimit="10"/>
<path d="M203.101 67.4814C203.903 78.6715 213.498 87.0816 224.542 86.2773C235.586 85.4643 243.886 75.7429 243.093 64.5528C242.29 53.3627 232.696 44.9526 221.651 45.7569C210.607 46.57 202.307 56.2914 203.101 67.4814Z" fill="#002346" stroke="#002346" stroke-miterlimit="10"/>
<path d="M240.25 90.3511C247.883 89.6187 253.485 82.7553 252.762 75.0213C252.039 67.2873 245.265 61.6114 237.632 62.3438C229.999 63.0763 224.397 69.9397 225.12 77.6737C225.843 85.4077 232.616 91.0836 240.25 90.3511Z" fill="#FBE493" stroke="#002346" stroke-miterlimit="10"/>
<path d="M268.114 98.8399C269.219 102.547 273.084 104.645 276.743 103.517C280.401 102.398 282.472 98.4815 281.359 94.7748C280.254 91.0681 276.389 88.9699 272.731 90.0977C269.072 91.2167 267.001 95.1332 268.114 98.8399Z" fill="#F0B1BF" stroke="#002346" stroke-miterlimit="10"/>
<path d="M260.038 95.3517L261.807 127.471C261.678 133.791 256.199 138.626 249.995 137.892C244.283 137.218 240.15 132.043 240.685 126.247L241.677 79.4233L260.038 95.3517Z" fill="#F0B1BF" stroke="#002346" stroke-miterlimit="10"/>
<path d="M273.007 71.7827C274.75 73.2776 275.863 75.3758 276.311 77.64C277.631 84.3453 280.237 98.3067 277.89 105.423C274.845 114.681 267.416 120.538 255.422 118.23C255.422 118.23 240.616 117.076 238.088 96.8905C234.395 67.3504 258.045 58.9753 272.998 71.7827H273.007Z" fill="#F0B1BF" stroke="#002346" stroke-miterlimit="10"/>
<path d="M271.618 92.7816C271.842 93.6383 272.705 94.1541 273.55 93.9268C274.396 93.6995 274.905 92.8253 274.681 91.9686C274.456 91.1118 273.593 90.596 272.748 90.8233C271.902 91.0506 271.393 91.9249 271.618 92.7816Z" fill="#002346" stroke="#002346" stroke-miterlimit="10"/>
<path d="M257.234 92.7816C257.459 93.6383 258.321 94.1541 259.167 93.9268C260.013 93.6995 260.522 92.8253 260.297 91.9686C260.073 91.1118 259.21 90.596 258.365 90.8233C257.519 91.0506 257.01 91.9249 257.234 92.7816Z" fill="#002346" stroke="#002346" stroke-miterlimit="10"/>
<path d="M268.563 95.4741L270.133 99.2945L267.588 99.9851" stroke="#002346" stroke-linecap="round" stroke-linejoin="round"/>
<path d="M264.534 80.4026C264.81 81.4691 264.12 82.5444 263.05 82.7193C261.428 82.9815 259.081 83.5236 257.001 84.5901C256.225 84.9923 255.284 84.73 254.862 83.9607C254.456 83.2263 254.732 82.3783 255.371 81.8276C256.673 80.7086 258.744 79.0563 262.653 79.0126C263.533 79.0038 264.318 79.5458 264.542 80.4026H264.534Z" fill="#002346" stroke="#002346" stroke-miterlimit="10"/>
<path d="M272.299 80.2889C272.23 81.3642 272.791 82.3696 273.516 82.457C274.612 82.5881 276.199 82.9378 277.683 83.8295C278.235 84.1617 278.822 83.8295 279.021 83.0427C279.21 82.2821 278.943 81.4691 278.468 80.9795C277.493 79.9829 275.966 78.5055 273.395 78.7677C272.817 78.8289 272.36 79.4234 272.299 80.2889Z" fill="#002346" stroke="#002346" stroke-miterlimit="10"/>
<path d="M268.805 104.942L258.813 102.223C258.813 102.223 257.579 106.113 262.661 107.53C267.743 108.946 268.805 104.942 268.805 104.942Z" fill="white" stroke="#002346" stroke-miterlimit="10"/>
<path d="M243.36 94.7049C243.36 94.7049 250.616 88.2006 249.175 75.5331C249.175 75.5331 261.505 77.7537 276.139 76.6521C276.139 76.6521 272.877 59.1501 245.042 63.8447C216.129 68.7229 229.563 101.034 240.306 110.957L243.36 94.7049Z" fill="#002346" stroke="#002346" stroke-miterlimit="10"/>
<path d="M229.374 100.405C230.72 104.907 235.405 107.442 239.848 106.079C244.283 104.715 246.794 99.9677 245.448 95.4654C244.102 90.9719 239.417 88.4279 234.973 89.7917C230.538 91.1555 228.028 95.9025 229.374 100.405Z" fill="#F0B1BF" stroke="#002346" stroke-miterlimit="10"/>
<path d="M233.619 95.448C233.619 95.448 239.779 93.6559 241.41 100.519" stroke="#002346" stroke-linecap="round" stroke-linejoin="round"/>
<path d="M261.566 189.593V201.072H86.2394V189.593C86.2394 187.985 87.525 186.682 89.1126 186.682H258.684C260.271 186.682 261.557 187.985 261.557 189.593H261.566Z" fill="#E3E4E5" stroke="#002346" stroke-miterlimit="10"/>
<path d="M106.317 197.103C107.942 197.103 109.26 195.768 109.26 194.122C109.26 192.475 107.942 191.141 106.317 191.141C104.692 191.141 103.375 192.475 103.375 194.122C103.375 195.768 104.692 197.103 106.317 197.103Z" fill="#F58F74" stroke="#002346" stroke-linecap="round" stroke-linejoin="round"/>
<path d="M119.053 197.103C120.678 197.103 121.995 195.768 121.995 194.122C121.995 192.475 120.678 191.141 119.053 191.141C117.428 191.141 116.11 192.475 116.11 194.122C116.11 195.768 117.428 197.103 119.053 197.103Z" fill="#FBE493" stroke="#002346" stroke-miterlimit="10"/>
<path d="M44.5822 227.561H119.855C122.944 227.561 125.455 230.096 125.455 233.235V243L134.1 247.721L125.455 253.115V264.829C125.455 267.959 122.953 270.503 119.855 270.503H44.5822C41.4932 270.503 38.9824 267.968 38.9824 264.829V233.243C38.9824 230.114 41.4846 227.57 44.5822 227.57V227.561Z" fill="white" stroke="#002346" stroke-miterlimit="10"/>
<path d="M91.727 238.078H115.938V234.572H91.727V238.078Z" fill="#E3E4E5" stroke="#002346" stroke-miterlimit="10"/>
<path d="M45.911 246.829H115.947V244.197H45.911V246.829Z" fill="#E3E4E5" stroke="#002346" stroke-miterlimit="10"/>
<path d="M85.6786 253.849H115.938V251.218H85.6786V253.849Z" fill="#E3E4E5" stroke="#002346" stroke-miterlimit="10"/>
<path d="M50.2337 252.966H80.493V250.335H50.2337V252.966Z" fill="#E3E4E5" stroke="#002346" stroke-miterlimit="10"/>
<path d="M85.6786 260.851H115.938V258.22H85.6786V260.851Z" fill="#E3E4E5" stroke="#002346" stroke-miterlimit="10"/>
<path d="M219.149 307.255H238.727C238.313 296.214 234.809 288.853 232.057 285.207C230.616 283.293 225.241 279.726 224.619 279.193C224.602 279.166 224.568 279.149 224.542 279.132C224.507 279.105 224.473 279.079 224.43 279.053C224.387 279.018 224.361 279 224.352 278.992L219.149 307.264V307.255Z" fill="#438DCA" stroke="#002346" stroke-miterlimit="10"/>
<path d="M173.462 280.688L174.869 307.255H216.837L216.267 286.921L213.636 283.52L209.606 278.319H209.598L207.466 278.048L192.738 276.185L187.026 277.523L183.195 278.415L179.304 279.324L176.016 280.093L173.462 280.688Z" fill="white" stroke="#002346" stroke-miterlimit="10"/>
<path d="M208.761 271.569L209.606 278.31V278.327L210.314 283.966L210.788 287.769C210.788 287.769 210.866 289.465 211.03 292.481C211.211 295.89 211.504 300.996 211.91 307.247H225.681L228.519 288.87C228.718 287.585 228.666 286.3 228.399 285.085C227.881 282.751 226.561 280.644 224.611 279.175C224.594 279.149 224.559 279.132 224.533 279.114C224.499 279.088 224.464 279.062 224.421 279.035C224.404 279.018 224.386 279.018 224.369 279C224.352 279 224.352 278.983 224.335 278.974C221.574 276.998 217.587 274.69 212.186 272.706C211.09 272.313 209.951 271.928 208.743 271.561L208.761 271.569Z" fill="#F58F74" stroke="#002346" stroke-linecap="round" stroke-linejoin="round"/>
<path d="M214.723 208.005C214.723 208.005 216.207 211.711 213.722 217.516L209.624 207.786L214.714 208.005H214.723Z" fill="#002346" stroke="#002346" stroke-miterlimit="10"/>
<path d="M207.475 231.521C208.674 234.843 212.298 236.557 215.577 235.342C218.856 234.126 220.547 230.455 219.348 227.133C218.148 223.811 214.524 222.097 211.246 223.312C207.967 224.527 206.276 228.199 207.475 231.521Z" fill="#F0B1BF" stroke="#002346" stroke-miterlimit="10"/>
<path d="M204.619 268.422L203.92 246.182L183.29 231.346L181.711 267.067L180.762 267.155L184.179 283.022C184.179 283.022 200.063 296.913 211.668 282.427L204.61 268.414L204.619 268.422Z" fill="#F0B1BF" stroke="#002346" stroke-miterlimit="10"/>
<path d="M213.161 208.992C213.161 208.992 219.235 230.07 216.949 238.742C214.662 247.415 208.2 253.167 197.138 251.62C197.138 251.62 184.42 251.698 180.193 232.806C173.816 204.359 199.123 194.445 213.17 208.992H213.161Z" fill="#F0B1BF" stroke="#002346" stroke-miterlimit="10"/>
<path d="M210.59 225.541C210.831 226.311 211.651 226.73 212.41 226.486C213.17 226.241 213.584 225.41 213.342 224.641C213.101 223.872 212.281 223.452 211.522 223.697C210.762 223.942 210.348 224.772 210.59 225.541Z" fill="#002346" stroke="#002346" stroke-miterlimit="10"/>
<path d="M198.312 227.001C198.553 227.771 199.373 228.19 200.132 227.946C200.892 227.701 201.306 226.87 201.064 226.101C200.823 225.332 200.003 224.912 199.244 225.157C198.484 225.402 198.07 226.232 198.312 227.001Z" fill="#002346" stroke="#002346" stroke-miterlimit="10"/>
<path d="M208.916 226.862L210.771 231.705L208.493 232.465" stroke="#002346" stroke-linecap="round" stroke-linejoin="round"/>
<path d="M203.377 216.887C203.739 218.023 203.057 219.23 201.901 219.483C200.158 219.868 197.656 220.593 195.473 221.878C194.662 222.359 193.627 222.132 193.118 221.328C192.635 220.558 192.885 219.623 193.54 218.994C194.878 217.708 197.026 215.785 201.254 215.505C202.203 215.444 203.092 215.977 203.377 216.895V216.887Z" fill="#002346" stroke="#002346" stroke-miterlimit="10"/>
<path d="M209.175 216.633C209.166 217.796 209.831 218.854 210.624 218.906C211.815 218.985 213.558 219.265 215.215 220.139C215.827 220.462 216.449 220.069 216.621 219.203C216.785 218.373 216.44 217.507 215.896 217.009C214.783 215.986 213.04 214.483 210.279 214.928C209.658 215.025 209.192 215.698 209.184 216.642L209.175 216.633Z" fill="#002346" stroke="#002346" stroke-miterlimit="10"/>
<path d="M210.159 237.851L199.321 236.976C199.321 236.976 200.314 242.449 204.576 242.449C208.493 242.449 210.159 237.851 210.159 237.851Z" fill="white"/>
<path d="M210.159 237.851L199.321 236.976C199.321 236.976 200.314 242.449 204.576 242.449C208.493 242.449 210.159 237.851 210.159 237.851Z" stroke="#002346" stroke-miterlimit="10"/>
<path d="M184.602 232.448C184.602 232.448 190.702 231.259 187.087 215.54C187.087 215.54 193.006 210.4 201.729 211.3C210.452 212.201 221.884 209.604 221.013 200.303C219.874 188.221 200.365 186.997 188.027 196.989C176.845 206.055 161.374 211.79 176.664 233.698L184.602 232.448Z" fill="#002346" stroke="#002346" stroke-miterlimit="10"/>
<path d="M178.13 235.175L182.237 246.427L184.619 236.662L178.13 235.175Z" fill="#002346" stroke="#002346" stroke-miterlimit="10"/>
<path d="M172.246 234.931C173.695 238.961 178.096 241.033 182.073 239.564C186.051 238.095 188.096 233.637 186.646 229.607C185.197 225.576 180.796 223.505 176.819 224.973C172.841 226.442 170.796 230.9 172.246 234.931Z" fill="#F0B1BF" stroke="#002346" stroke-miterlimit="10"/>
<path d="M175.878 230.201C175.878 230.201 181.401 228.252 183.238 234.424" stroke="#002346" stroke-linecap="round" stroke-linejoin="round"/>
<path d="M181.78 267.05C181.987 268.011 182.03 269.174 182.565 270.136C182.867 270.678 183.23 271.211 183.661 271.727C187.087 275.801 189.123 279.901 190.339 285.933C190.987 289.159 190.029 297.228 190.029 297.228L169.821 272.522C169.821 272.522 175.128 261.21 181.979 260.694L181.78 267.05Z" fill="white" stroke="#002346" stroke-miterlimit="10"/>
<path d="M142.634 295.873L143.402 307.255H191.642C190.788 300.908 190.02 297.228 190.02 297.228C187.501 289.002 183.247 283.223 179.295 279.324C174.317 274.419 169.813 272.522 169.813 272.522C159.45 276.946 151.271 282.864 146.603 286.685C146.585 286.702 146.577 286.702 146.56 286.72C143.859 288.94 142.401 292.359 142.634 295.882V295.873Z" fill="#F58F74" stroke="#002346" stroke-linecap="round" stroke-linejoin="round"/>
<path d="M134.523 307.255H160.322C155.214 293.224 146.862 286.938 146.568 286.711C141.245 289.753 137.362 297.447 134.532 307.255H134.523Z" fill="#438DCA" stroke="#002346" stroke-miterlimit="10"/>
<path d="M204.731 272.094C204.731 272.094 209.856 280.854 210.935 292.647C210.935 292.647 220.409 277.331 204.455 260.72L204.731 272.094Z" fill="white" stroke="#002346" stroke-miterlimit="10"/>
<path d="M391.999 180.108C402.506 180.108 411.024 171.478 411.024 160.831C411.024 150.185 402.506 141.555 391.999 141.555C381.492 141.555 372.974 150.185 372.974 160.831C372.974 171.478 381.492 180.108 391.999 180.108Z" fill="#FBE493" stroke="#002346" stroke-miterlimit="10"/>
<path d="M396.952 154.126H381.24V166.697H396.952V154.126Z" fill="white" stroke="#002346" stroke-miterlimit="10"/>
<path d="M401.922 154.825V165.954C401.922 166.199 401.62 166.304 401.473 166.112L397.15 160.429C397.012 160.246 397.021 160.001 397.167 159.826L401.482 154.668C401.637 154.484 401.922 154.598 401.922 154.834V154.825Z" fill="white" stroke="#002346" stroke-miterlimit="10"/>
<path d="M263.369 248.621C272.947 248.621 280.712 240.754 280.712 231.049C280.712 221.344 272.947 213.477 263.369 213.477C253.791 213.477 246.026 221.344 246.026 231.049C246.026 240.754 253.791 248.621 263.369 248.621Z" fill="#F58F74" stroke="#002346" stroke-linecap="round" stroke-linejoin="round"/>
<path d="M266.976 227.299C266.976 227.299 265.724 232.378 261.661 236.373C261.661 236.373 259.391 234.013 257.545 235.892L255.276 238.672C255.276 238.672 254.025 240.368 255.276 241.881L257.726 243.454C257.726 243.454 259.633 244.425 261.902 242.064C261.902 242.064 269.426 234.931 271.1 226.704C271.1 226.704 272.178 222.167 270.625 220.349L268.658 218.653C268.658 218.653 266.812 217.621 265.319 219.981L264.007 222.525C264.007 222.525 262.929 224.58 264.724 225.795L266.993 227.307L266.976 227.299Z" fill="white" stroke="#002346" stroke-miterlimit="10"/>
<path d="M515.884 475.325C516.065 477.476 516.341 479.897 516.746 482.363C516.746 482.363 525.332 453.898 553.546 457.578L548.007 445.208L543.425 440.566C534.227 445.409 525.314 443.949 519.231 456.451C516.393 462.291 515.331 468.847 515.884 475.334V475.325Z" fill="#7CD093" stroke="#002346" stroke-miterlimit="10"/>
<path d="M595.436 448.076C569.974 448.102 566.16 410.082 591.89 378.435C591.976 378.33 592.14 378.4 592.123 378.54C591.105 389.328 622.373 427.995 601.881 445.698C600.078 447.254 597.8 448.084 595.436 448.084V448.076Z" fill="#7CD093" stroke="#002346" stroke-miterlimit="10"/>
<path d="M593.9 433.87C577.834 424.209 581.458 395.246 629.06 378.155C629.147 378.12 629.242 378.208 629.207 378.295C628.663 379.869 625.514 390.115 623.858 419.034C623.417 426.745 612.546 445.095 593.9 433.878V433.87Z" fill="#7CD093" stroke="#002346" stroke-miterlimit="10"/>
<path d="M610.527 497.356C611.252 503.056 573.132 503.056 573.848 497.356C573.123 491.656 611.243 491.656 610.527 497.356Z" fill="#002346" stroke="#002346" stroke-miterlimit="10"/>
<path d="M612.028 547.816C610.38 547.563 568.404 548.542 568.3 547.029C560.034 543.051 559.681 530.078 559.681 530.078C558.43 512.768 573.848 503.475 573.848 503.475V497.356C573.123 503.056 611.243 503.056 610.527 497.356V503.904C630.708 517.323 626.619 546.461 612.037 547.816H612.028Z" fill="#F58F74" stroke="#002346" stroke-linecap="round" stroke-linejoin="round"/>
<path d="M611.778 511.501C611.821 514.788 606.73 514.788 606.773 511.501C606.73 508.214 611.821 508.214 611.778 511.501Z" fill="white"/>
<path d="M619.276 519.106C619.319 522.394 614.228 522.394 614.272 519.106C614.228 515.819 619.319 515.819 619.276 519.106Z" fill="white"/>
<path d="M620.527 531.346C620.57 534.633 615.479 534.633 615.523 531.346C615.479 528.059 620.57 528.059 620.527 531.346Z" fill="white"/>
<path d="M613.857 540.639C613.901 543.926 608.81 543.926 608.853 540.639C608.81 537.352 613.901 537.352 613.857 540.639Z" fill="white"/>
<path d="M593.434 543.174C593.477 546.461 588.387 546.461 588.43 543.174C588.387 539.887 593.477 539.887 593.434 543.174Z" fill="white"/>
<path d="M577.601 540.639C577.645 543.926 572.554 543.926 572.597 540.639C572.554 537.352 577.645 537.352 577.601 540.639Z" fill="white"/>
<path d="M568.844 533.461C568.887 536.748 563.796 536.748 563.839 533.461C563.796 530.174 568.887 530.174 568.844 533.461Z" fill="white"/>
<path d="M570.095 519.106C570.138 522.394 565.047 522.394 565.09 519.106C565.047 515.819 570.138 515.819 570.095 519.106Z" fill="white"/>
<path d="M579.267 510.661C579.31 513.949 574.219 513.949 574.262 510.661C574.219 507.374 579.31 507.374 579.267 510.661Z" fill="white"/>
<path d="M587.602 518.258C587.645 521.546 582.554 521.546 582.597 518.258C582.554 514.971 587.645 514.971 587.602 518.258Z" fill="white"/>
<path d="M578.016 525.016C578.059 528.303 572.968 528.303 573.011 525.016C572.968 521.729 578.059 521.729 578.016 525.016Z" fill="white"/>
<path d="M586.35 533.461C586.394 536.748 581.303 536.748 581.346 533.461C581.303 530.174 586.394 530.174 586.35 533.461Z" fill="white"/>
<path d="M595.522 526.284C595.565 529.571 590.475 529.571 590.518 526.284C590.475 522.997 595.565 522.997 595.522 526.284Z" fill="white"/>
<path d="M597.188 511.92C597.231 515.207 592.14 515.207 592.183 511.92C592.14 508.633 597.231 508.633 597.188 511.92Z" fill="white"/>
<path d="M604.686 520.794C604.729 524.081 599.638 524.081 599.681 520.794C599.638 517.507 604.729 517.507 604.686 520.794Z" fill="white"/>
<path d="M610.527 526.703C610.57 529.991 605.479 529.991 605.522 526.703C605.479 523.416 610.57 523.416 610.527 526.703Z" fill="white"/>
<path d="M602.192 535.149C602.235 538.436 597.144 538.436 597.188 535.149C597.144 531.861 602.235 531.861 602.192 535.149Z" fill="white"/>
<path d="M633.029 468.856C619.284 457.509 599.741 473.078 619.276 492.504C619.276 492.504 629.276 501.797 633.443 511.509C633.443 511.509 652.615 497.574 653.03 478.569C653.03 478.569 653.03 459.143 633.021 468.856H633.029Z" fill="#7CD093" stroke="#002346" stroke-miterlimit="10"/>
<path d="M516.358 466.504C537.955 427.933 547.178 467.597 579.69 462.098C580.181 417.749 516.841 419.62 516.358 466.504Z" fill="#7CD093" stroke="#002346" stroke-miterlimit="10"/>
<path d="M573.848 503.475C573.848 503.475 589.232 511.483 610.527 503.895" stroke="#002346" stroke-linecap="round" stroke-linejoin="round"/>
<path d="M596.04 483.018C596.04 483.018 605.1 444.483 628.146 463.173C631.39 465.805 633.418 469.669 634.401 473.752C635.928 480.081 637.87 491.603 635.428 502.741" stroke="#002346" stroke-linecap="round" stroke-linejoin="round"/>
<path d="M625.471 381.635C625.471 381.635 582.908 412.827 597.403 497.242" stroke="#002346" stroke-linecap="round" stroke-linejoin="round"/>
<path d="M533.105 441.265C533.105 441.265 589.25 440.347 591.062 496.315" stroke="#002346" stroke-linecap="round" stroke-linejoin="round"/>
<path d="M147.698 542.291H129.985V574.663H147.698V542.291Z" fill="#E3E4E5" stroke="#002346" stroke-miterlimit="10"/>
<path d="M69.397 542.291H51.6832V574.663H69.397V542.291Z" fill="#E3E4E5" stroke="#002346" stroke-miterlimit="10"/>
<path d="M186.646 348.239H45.2207C42.2698 348.239 39.8798 350.661 39.8798 353.65V536.879C39.8798 539.869 42.2698 542.291 45.2207 542.291H186.638V348.239H186.646Z" fill="#E3E4E5" stroke="#002346" stroke-miterlimit="10"/>
<path d="M208.191 348.239H75.9115C72.9618 348.239 70.5706 350.662 70.5706 353.65V536.879C70.5706 539.868 72.9618 542.291 75.9115 542.291H208.191C211.141 542.291 213.532 539.868 213.532 536.879V353.65C213.532 350.662 211.141 348.239 208.191 348.239Z" fill="white" stroke="#002346" stroke-miterlimit="10"/>
<path d="M200.892 542.291H183.178V574.663H200.892V542.291Z" fill="white" stroke="#002346" stroke-miterlimit="10"/>
<path d="M99.0007 542.291H81.2869V574.663H99.0007V542.291Z" fill="white" stroke="#002346" stroke-miterlimit="10"/>
<path d="M198.182 406.567H85.9202C82.7536 406.567 80.1824 403.953 80.1824 400.754V363.337C80.1824 360.129 82.7622 357.523 85.9202 357.523H198.182C201.349 357.523 203.92 360.137 203.92 363.337V400.754C203.92 403.962 201.34 406.567 198.182 406.567Z" fill="#E3E4E5" stroke="#002346" stroke-miterlimit="10"/>
<path d="M147.785 382.037C147.785 385.245 145.214 387.85 142.047 387.85C138.88 387.85 136.309 385.245 136.309 382.037C136.309 378.828 138.88 376.223 142.047 376.223C145.214 376.223 147.785 378.828 147.785 382.037Z" fill="white" stroke="#002346" stroke-miterlimit="10"/>
<path d="M198.182 468.786H85.9202C82.7536 468.786 80.1824 466.172 80.1824 462.972V425.556C80.1824 422.347 82.7622 419.742 85.9202 419.742H198.182C201.349 419.742 203.92 422.356 203.92 425.556V462.972C203.92 466.181 201.34 468.786 198.182 468.786Z" fill="#E3E4E5" stroke="#002346" stroke-miterlimit="10"/>
<path d="M147.785 444.264C147.785 447.472 145.214 450.078 142.047 450.078C138.88 450.078 136.309 447.472 136.309 444.264C136.309 441.056 138.88 438.45 142.047 438.45C145.214 438.45 147.785 441.056 147.785 444.264Z" fill="white" stroke="#002346" stroke-miterlimit="10"/>
<path d="M198.182 531.005H85.9202C82.7536 531.005 80.1824 528.391 80.1824 525.191V487.774C80.1824 484.566 82.7622 481.961 85.9202 481.961H198.182C201.349 481.961 203.92 484.575 203.92 487.774V525.191C203.92 528.399 201.34 531.005 198.182 531.005Z" fill="#E3E4E5" stroke="#002346" stroke-miterlimit="10"/>
<path d="M147.785 506.483C147.785 509.691 145.214 512.296 142.047 512.296C138.88 512.296 136.309 509.691 136.309 506.483C136.309 503.274 138.88 500.669 142.047 500.669C145.214 500.669 147.785 503.274 147.785 506.483Z" fill="white" stroke="#002346" stroke-miterlimit="10"/>
<path d="M78.6293 130.434C105.791 130.434 127.81 108.124 127.81 80.6036C127.81 53.0827 105.791 30.7727 78.6293 30.7727C51.4674 30.7727 29.4482 53.0827 29.4482 80.6036C29.4482 108.124 51.4674 130.434 78.6293 130.434Z" fill="#E3E4E5" stroke="#002346" stroke-miterlimit="10"/>
<path d="M78.6293 123.441C101.979 123.441 120.908 104.262 120.908 80.6037C120.908 56.9454 101.979 37.7666 78.6293 37.7666C55.2795 37.7666 36.3508 56.9454 36.3508 80.6037C36.3508 104.262 55.2795 123.441 78.6293 123.441Z" fill="white" stroke="#002346" stroke-miterlimit="10"/>
<path d="M75.178 59.6222V87.5974H95.8858" stroke="#002346" stroke-linecap="round" stroke-linejoin="round"/>
</g>
<defs>
<filter id="filter0_d_4_3" x="-4" y="0" width="755" height="605" filterUnits="userSpaceOnUse" color-interpolation-filters="sRGB">
<feFlood flood-opacity="0" result="BackgroundImageFix"/>
<feColorMatrix in="SourceAlpha" type="matrix" values="0 0 0 0 0 0 0 0 0 0 0 0 0 0 0 0 0 0 127 0" result="hardAlpha"/>
<feOffset dy="4"/>
<feGaussianBlur stdDeviation="2"/>
<feComposite in2="hardAlpha" operator="out"/>
<feColorMatrix type="matrix" values="0 0 0 0 0 0 0 0 0 0 0 0 0 0 0 0 0 0 0.25 0"/>
<feBlend mode="normal" in2="BackgroundImageFix" result="effect1_dropShadow_4_3"/>
<feBlend mode="normal" in="SourceGraphic" in2="effect1_dropShadow_4_3" result="shape"/>
</filter>
</defs>
</svg>
