<?xml version="1.0" encoding="UTF-8"?>
<svg xmlns="http://www.w3.org/2000/svg" id="a" width="865.76" height="682.89" viewBox="0 0 865.76 682.89">
  <path d="m624.2,79.78v364.57h207.43V82.13s-98.21-125.71-207.43-2.36Zm192.5,8.64v51.86h-51.86V50.08c32.37,12.89,51.86,38.34,51.86,38.34Zm-116.29,238.86v-80.14h51.86v80.14h-51.86Zm51.86,14.14v88h-51.86v-88h51.86Zm-64.43-108.43h-50.29v-78.57h50.29v78.57Zm12.57-78.57h51.86v78.57h-51.86v-78.57Zm-12.57,92.71v80.14h-50.29v-80.14h50.29Zm77,0h51.86v80.14h-51.86v-80.14Zm0-14.14v-78.57h51.86v78.57h-51.86Zm-12.57-187.04v94.32h-51.86V46.64c19.17-5.43,36.62-4.65,51.86-.69Zm-64.43,5.07v89.25h-50.29v-55c17.6-16.78,34.45-27.69,50.29-34.25Zm-50.29,290.39h50.29v88h-50.29v-88Zm127.29,88v-88h51.86v88h-51.86Z" fill="#fff" stroke="#002346" stroke-miterlimit="10"></path>
  <rect x="99.95" y="213.54" width="203.2" height="137.92" rx="3.33" ry="3.33" fill="#fff" stroke="#002346" stroke-miterlimit="10"></rect>
  <path d="m617.14,147.89s40.19-13.97,45.24,27.47c5.06,41.45-58.22,58.6-67.53,22.46s22.28-49.93,22.28-49.93Z" fill="#002346" stroke="#002346" stroke-miterlimit="10"></path>
  <path d="m552.01,172.03s-11.71-12.09-9.12-31.54c1.76-13.18,7.45-17.62,7.45-17.62,0,0-9.49-17.59,16.99-17.4,26.48.19,42.49,12.64,42.49,12.64,0,0,11.89-6.35,17.79,7.56,5.9,13.91,1.19,34.89,1.19,34.89l-76.78,11.47Z" fill="#002346" stroke="#002346" stroke-miterlimit="10"></path>
  <path d="m635.83,453.76l47.97,142.09c.97,2.87,3.65,4.79,6.68,4.79h0c4.77,0,8.17-4.64,6.72-9.19l-45.63-143.17-15.73,5.47Z" fill="#e3e4e5" stroke="#002346" stroke-miterlimit="10"></path>
  <path d="m544,464.36l3.58,159.16c.1,4.49,3.77,8.07,8.26,8.07h0c4.66,0,8.4-3.85,8.26-8.51l-4.88-163.35-15.22,4.62Z" fill="#e3e4e5" stroke="#002346" stroke-miterlimit="10"></path>
  <path d="m450.44,469.77l-50.64,150.93c-1.43,4.26.81,8.87,5.03,10.4h0c4.38,1.58,9.2-.77,10.65-5.2l50.84-155.31-15.88-.82Z" fill="#e3e4e5" stroke="#002346" stroke-miterlimit="10"></path>
  <path d="m557.17,456.67l8.62,116.48c.25,3.36,3.05,5.96,6.41,5.96h0c3.71,0,6.65-3.13,6.42-6.84l-7.6-119.53-13.85,3.93Z" fill="#e3e4e5" stroke="#002346" stroke-miterlimit="10"></path>
  <path d="m396.09,396.99s-16.24,56.6,29.75,73.36l3.08-57.63-32.83-15.73Z" fill="#fff" stroke="#002346" stroke-miterlimit="10"></path>
  <path d="m422.54,420.6s-8.48,7.4-8.6,13.68c-.04,2.21,1.38,4.19,3.47,4.89,1.67.56,4.41,1.44,7.91,2.44l-2.79-21.02Z" fill="#e3e4e5" stroke="#002346" stroke-miterlimit="10"></path>
  <path d="m475.94,435.12l-1.2,15.05s37.93,14.1,67.53-1.24c0,0,4.22-2.41,5.71-5.54,0,0,13.97-17.33,17.9-29.98l-25.14-6.33-64.81,28.04Z" fill="#e3e4e5" stroke="#002346" stroke-miterlimit="10"></path>
  <path d="m671.02,231.7l25-2.97s25.65-4.1,23.6,20.18c0,0-.85,29.92-18.47,84.3l-29.07,108.41c-1.53,6.74-7.2,11.74-14.08,12.41l-106.64,10.34s-9.75,13.34-33.86,14.36l-41.89-1.54-.85-27.02s37.45,14.16,67.53-1.24c2.41-1.24,4.39-3.18,5.71-5.54,2.39-4.28,6.42-12.24,9.86-22.8l18.64-51.64,10.43-21.89s7.18-15.22,20.35-18.47c0,0,8.21-4.27,17.61-4.45l26.85-1.54-.51-60.02,19.8-30.89Z" fill="#fff" stroke="#002346" stroke-miterlimit="10"></path>
  <rect x="427.04" y="334.75" width="65.66" height="20.18" fill="#fbe493" stroke="#002346" stroke-linecap="round" stroke-linejoin="round"></rect>
  <polygon points="492.02 333.38 505.87 334.92 503.99 339.36 496.98 340.39 408.4 337.82 402.59 332.18 420.2 312 492.02 333.38" fill="#fff" stroke="#002346" stroke-miterlimit="10"></polygon>
  <path d="m492.7,306.87l4.32,21.93s.92,3.18-2.64,4.73l11.48,1.38,4.62-13.51,2.74-4.45s-2.39-2.74-5.64-2.05c0,0-2.39,1.03-4.45-.17,0,0-.75-.54-2.43-.59-.9-.03-1.71-.52-2.15-1.3-.83-1.48-2.57-3.9-5.85-5.98Z" fill="#f0b1bf" stroke="#002346" stroke-miterlimit="10"></path>
  <path d="m673.96,252.5l-22.23,70.11-26.85,1.54c-9.75.68-17.61,4.45-17.61,4.45-1.2-11.11-5.81-18.98-5.81-18.98l-52.84,13.17c-6.84,1.03-8.72-1.37-8.72-1.37l-8.72-7.87c-5.3-5.98-8.55-3.08-8.55-3.08l-9.4,6.5c-3.76-3.08-5.64-2.05-5.64-2.05-2.39,1.03-4.45-.17-4.45-.17-1.03-.51-1.6-.54-2.39-.51s-1.73-.58-2.13-1.29c-1.86-3.36-5.91-6.06-5.91-6.06l-5.47-28.56,34.88-41.21c14.71-20.01,28.39-17.78,28.39-17.78l10.77-.34c10.09-.85,16.78-4.97,16.78-4.97l.08.03,1.1,5.11-7.69,8.38s-3.76,3.76-6.5,10.77c0,0-2.56,8.55-9.4,14.53,0,0-3.08,3.25-5.64,4.79,0,0-4.96,10.94,11.29,11.11,0,0,14.63,1.83,25.37-4.35.32-.18.63-.38.94-.59,2.23-1.51,11.52-7.91,14.22-11.82l-3.59-7.35,10.09-17.1,11.8-21.37s-.5-1.36-1.31-4.01c.76-.38,2.03.12,3.03.66.91.49,1.69,1.19,2.28,2.05l6.25,9,26.85,8.38c23.08,7.35,16.76,30.27,16.76,30.27Z" fill="#f58f74" stroke="#002346" stroke-linecap="round" stroke-linejoin="round"></path>
  <path d="m549.99,257.63s-19.72,8.8-22.61,29.16c-.72,5.05-.25,10.19,1.24,15.06l1.49,4.85c.44,1.43-.09,2.98-1.32,3.83l-1.37.96,14.02,13.85,42.58-8.04,5.56-4.77s4.19-43.79,12.22-60.55l-51.81,5.64Z" fill="#fff" stroke="#002346" stroke-miterlimit="10"></path>
  <path d="m464.83,367.58s26.85-4.62,49.59-3.93l25.82-.34s10.43-.34,7.35-15.05c0,0,.34-5.64-5.13-8.21,0,0-.15-4.89-6.52-3.91-.91.14-1.77.48-2.54.97l-4.1,2.6s-2.56,2.74-5.81,1.71l.51,1.88s.34,2.74-2.05,3.42c0,0-3.59,1.71-5.3-1.88l-12.48-10.26-15.05,8.04s-5.98,1.88-6.67,4.79l-7.69-1.03s-13.17,1.2-9.92,21.2Z" fill="#fff" stroke="#002346" stroke-miterlimit="10"></path>
  <path d="m561.26,411.14l15.23-42.19s8.21-18.13,10.43-21.89l-39.33,1.2s2.95,10.95-4.64,14.28c-1.22.54-2.56.77-3.89.74-7.23-.17-46.1-.79-74.23,4.31,0,0-40.87,1.88-42.07,31.98l-4.08,141.62c-.13,10.2.49,20.76-2.25,30.58l-2.74,11.63,37.11,9.06,16.24-63.27s20.01-49.42,10.77-91.65c0,0,13.17-3.76,27.3-5.37,0,0,27.34-4.95,42.82-8.91,6.17-1.58,11.16-6.11,13.32-12.1Z" fill="#fbe493" stroke="#002346" stroke-miterlimit="10"></path>
  <line x1="477.83" y1="437.51" x2="475.26" y2="417.17" fill="none" stroke="#002346" stroke-linecap="round" stroke-linejoin="round"></line>
  <path d="m414.21,583.55s-.77,9.99-5.19,20.64c-3.06,7.38-7.96,13.85-14.18,18.85l-19.62,15.75s-17.27,10.43-9.06,16.76c0,0,5.64,2.74,10.6-.51,0,0,4.27,4.27,13,1.2,0,0,3.42,2.39,9.58-.51,0,0,4.62,4.1,13.85-2.05,0,0,15.78.14,25.34-8.81,2.98-2.79,6.44-5.01,10.17-6.67l2.11-.94s6.33-1.71,1.37-10.94c0,0-4.96-9.23-1.37-33.86l-36.59-8.89Z" fill="#fff" stroke="#002346" stroke-miterlimit="10"></path>
  <path d="m380.82,239.47l18.02,87.93c.49,2.4,2.57,4.14,5.02,4.2l88.96,2.17c2.66.06,4.71-2.35,4.2-4.97l-17.94-93.41c-.53-2.75-2.99-4.69-5.78-4.58l-88.6,3.7c-2.55.11-4.39,2.47-3.88,4.97Z" fill="#438dca" stroke="#002346" stroke-miterlimit="10"></path>
  <line x1="547.76" y1="355.46" x2="568.45" y2="353.38" fill="none" stroke="#002346" stroke-linecap="round" stroke-linejoin="round"></line>
  <path d="m620.09,206.16l-1.31-4.01c.79-.22,1.63-.05,2.37.25,1.16.47,2.14,1.29,2.85,2.32l6.34,9.13-19.15,31.63-13-.85s12.48-21.03,21.89-38.47Z" fill="#fff" stroke="#002346" stroke-miterlimit="10"></path>
  <path d="m578.05,214.01s-14.04,11.47-22.08,14.89c0,0,5.42,8.74,4.85,18.13,0,0,3.19-5.31,4.21-8.73,0,0,2.05-5.81,6.5-10.77l7.69-8.38-1.18-5.14Z" fill="#fff" stroke="#002346" stroke-miterlimit="10"></path>
  <path d="m608.3,227.53l-10.09,17.1,3.59,7.35c-2.7,3.9-11.99,10.31-14.22,11.82-.31.21-.62.41-.94.59-10.74,6.18-25.37,4.35-25.37,4.35-16.24-.17-11.29-11.11-11.29-11.11,2.56-1.54,5.64-4.79,5.64-4.79,6.84-5.98,9.4-14.53,9.4-14.53,2.74-7.01,6.5-10.77,6.5-10.77l7.69-8.38-1.1-5.11-1.29-6.01,18.47-31.29,17.1-1.2c2.42,12.79,4.92,21.81,6.39,26.6.81,2.65,1.31,4.01,1.31,4.01l-11.8,21.37Z" fill="#f0b1bf" stroke="#002346" stroke-miterlimit="10"></path>
  <rect x="550.32" y="126.36" width="55.7" height="83.63" rx="27.85" ry="27.85" transform="translate(-23.92 161.05) rotate(-15.54)" fill="#f0b1bf" stroke="#002346" stroke-miterlimit="10"></rect>
  <path d="m397.8,323.46s-16.24-14.02-38.13-14.02c0,0-25.65-1.2-29.92,7.87,0,0-16.59,16.76-3.25,32.32,0,0,8.21,11.97,23.26,22.74l72.83,43.71.18-16.53s-1.71-27.7,42.07-31.98c0,0-3.76-18.64,9.92-21.2l-12.86-.68c-12.42-.66-24.57-3.85-35.71-9.38-9.77-4.85-21.55-10.46-28.38-12.85Z" fill="#fbe493" stroke="#002346" stroke-miterlimit="10"></path>
  <path d="m362.85,380.02s19.04,12.01,48.8,6.53l17.38-3.68" fill="none" stroke="#002346" stroke-linecap="round" stroke-linejoin="round"></path>
  <line x1="397.8" y1="323.46" x2="364.8" y2="315.42" fill="none" stroke="#002346" stroke-linecap="round" stroke-linejoin="round"></line>
  <line x1="651.73" y1="322.6" x2="673.62" y2="322.6" fill="none" stroke="#002346" stroke-linecap="round" stroke-linejoin="round"></line>
  <line x1="627.06" y1="256.22" x2="606.54" y2="296.23" fill="none" stroke="#002346" stroke-linecap="round" stroke-linejoin="round"></line>
  <path d="m589.53,312.5s4.02-12.16,11.88-2.93c0,0,4.62,8.04,5.81,18.98,0,0,10.6-4.62,17.61-4.45l18.18-.99s-3.2-4.69-7.99-10.28c-5.58-6.51-12.7-11.55-20.75-14.51-6.75-2.48-13.89-3.46-15.43,2.52,0,0-8.37,2.26-9.32,11.65Z" fill="#f58f74" stroke="#002346" stroke-linecap="round" stroke-linejoin="round"></path>
  <path d="m589.53,312.5l11.88-2.93s-2.92-4.17-6.68-3.37c0,0-3.41.67-5.21,6.29Z" fill="#002346" stroke="#002346" stroke-miterlimit="10"></path>
  <path d="m598.84,300.85s14.36.34,20.01,9.58" fill="none" stroke="#002346" stroke-linecap="round" stroke-linejoin="round"></path>
  <path d="m499.88,314.05s-4.11-.04-4.79,4.1" fill="none" stroke="#002346" stroke-linecap="round" stroke-linejoin="round"></path>
  <path d="m513.16,316.9s-13.55-.8-9.42,8.75l9.94-6.87-.51-1.88Z" fill="#f0b1bf" stroke="#002346" stroke-miterlimit="10"></path>
  <line x1="505.36" y1="315.25" x2="517.43" y2="266.97" fill="none" stroke="#002346" stroke-linecap="round" stroke-linejoin="round"></line>
  <path d="m513.22,316.96l-6.05,4.1c-2.5,1.7-3.93,4.59-3.75,7.61l.64,10.72c.08,1.34.9,2.55,2.15,3.04.86.34,1.85.34,2.72-.68l1.03,4.65c.38,1.72,2.02,2.86,3.77,2.61h0c1.66-.24,2.89-1.66,2.89-3.34v-.84s1.37,3.42,5.3,1.88c0,0,2.05-.34,2.05-3.42l-.51-1.88s2.44.86,5.09-1.1c1.14-.85,2.33-1.63,3.54-2.39l1.27-.81c.87-.55,1.86-.9,2.89-1.02,2.19-.24,5.62.04,6.2,3.95,0,0,5.47,2.56,5.13,8.21l39.33-1.2s7.35-15.22,20.35-18.47c0,0-.85-10.09-5.81-18.98l-52.84,13.17s-6.16,1.37-8.72-1.37l-8.72-7.87s-4.45-5.64-8.55-3.08l-9.4,6.5Z" fill="#f0b1bf" stroke="#002346" stroke-miterlimit="10"></path>
  <path d="m508.95,341.76l-.32-11.64c-.02-.74.33-1.44.92-1.87l5.73-4.11" fill="none" stroke="#002346" stroke-linecap="round" stroke-linejoin="round"></path>
  <path d="m516.64,344.83l-1.5-10.68c-.12-.88.29-1.76,1.06-2.21l4.72-2.83" fill="none" stroke="#002346" stroke-linecap="round" stroke-linejoin="round"></path>
  <path d="m523.48,341.41l-.78-4.02c-.24-1.24.43-2.48,1.6-2.95l2.6-1.06" fill="none" stroke="#002346" stroke-linecap="round" stroke-linejoin="round"></path>
  <path d="m613.43,164.43s-22.91,12.31-40.38-6.77c-15.33-16.75-11.94-17.86-11.94-17.86-2.21,1.02-5.57,2.93-8.72,6.33-4.42,4.77-6.04,9.89-6.67,12.48-4.69-9.22-3.48-15.29-2.58-18.28,1.2-3.96,3.83-8.08,8.85-11.83,8.31-6.2,12.03-13.66,12.03-13.66l41.21,4.27,7.3,40.5.91,4.81Z" fill="#002346" stroke="#002346" stroke-miterlimit="10"></path>
  <ellipse cx="610.09" cy="170.08" rx="7.18" ry="7.95" fill="#f0b1bf" stroke="#002346" stroke-miterlimit="10"></ellipse>
  <path d="m560.59,180.48c-.01,1.19-.99,2.15-2.18,2.14-1.19-.01-2.15-.99-2.14-2.18.01-1.19.99-2.15,2.18-2.14,1.19.01,2.15.99,2.14,2.18Z" fill="#002346" stroke="#002346" stroke-miterlimit="10"></path>
  <path d="m579.6,175.66c-.01,1.19-.99,2.15-2.18,2.14-1.19-.01-2.15-.99-2.14-2.18.01-1.19.99-2.15,2.18-2.14,1.19.01,2.15.99,2.14,2.18Z" fill="#002346" stroke="#002346" stroke-miterlimit="10"></path>
  <polyline points="563.17 174.85 564.71 188.48 568.92 187.17" fill="none" stroke="#002346" stroke-linecap="round" stroke-linejoin="round"></polyline>
  <path d="m565.87,161.97h0c-.01,1.48,1.25,2.65,2.73,2.52,2.23-.2,5.5-.28,8.61.42,1.15.26,2.31-.4,2.62-1.54h0c.29-1.1-.35-2.11-1.37-2.61-2.09-1.02-5.37-2.49-10.55-1.23-1.16.28-2.03,1.25-2.04,2.44Z" fill="#002346" stroke="#002346" stroke-miterlimit="10"></path>
  <path d="m555.58,164.42h0c.45,1.38.03,2.88-.89,3.23-1.4.54-3.39,1.52-5.05,3.19-.62.62-1.51.38-2.03-.58h0c-.5-.92-.41-2.08.05-2.88.95-1.63,2.49-4.06,5.97-4.58.78-.12,1.59.51,1.95,1.61Z" fill="#002346" stroke="#002346" stroke-miterlimit="10"></path>
  <path d="m568.1,197.15s5.75,3.29,8.92-2.58" fill="none" stroke="#002346" stroke-linecap="round" stroke-linejoin="round"></path>
  <rect x="196.84" y="44.7" width="203.2" height="137.92" rx="3.33" ry="3.33" fill="#fff" stroke="#002346" stroke-miterlimit="10"></rect>
  <path d="m400.04,48.04v13.13h-203.2v-13.13c0-1.84,1.49-3.33,3.33-3.33h196.53c1.84,0,3.33,1.49,3.33,3.33Z" fill="#e3e4e5" stroke="#002346" stroke-miterlimit="10"></path>
  <circle cx="205.36" cy="53.22" r="3.41" fill="#438dca" stroke="#002346" stroke-miterlimit="10"></circle>
  <circle cx="220.11" cy="53.22" r="3.41" fill="#f58f74" stroke="#002346" stroke-linecap="round" stroke-linejoin="round"></circle>
  <circle cx="234.87" cy="53.22" r="3.41" fill="#fbe493" stroke="#002346" stroke-miterlimit="10"></circle>
  <path d="m442.07,74.79h-98.82c-4.06,0-7.35,3.29-7.35,7.35v12.65l-11.35,6.11,11.35,6.99v15.18c0,4.06,3.29,7.35,7.35,7.35h98.82c4.06,0,7.35-3.29,7.35-7.35v-40.93c0-4.06-3.29-7.35-7.35-7.35Z" fill="#fff" stroke="#002346" stroke-miterlimit="10"></path>
  <rect x="348.39" y="83.87" width="31.78" height="4.54" fill="#e3e4e5" stroke="#002346" stroke-miterlimit="10"></rect>
  <rect x="348.39" y="96.35" width="91.95" height="3.41" fill="#e3e4e5" stroke="#002346" stroke-miterlimit="10"></rect>
  <rect x="348.39" y="105.44" width="39.73" height="3.41" fill="#e3e4e5" stroke="#002346" stroke-miterlimit="10"></rect>
  <rect x="394.93" y="104.3" width="39.73" height="3.41" fill="#e3e4e5" stroke="#002346" stroke-miterlimit="10"></rect>
  <rect x="348.39" y="114.52" width="39.73" height="3.41" fill="#e3e4e5" stroke="#002346" stroke-miterlimit="10"></rect>
  <path d="m315.26,182.63h31.44c-9.75-41.08-29.46-42.04-29.46-42.04l-1.99,42.04Z" fill="#fbe493" stroke="#002346" stroke-miterlimit="10"></path>
  <path d="m216.16,182.63h38.38l6.29-43.26s-18.68,1.22-27.46,11.68c-4.94,5.88-13.64,21.98-17.21,31.58Z" fill="#fbe493" stroke="#002346" stroke-miterlimit="10"></path>
  <path d="m238.75,169.62c-.08,4.55.33,8.91,1.05,13.01h87.49c.3-17.8-10.04-42.04-10.04-42.04l-3.83-.61-52.58-.6s-21.63,2.88-22.08,30.25Z" fill="#fbe493" stroke="#002346" stroke-miterlimit="10"></path>
  <path d="m313.42,139.97s-17.47-4.12-21.5-4.12c0,0-11.19-.86-31.09,3.52,0,0,15.18,12.11,30.68,28.2,3.14,3.26,8.57,2.33,10.41-1.8l11.5-25.8Z" fill="#fff" stroke="#002346" stroke-miterlimit="10"></path>
  <path d="m235.39,77.19c.93,12.8,12.05,22.42,24.85,21.5,12.8-.93,22.42-12.05,21.5-24.85-.93-12.8-12.05-22.42-24.85-21.5-12.8.93-22.42,12.05-21.5,24.85Z" fill="#002346" stroke="#002346" stroke-miterlimit="10"></path>
  <circle cx="276.93" cy="87.31" r="16.09" transform="translate(-7 26.52) rotate(-5.41)" fill="#fbe493" stroke="#002346" stroke-miterlimit="10"></circle>
  <path d="m310.74,113.06c1.28,4.24,5.76,6.64,10,5.35,4.24-1.28,6.64-5.76,5.35-10-1.28-4.24-5.76-6.64-10-5.35-4.24,1.28-6.64,5.76-5.35,10Z" fill="#f0b1bf" stroke="#002346" stroke-miterlimit="10"></path>
  <path d="m301.38,109.07l2.05,36.74c-.15,7.23-6.5,12.76-13.69,11.92h0c-6.62-.77-11.41-6.69-10.79-13.32l1.15-53.56,21.28,18.22Z" fill="#f0b1bf" stroke="#002346" stroke-miterlimit="10"></path>
  <path d="m316.41,82.11c2.02,1.71,3.31,4.11,3.83,6.7,1.53,7.67,4.55,23.64,1.83,31.78-3.53,10.59-12.14,17.29-26.04,14.65,0,0-17.16-1.32-20.09-24.41-4.28-33.79,23.13-43.37,40.46-28.72Z" fill="#f0b1bf" stroke="#002346" stroke-miterlimit="10"></path>
  <path d="m314.8,106.13c.26.98,1.26,1.57,2.24,1.31.98-.26,1.57-1.26,1.31-2.24-.26-.98-1.26-1.57-2.24-1.31-.98.26-1.57,1.26-1.31,2.24Z" fill="#002346" stroke="#002346" stroke-miterlimit="10"></path>
  <path d="m298.13,106.13c.26.98,1.26,1.57,2.24,1.31s1.57-1.26,1.31-2.24c-.26-.98-1.26-1.57-2.24-1.31-.98.26-1.57,1.26-1.31,2.24Z" fill="#002346" stroke="#002346" stroke-miterlimit="10"></path>
  <polyline points="311.26 109.21 313.08 113.58 310.13 114.37" fill="none" stroke="#002346" stroke-linecap="round" stroke-linejoin="round"></polyline>
  <path d="m306.59,91.97h0c.32,1.22-.48,2.45-1.72,2.65-1.88.3-4.6.92-7.01,2.14-.9.46-1.99.16-2.48-.72h0c-.47-.84-.15-1.81.59-2.44,1.51-1.28,3.91-3.17,8.44-3.22,1.02-.01,1.93.61,2.19,1.59Z" fill="#002346" stroke="#002346" stroke-miterlimit="10"></path>
  <path d="m315.59,91.84h0c-.08,1.23.57,2.38,1.41,2.48,1.27.15,3.11.55,4.83,1.57.64.38,1.32,0,1.55-.9h0c.22-.87-.09-1.8-.64-2.36-1.13-1.14-2.9-2.83-5.88-2.53-.67.07-1.2.75-1.27,1.74Z" fill="#002346" stroke="#002346" stroke-miterlimit="10"></path>
  <path d="m311.54,120.04l-11.58-3.11s-1.43,4.45,4.46,6.07c5.89,1.62,7.12-2.96,7.12-2.96Z" fill="#fff" stroke="#002346" stroke-miterlimit="10"></path>
  <path d="m282.05,108.33s8.41-7.44,6.74-21.93c0,0,14.29,2.54,31.25,1.28,0,0-3.78-20.02-36.04-14.65-33.51,5.58-17.94,42.54-5.49,53.89l3.54-18.59Z" fill="#002346" stroke="#002346" stroke-miterlimit="10"></path>
  <path d="m265.84,114.85c1.56,5.15,6.99,8.05,12.14,6.49,5.14-1.56,8.05-6.99,6.49-12.14-1.56-5.14-6.99-8.05-12.14-6.49-5.14,1.56-8.05,6.99-6.49,12.14Z" fill="#f0b1bf" stroke="#002346" stroke-miterlimit="10"></path>
  <path d="m270.76,109.18s7.14-2.05,9.03,5.8" fill="none" stroke="#002346" stroke-linecap="round" stroke-linejoin="round"></path>
  <path d="m303.15,216.87v13.13H99.95v-13.13c0-1.84,1.49-3.33,3.33-3.33h196.53c1.84,0,3.33,1.49,3.33,3.33Z" fill="#e3e4e5" stroke="#002346" stroke-miterlimit="10"></path>
  <circle cx="123.22" cy="222.05" r="3.41" fill="#f58f74" stroke="#002346" stroke-linecap="round" stroke-linejoin="round"></circle>
  <circle cx="137.98" cy="222.05" r="3.41" fill="#fbe493" stroke="#002346" stroke-miterlimit="10"></circle>
  <path d="m51.67,260.3h87.24c3.58,0,6.49,2.9,6.49,6.49v11.17s10.02,5.4,10.02,5.4l-10.02,6.17v13.4c0,3.58-2.9,6.49-6.49,6.49H51.67c-3.58,0-6.49-2.9-6.49-6.49v-36.13c0-3.58,2.9-6.49,6.49-6.49Z" fill="#fff" stroke="#002346" stroke-miterlimit="10"></path>
  <rect x="106.32" y="268.31" width="28.06" height="4.01" transform="translate(240.69 540.64) rotate(-180)" fill="#e3e4e5" stroke="#002346" stroke-miterlimit="10"></rect>
  <rect x="53.2" y="279.34" width="81.17" height="3.01" transform="translate(187.58 561.68) rotate(-180)" fill="#e3e4e5" stroke="#002346" stroke-miterlimit="10"></rect>
  <rect x="99.3" y="287.35" width="35.07" height="3.01" transform="translate(233.67 577.72) rotate(-180)" fill="#e3e4e5" stroke="#002346" stroke-miterlimit="10"></rect>
  <rect x="58.21" y="286.35" width="35.07" height="3.01" transform="translate(151.5 575.71) rotate(-180)" fill="#e3e4e5" stroke="#002346" stroke-miterlimit="10"></rect>
  <rect x="99.3" y="295.37" width="35.07" height="3.01" transform="translate(233.67 593.75) rotate(-180)" fill="#e3e4e5" stroke="#002346" stroke-miterlimit="10"></rect>
  <path d="m253.99,351.46h22.69c-.48-12.63-4.54-21.05-7.73-25.22-1.67-2.19-7.9-6.27-8.62-6.88-.02-.03-.06-.05-.09-.07-.04-.03-.08-.06-.13-.09-.05-.04-.08-.06-.09-.07h0l-6.03,32.34Z" fill="#438dca" stroke="#002346" stroke-miterlimit="10"></path>
  <polygon points="201.04 321.07 202.67 351.46 251.31 351.46 250.65 328.2 247.6 324.31 242.93 318.36 242.93 318.36 242.92 318.36 240.45 318.05 223.38 315.92 216.76 317.45 212.32 318.47 207.81 319.51 204 320.39 201.04 321.07" fill="#fff" stroke="#002346" stroke-miterlimit="10"></polygon>
  <path d="m241.95,310.64l.98,7.71h0s0,.02,0,.02l.82,6.45.55,4.35s.09,1.94.28,5.39c.21,3.9.55,9.74,1.02,16.89h15.96l3.29-21.02c.23-1.47.17-2.94-.14-4.33h0c-.6-2.67-2.13-5.08-4.39-6.76-.02-.03-.06-.05-.09-.07-.04-.03-.08-.06-.13-.09-.02-.02-.04-.02-.06-.04-.02,0-.02-.02-.04-.03h0c-3.2-2.26-7.82-4.9-14.08-7.17-1.27-.45-2.59-.89-3.99-1.31Z" fill="#f58f74" stroke="#002346" stroke-linecap="round" stroke-linejoin="round"></path>
  <path d="m248.86,237.93s1.72,4.24-1.16,10.88l-4.75-11.13,5.9.25Z" fill="#002346" stroke="#002346" stroke-miterlimit="10"></path>
  <path d="m240.46,264.83c1.39,3.8,5.59,5.76,9.39,4.37,3.8-1.39,5.76-5.59,4.37-9.39-1.39-3.8-5.59-5.76-9.39-4.37-3.8,1.39-5.76,5.59-4.37,9.39Z" fill="#f0b1bf" stroke="#002346" stroke-miterlimit="10"></path>
  <path d="m237.15,307.04l-.81-25.44-23.91-16.97-1.83,40.86-1.1.1,3.96,18.15s18.41,15.89,31.86-.68l-8.18-16.03Z" fill="#f0b1bf" stroke="#002346" stroke-miterlimit="10"></path>
  <path d="m247.05,239.06s7.04,24.11,4.39,34.03c-2.65,9.92-10.14,16.5-22.96,14.73,0,0-14.74.09-19.64-21.52-7.39-32.54,21.94-43.88,38.22-27.24Z" fill="#f0b1bf" stroke="#002346" stroke-miterlimit="10"></path>
  <path d="m244.07,257.99c.28.88,1.23,1.36,2.11,1.08.88-.28,1.36-1.23,1.08-2.11s-1.23-1.36-2.11-1.08c-.88.28-1.36,1.23-1.08,2.11Z" fill="#002346" stroke="#002346" stroke-miterlimit="10"></path>
  <path d="m229.84,259.66c.28.88,1.23,1.36,2.11,1.08.88-.28,1.36-1.23,1.08-2.11-.28-.88-1.23-1.36-2.11-1.08-.88.28-1.36,1.23-1.08,2.11Z" fill="#002346" stroke="#002346" stroke-miterlimit="10"></path>
  <polyline points="242.13 259.5 244.28 265.04 241.64 265.91" fill="none" stroke="#002346" stroke-linecap="round" stroke-linejoin="round"></polyline>
  <path d="m235.71,248.09h0c.42,1.3-.37,2.68-1.71,2.97-2.02.44-4.92,1.27-7.45,2.74-.94.55-2.14.29-2.73-.63h0c-.56-.88-.27-1.95.49-2.67,1.55-1.47,4.04-3.67,8.94-3.99,1.1-.07,2.13.54,2.46,1.59Z" fill="#002346" stroke="#002346" stroke-miterlimit="10"></path>
  <path d="m242.43,247.8h0c-.01,1.33.76,2.54,1.68,2.6,1.38.09,3.4.41,5.32,1.41.71.37,1.43-.08,1.63-1.07h0c.19-.95-.21-1.94-.84-2.51-1.29-1.17-3.31-2.89-6.51-2.38-.72.11-1.26.88-1.27,1.96Z" fill="#002346" stroke="#002346" stroke-miterlimit="10"></path>
  <path d="m243.57,272.07l-12.56-1s1.15,6.26,6.09,6.26c4.54,0,6.47-5.26,6.47-5.26Z" fill="#fff"></path>
  <path d="m243.57,272.07l-12.56-1s1.15,6.26,6.09,6.26c4.54,0,6.47-5.26,6.47-5.26Z" fill="none" stroke="#002346" stroke-miterlimit="10"></path>
  <path d="m213.95,265.89s7.07-1.36,2.88-19.34c0,0,6.86-5.88,16.97-4.85,10.11,1.03,23.36-1.94,22.35-12.58-1.32-13.82-23.93-15.22-38.23-3.79-12.96,10.37-30.89,16.93-13.17,41.99l9.2-1.43Z" fill="#002346" stroke="#002346" stroke-miterlimit="10"></path>
  <polygon points="206.45 269.01 211.21 281.88 213.97 270.71 206.45 269.01" fill="#002346" stroke="#002346" stroke-miterlimit="10"></polygon>
  <path d="m199.63,268.73c1.68,4.61,6.78,6.98,11.39,5.3,4.61-1.68,6.98-6.78,5.3-11.39-1.68-4.61-6.78-6.98-11.39-5.3-4.61,1.68-6.98,6.78-5.3,11.39Z" fill="#f0b1bf" stroke="#002346" stroke-miterlimit="10"></path>
  <path d="m203.84,263.32s6.4-2.23,8.53,4.83" fill="none" stroke="#002346" stroke-linecap="round" stroke-linejoin="round"></path>
  <path d="m210.68,305.47c.24,1.1.29,2.43.91,3.53h0c.35.62.77,1.23,1.27,1.82,3.97,4.66,6.33,9.35,7.74,16.25.75,3.69-.36,12.92-.36,12.92l-23.42-28.26s6.15-12.94,14.09-13.53l-.23,7.27Z" fill="#fff" stroke="#002346" stroke-miterlimit="10"></path>
  <path d="m165.31,338.44l.89,13.02h55.91c-.99-7.26-1.88-11.47-1.88-11.47-2.92-9.41-7.85-16.02-12.43-20.48-5.77-5.61-10.99-7.78-10.99-7.78-12.01,5.06-21.49,11.83-26.9,16.2-.02.02-.03.02-.05.04-3.13,2.54-4.82,6.45-4.55,10.48Z" fill="#f58f74" stroke="#002346" stroke-linecap="round" stroke-linejoin="round"></path>
  <path d="m155.91,351.46h29.9c-5.92-16.05-15.6-23.24-15.94-23.5h0c-6.17,3.48-10.67,12.28-13.95,23.5Z" fill="#438dca" stroke="#002346" stroke-miterlimit="10"></path>
  <path d="m237.28,311.24s5.94,10.02,7.19,23.51c0,0,10.98-17.52-7.51-36.52l.32,13.01Z" fill="#fff" stroke="#002346" stroke-miterlimit="10"></path>
  <circle cx="454.32" cy="183.97" r="22.05" fill="#fbe493" stroke="#002346" stroke-miterlimit="10"></circle>
  <rect x="441.85" y="176.3" width="18.21" height="14.38" fill="#fff" stroke="#002346" stroke-miterlimit="10"></rect>
  <path d="m465.82,177.1v12.73c0,.28-.35.4-.52.18l-5.01-6.5c-.16-.21-.15-.49.02-.69l5-5.9c.18-.21.51-.08.51.19Z" fill="#fff" stroke="#002346" stroke-miterlimit="10"></path>
  <circle cx="305.24" cy="264.29" r="20.1" fill="#f58f74" stroke="#002346" stroke-linecap="round" stroke-linejoin="round"></circle>
  <path d="m309.42,260s-1.45,5.81-6.16,10.38c0,0-2.63-2.7-4.77-.55l-2.63,3.18s-1.45,1.94,0,3.67l2.84,1.8s2.21,1.11,4.84-1.59c0,0,8.72-8.16,10.66-17.57,0,0,1.25-5.19-.55-7.27l-2.28-1.94s-2.14-1.18-3.87,1.52l-1.52,2.91s-1.25,2.35.83,3.74l2.63,1.73Z" fill="#fff" stroke="#002346" stroke-miterlimit="10"></path>
  <path d="m597.9,543.71c.21,2.46.53,5.23,1,8.05,0,0,9.95-32.56,42.65-28.35l-6.42-14.15-5.31-5.31c-10.66,5.54-20.99,3.87-28.04,18.17-3.29,6.68-4.52,14.18-3.88,21.6Z" fill="#7cd093" stroke="#002346" stroke-miterlimit="10"></path>
  <path d="m690.1,512.54c-29.51.03-33.93-43.46-4.11-79.66.1-.12.29-.04.27.12-1.18,12.34,35.06,56.57,11.31,76.82-2.09,1.78-4.73,2.73-7.47,2.73Z" fill="#7cd093" stroke="#002346" stroke-miterlimit="10"></path>
  <path d="m688.32,496.29c-18.62-11.05-14.42-44.18,40.75-63.73.1-.04.21.06.17.16-.63,1.8-4.28,13.52-6.2,46.6-.51,8.82-13.11,29.81-34.72,16.98Z" fill="#7cd093" stroke="#002346" stroke-miterlimit="10"></path>
  <path d="m707.59,568.91c.84,6.52-43.34,6.52-42.51,0-.84-6.52,43.34-6.52,42.51,0Z" fill="#002346" stroke="#002346" stroke-miterlimit="10"></path>
  <path d="m709.33,626.63c-1.91-.29-50.56.83-50.68-.9-9.58-4.55-9.99-19.39-9.99-19.39-1.45-19.8,16.42-30.43,16.42-30.43v-7c-.84,6.52,43.34,6.52,42.51,0v7.49c23.39,15.35,18.65,48.68,1.75,50.23Z" fill="#f58f74" stroke="#002346" stroke-linecap="round" stroke-linejoin="round"></path>
  <path d="m709.04,585.09c.05,3.76-5.85,3.76-5.8,0-.05-3.76,5.85-3.76,5.8,0Z" fill="#fff"></path>
  <path d="m717.73,593.79c.05,3.76-5.85,3.76-5.8,0-.05-3.76,5.85-3.76,5.8,0Z" fill="#fff"></path>
  <path d="m719.18,607.79c.05,3.76-5.85,3.76-5.8,0-.05-3.76,5.85-3.76,5.8,0Z" fill="#fff"></path>
  <path d="m711.45,618.42c.05,3.76-5.85,3.76-5.8,0-.05-3.76,5.85-3.76,5.8,0Z" fill="#fff"></path>
  <path d="m687.78,621.32c.05,3.76-5.85,3.76-5.8,0-.05-3.76,5.85-3.76,5.8,0Z" fill="#fff"></path>
  <path d="m669.43,618.42c.05,3.76-5.85,3.76-5.8,0-.05-3.76,5.85-3.76,5.8,0Z" fill="#fff"></path>
  <path d="m659.28,610.21c.05,3.76-5.85,3.76-5.8,0-.05-3.76,5.85-3.76,5.8,0Z" fill="#fff"></path>
  <path d="m660.73,593.79c.05,3.76-5.85,3.76-5.8,0-.05-3.76,5.85-3.76,5.8,0Z" fill="#fff"></path>
  <path d="m671.36,584.13c.05,3.76-5.85,3.76-5.8,0-.05-3.76,5.85-3.76,5.8,0Z" fill="#fff"></path>
  <path d="m681.02,592.82c.05,3.76-5.85,3.76-5.8,0-.05-3.76,5.85-3.76,5.8,0Z" fill="#fff"></path>
  <path d="m669.91,600.55c.05,3.76-5.85,3.76-5.8,0-.05-3.76,5.85-3.76,5.8,0Z" fill="#fff"></path>
  <path d="m679.57,610.21c.05,3.76-5.85,3.76-5.8,0-.05-3.76,5.85-3.76,5.8,0Z" fill="#fff"></path>
  <path d="m690.2,602c.05,3.76-5.85,3.76-5.8,0-.05-3.76,5.85-3.76,5.8,0Z" fill="#fff"></path>
  <path d="m692.13,585.57c.05,3.76-5.85,3.76-5.8,0-.05-3.76,5.85-3.76,5.8,0Z" fill="#fff"></path>
  <path d="m700.82,595.72c.05,3.76-5.85,3.76-5.8,0-.05-3.76,5.85-3.76,5.8,0Z" fill="#fff"></path>
  <path d="m707.59,602.48c.05,3.76-5.85,3.76-5.8,0-.05-3.76,5.85-3.76,5.8,0Z" fill="#fff"></path>
  <path d="m697.93,612.14c.05,3.76-5.85,3.76-5.8,0-.05-3.76,5.85-3.76,5.8,0Z" fill="#fff"></path>
  <path d="m733.67,536.31c-15.93-12.98-38.58,4.83-15.94,27.05,0,0,11.59,10.63,16.42,21.74,0,0,22.22-15.94,22.7-37.68,0,0,0-22.22-23.19-11.11Z" fill="#7cd093" stroke="#002346" stroke-miterlimit="10"></path>
  <path d="m598.45,533.62c25.03-44.12,35.72,1.25,73.4-5.04.57-50.73-72.84-48.59-73.4,5.04Z" fill="#7cd093" stroke="#002346" stroke-miterlimit="10"></path>
  <path d="m665.08,575.91s17.83,9.16,42.51.48" fill="none" stroke="#002346" stroke-linecap="round" stroke-linejoin="round"></path>
  <path d="m690.8,552.51s10.5-44.08,37.21-22.7c3.76,3.01,6.11,7.43,7.25,12.1,1.77,7.24,4.02,20.42,1.19,33.16" fill="none" stroke="#002346" stroke-linecap="round" stroke-linejoin="round"></path>
  <path d="m724.91,436.54s-49.33,35.68-32.53,132.24" fill="none" stroke="#002346" stroke-linecap="round" stroke-linejoin="round"></path>
  <path d="m617.86,504.75s65.07-1.05,67.17,62.97" fill="none" stroke="#002346" stroke-linecap="round" stroke-linejoin="round"></path>
  <rect x="150.65" y="620.31" width="20.53" height="37.03" fill="#e3e4e5" stroke="#002346" stroke-miterlimit="10"></rect>
  <rect x="59.9" y="620.31" width="20.53" height="37.03" fill="#e3e4e5" stroke="#002346" stroke-miterlimit="10"></rect>
  <path d="m216.32,398.34H52.41c-3.42,0-6.19,2.77-6.19,6.19v209.59c0,3.42,2.77,6.19,6.19,6.19h163.9s0-221.97,0-221.97Z" fill="#e3e4e5" stroke="#002346" stroke-miterlimit="10"></path>
  <rect x="81.79" y="398.34" width="165.69" height="221.97" rx="6.19" ry="6.19" fill="#fff" stroke="#002346" stroke-miterlimit="10"></rect>
  <rect x="212.3" y="620.31" width="20.53" height="37.03" fill="#fff" stroke="#002346" stroke-miterlimit="10"></rect>
  <rect x="94.21" y="620.31" width="20.53" height="37.03" fill="#fff" stroke="#002346" stroke-miterlimit="10"></rect>
  <path d="m229.69,465.06H99.58c-3.67,0-6.65-2.99-6.65-6.65v-42.8c0-3.67,2.99-6.65,6.65-6.65h130.11c3.67,0,6.65,2.99,6.65,6.65v42.8c0,3.67-2.99,6.65-6.65,6.65Z" fill="#e3e4e5" stroke="#002346" stroke-miterlimit="10"></path>
  <path d="m171.28,437c0,3.67-2.98,6.65-6.65,6.65-3.67,0-6.65-2.98-6.65-6.65,0-3.67,2.98-6.65,6.65-6.65,3.67,0,6.65,2.98,6.65,6.65Z" fill="#fff" stroke="#002346" stroke-miterlimit="10"></path>
  <path d="m229.69,536.23H99.58c-3.67,0-6.65-2.99-6.65-6.65v-42.8c0-3.67,2.99-6.65,6.65-6.65h130.11c3.67,0,6.65,2.99,6.65,6.65v42.8c0,3.67-2.99,6.65-6.65,6.65Z" fill="#e3e4e5" stroke="#002346" stroke-miterlimit="10"></path>
  <path d="m171.28,508.18c0,3.67-2.98,6.65-6.65,6.65-3.67,0-6.65-2.98-6.65-6.65s2.98-6.65,6.65-6.65c3.67,0,6.65,2.98,6.65,6.65Z" fill="#fff" stroke="#002346" stroke-miterlimit="10"></path>
  <path d="m229.69,607.4H99.58c-3.67,0-6.65-2.99-6.65-6.65v-42.8c0-3.67,2.99-6.65,6.65-6.65h130.11c3.67,0,6.65,2.99,6.65,6.65v42.8c0,3.67-2.99,6.65-6.65,6.65Z" fill="#e3e4e5" stroke="#002346" stroke-miterlimit="10"></path>
  <path d="m171.28,579.35c0,3.67-2.98,6.65-6.65,6.65-3.67,0-6.65-2.98-6.65-6.65,0-3.67,2.98-6.65,6.65-6.65,3.67,0,6.65,2.98,6.65,6.65Z" fill="#fff" stroke="#002346" stroke-miterlimit="10"></path>
  <circle cx="91.13" cy="92.2" r="57" fill="#e3e4e5" stroke="#002346" stroke-miterlimit="10"></circle>
  <circle cx="91.13" cy="92.2" r="49" fill="#fff" stroke="#002346" stroke-miterlimit="10"></circle>
  <polyline points="87.13 68.2 87.13 100.2 111.13 100.2" fill="none" stroke="#002346" stroke-linecap="round" stroke-linejoin="round"></polyline>
</svg>
