<svg xmlns="http://www.w3.org/2000/svg" viewBox="0 0 512.002 512" id="education"><defs><linearGradient id="a" x1=".5" x2=".5" y2="1" gradientUnits="objectBoundingBox"><stop offset="0" stop-color="#07bdfe" class="stopColorfeae07 svgShape"></stop><stop offset="1" stop-color="#29c6fd" class="stopColorfd2959 svgShape"></stop></linearGradient></defs><g transform="translate(15468.002 21737)" fill="#000000" class="color000000 svgShape"><rect width="512" height="512" fill="url(#a)" data-name="RECTANGLE ALBUM COVER" rx="100" transform="translate(-15468 -21737)"></rect><g fill="#1cafe3" class="colorffffff svgShape"><path d="m-15209.573-21445.816-105.308-32.412v54.133c0 25.026 47.163 45.316 105.339 45.316s105.344-20.29 105.344-45.316c0-.2-.065-.4-.069-.587v-53.546Z" data-name="Path 14617" fill="#000000" class="color000000 svgShape"></path><path d="m-15386.08-21515.492 37.621 13.458 3.206-6.866 13.821-1.175 1.971 2.05-11.86 2.813-1.729 5.116s-26.789 56-22.855 83.393c0 0 16.72 9.973 33.432 0l4.441-74.9v-6.235l24.878-5.612-1.757 4.33-18.548 6.032 8.579 3.065 105.307 32.403 105.306-32.412 71.2-25.464-176.506-67.902Z" data-name="Path 14618" fill="#000000" class="color000000 svgShape"></path></g></g></svg>