<?xml version="1.0" encoding="utf-8"?>
<!-- Generator: Adobe Illustrator 27.5.0, SVG Export Plug-In . SVG Version: 6.00 Build 0)  -->
<svg version="1.1" xmlns="http://www.w3.org/2000/svg" xmlns:xlink="http://www.w3.org/1999/xlink" x="0px" y="0px"
	 viewBox="0 0 500 500" style="enable-background:new 0 0 500 500;" xml:space="preserve">
<g id="BACKGROUND">
	<g>
		<path style="fill:#EEEEFF;" d="M80.913,373.197c-53.204-62.649-34.561-155.509-2.895-183.646
			c31.666-28.137,81.918-43.595,108.843-76.474c26.925-32.879,57.929-56.419,114.611-39.454
			c56.681,16.965,55.834,61.034,72.839,88.299c17.005,27.266,92.812,42.495,88.495,112.468
			c-4.318,69.973-52.433,69.854-74.378,87.093c-21.945,17.239-56.555,98.649-125.825,99.497
			C177.713,462.02,125.94,426.216,80.913,373.197z"/>
		<g>
			<g transform="translate(0,-952.3622)" style="opacity:0.3;">
				<path style="fill:none;stroke:#7371FC;stroke-miterlimit:10;" d="M272.629,988.303l-2.996,10.428
					c-2.746,0.747-5.361,1.81-7.784,3.171l-9.606-5.275l-8.587,8.477l5.344,9.483c-1.378,2.392-2.456,4.973-3.212,7.684
					l-10.564,2.958v12.014l10.564,2.958c0.757,2.711,1.834,5.292,3.212,7.684l-5.344,9.483l8.587,8.477l9.606-5.275
					c2.423,1.361,5.038,2.424,7.784,3.171l2.996,10.428h12.17l2.996-10.428c2.746-0.747,5.361-1.81,7.784-3.171l9.606,5.275
					l8.587-8.477l-5.344-9.483c1.379-2.392,2.456-4.973,3.212-7.684l10.564-2.958v-12.014l-10.564-2.958
					c-0.757-2.711-1.834-5.292-3.212-7.684l5.344-9.483l-8.587-8.477l-9.606,5.275c-2.423-1.361-5.038-2.424-7.784-3.171
					l-2.996-10.428H272.629z M278.714,1008.8c12.515,0,22.727,10.081,22.727,22.436c0,12.354-10.212,22.436-22.727,22.436
					s-22.727-10.081-22.727-22.436C255.987,1018.881,266.199,1008.8,278.714,1008.8z"/>
			</g>
			<g transform="translate(0,-952.3622)" style="opacity:0.3;">
				<path style="fill:none;stroke:#7371FC;stroke-miterlimit:10;" d="M450.244,1185.942l-1.994,6.939
					c-1.828,0.497-3.567,1.205-5.18,2.11l-6.392-3.51l-5.714,5.641l3.556,6.31c-0.917,1.592-1.634,3.309-2.138,5.113l-7.029,1.968
					v7.994l7.029,1.968c0.504,1.804,1.22,3.522,2.138,5.113l-3.556,6.31l5.714,5.641l6.392-3.51c1.612,0.906,3.352,1.613,5.18,2.11
					l1.994,6.939h8.098l1.994-6.939c1.827-0.497,3.567-1.205,5.179-2.11l6.392,3.51l5.714-5.641l-3.556-6.31
					c0.917-1.592,1.634-3.309,2.138-5.113l7.029-1.968v-7.994l-7.029-1.968c-0.503-1.804-1.22-3.522-2.138-5.113l3.556-6.31
					l-5.714-5.641l-6.392,3.51c-1.612-0.906-3.352-1.613-5.179-2.11l-1.994-6.939H450.244z M454.293,1199.582
					c8.328,0,15.123,6.708,15.123,14.929c0,8.221-6.795,14.929-15.123,14.929c-8.328,0-15.123-6.708-15.123-14.929
					C439.171,1206.29,445.966,1199.582,454.293,1199.582z"/>
			</g>
			<g transform="translate(0,-952.3622)" style="opacity:0.3;">
				<path style="fill:none;stroke:#7371FC;stroke-miterlimit:10;" d="M87.204,1204.216l-4.332,15.078
					c-3.971,1.08-7.751,2.618-11.255,4.585l-13.89-7.627l-12.416,12.257l7.726,13.712c-1.993,3.458-3.551,7.19-4.645,11.11
					l-15.274,4.277v17.371l15.274,4.277c1.094,3.92,2.652,7.652,4.645,11.11l-7.726,13.712l12.416,12.257l13.89-7.627
					c3.503,1.968,7.284,3.505,11.255,4.585l4.332,15.078h17.597l4.332-15.078c3.971-1.08,7.751-2.618,11.255-4.585l13.89,7.627
					l12.416-12.257l-7.727-13.712c1.993-3.458,3.551-7.191,4.645-11.11l15.274-4.276v-17.371l-15.274-4.277
					c-1.094-3.92-2.651-7.652-4.645-11.11l7.727-13.712l-12.416-12.257l-13.89,7.627c-3.503-1.968-7.284-3.505-11.255-4.585
					l-4.332-15.078H87.204z M96.002,1233.853c18.096,0,32.861,14.576,32.861,32.44s-14.766,32.44-32.861,32.44
					c-18.096,0-32.861-14.576-32.861-32.44S77.907,1233.853,96.002,1233.853z"/>
			</g>
		</g>
		<g>
			<g>
				<path style="fill:#32338C;" d="M243.708,445.428L243.708,445.428c2.256-5.201,6.51-9.352,11.866-11.577l0.166-0.069
					l-0.721-0.322c-5.02-2.241-9.012-6.192-11.212-11.101l-0.1-0.223l-0.556,1.097c-2.136,4.215-5.624,7.649-9.942,9.788
					l-1.535,0.76l0.093,0.038c5.139,2.119,9.281,6.013,11.615,10.925L243.708,445.428z"/>
				<path style="fill:#7371FC;" d="M258.845,452.568L258.845,452.568c1.128-2.601,3.255-4.676,5.933-5.788l0.083-0.034l-0.36-0.161
					c-2.51-1.12-4.506-3.096-5.606-5.551l-0.05-0.112l-0.278,0.549c-1.068,2.108-2.812,3.824-4.971,4.894l-0.767,0.38l0.046,0.019
					c2.57,1.06,4.64,3.007,5.808,5.463L258.845,452.568z"/>
			</g>
			<g>
				<path style="fill:#7371FC;" d="M453.034,152.054L453.034,152.054c-1.686-3.889-4.867-6.992-8.872-8.655l-0.124-0.051
					l0.539-0.241c3.753-1.675,6.737-4.63,8.383-8.3l0.075-0.167l0.416,0.82c1.597,3.151,4.205,5.719,7.433,7.318l1.147,0.569
					l-0.069,0.028c-3.842,1.584-6.939,4.496-8.684,8.168L453.034,152.054z"/>
				<path style="fill:#32338C;" d="M441.717,157.392L441.717,157.392c-0.843-1.944-2.434-3.496-4.436-4.327l-0.062-0.026l0.27-0.12
					c1.877-0.838,3.369-2.315,4.191-4.15l0.037-0.083l0.208,0.41c0.799,1.576,2.103,2.859,3.717,3.659l0.574,0.284l-0.035,0.014
					c-1.921,0.792-3.469,2.248-4.342,4.084L441.717,157.392z"/>
			</g>
			<g>
				<path style="fill:#7371FC;" d="M53.693,239.618L53.693,239.618c-1.686-3.889-4.867-6.992-8.872-8.655l-0.125-0.052l0.539-0.24
					c3.753-1.675,6.738-4.63,8.383-8.3l0.075-0.167l0.416,0.82c1.597,3.151,4.205,5.719,7.433,7.318l1.147,0.568l-0.069,0.028
					c-3.843,1.584-6.939,4.496-8.684,8.168L53.693,239.618z"/>
				<path style="fill:#32338C;" d="M42.376,244.956L42.376,244.956c-0.843-1.944-2.433-3.496-4.436-4.327l-0.062-0.026l0.269-0.12
					c1.877-0.838,3.369-2.315,4.191-4.15l0.037-0.083l0.208,0.41c0.799,1.576,2.103,2.859,3.717,3.659l0.574,0.284l-0.035,0.014
					c-1.922,0.792-3.469,2.248-4.342,4.084L42.376,244.956z"/>
			</g>
		</g>
	</g>
</g>
<g id="OBJECTS">
	<g>
		<path style="fill:#32338C;" d="M357.795,115.693c7.365,0.939,14.439,3.349,21.03,6.768c19.158,9.937,36.389,23.571,50.464,39.93
			c5.683,6.605,11.047,14.118,11.938,22.786c1.02,9.925-3.969,19.368-8.801,28.097c-4.024,7.268-8.878,15.209-16.913,17.318
			c-6.585,1.728-13.484-1.034-19.432-4.345c-23.254-12.942-40.691-35.034-50.696-59.695c-4.86-11.979-6.665-23.357-5.838-36.187
			c0.232-3.591-9.178-3.923-6.652-6.767C336.489,119.55,347.693,114.405,357.795,115.693z"/>
		<g>
			<path style="fill:#F8AB73;" d="M416.674,137.287c-0.769,1.039-1.617,2.021-2.544,2.916c-3.174,3.065-7.101,5.26-11.189,6.921
				c-3.032,1.232-6.241,2.197-9.513,2.133c-0.364-0.007-0.729-0.034-1.094-0.07c0.16,0.63,0.393,1.234,0.777,1.755
				c1.209,1.64,3.459,2.061,5.493,2.179c5.468,0.32,11.006-0.642,16.047-2.785c0.548-0.233,1.124-0.508,1.433-1.017
				c0.316-0.52,0.287-1.17,0.254-1.777C416.146,144.05,416.338,140.652,416.674,137.287z"/>
			<path style="fill:#FE814B;" d="M402.94,147.124c4.088-1.66,8.015-3.856,11.189-6.921c0.927-0.895,1.775-1.877,2.544-2.916
				c0.554-5.549,1.504-11.007,1.795-16.648c-5.687-1.336-14.87,4.565-18.833,8.291c-5.106,4.801-8.314,11.855-7.557,18.823
				c0.052,0.481,0.135,0.964,0.254,1.434c0.365,0.036,0.73,0.062,1.094,0.07C396.699,149.321,399.908,148.356,402.94,147.124z"/>
		</g>
		<path style="fill:#FE642F;" d="M441.25,95.465c3.465-4.871,6.966-9.808,9.103-15.391c2.137-5.582,2.794-11.973,0.506-17.495
			c-2.288-5.522-7.977-9.828-13.932-9.314c1.868-3.832-0.406-8.084-3.53-10.985c-3.124-2.901-7.421-4.181-11.634-4.831
			c-11.926-1.839-24.089,0.663-36.144,0.133c-4.447-0.195-9.004-0.846-12.87-3.053c-3.866-2.207-6.932-6.244-6.93-10.695
			c-1.56,3.389-3.306,7.486-3.047,11.208c0.259,3.722,2.294,7.504,5.73,8.957c-3.463,0.978-7.079-1.159-9.326-3.97
			c-2.247-2.811-3.137-6.487-3.375-10.078c-3.806,2.401-6.443,6.38-7.861,10.65c-1.292,3.889-1.969,8.063-1.288,12.104
			c0.681,4.042,2.842,7.94,6.298,10.142c-1.648,0.279-3.426,0.454-4.966-0.196c-0.102,2.28,1.199,4.454,2.967,5.898
			c1.768,1.444,3.959,2.261,6.146,2.915c7.502,2.246,15.383,2.854,23.069,4.35c18.149,3.532,34.912,11.934,52.164,18.586
			C434.745,95.333,438.737,96.086,441.25,95.465z"/>
		<g>
			<path style="fill:#F8AB74;" d="M422.319,92.749c-2.597-9.214-1.225-19.135,1.654-28.266c-9.069,8.541-22.417,10.644-34.762,8.969
				c4.113-2,7.834-4.8,10.896-8.198c-12.27-0.798-24.927,2.187-37.168,1.046c-1.402,4.24-2.307,8.649-2.805,12.732
				c-1.073,8.796-0.382,17.729,1.076,26.47c1.591,9.536,4.244,19.226,10.28,26.777c6.037,7.551,16.133,12.504,25.501,10.116
				c3.494-0.89,6.681-2.718,9.623-4.802c10.836-7.676,18.706-18.922,23.989-31.158C426.679,102.803,423.776,97.919,422.319,92.749z"
				/>
			<path style="fill:#FE642F;" d="M400.106,65.255c-3.061,3.397-6.783,6.198-10.896,8.198c12.344,1.675,25.693-0.428,34.762-8.969
				c-2.878,9.131-4.251,19.052-1.654,28.266c1.457,5.169,4.36,10.054,8.284,13.686c0.686-1.589,1.334-3.193,1.933-4.81
				c2.58-6.959,4.447-14.268,4.512-21.69c0.065-7.422-1.769-14.992-6.053-21.053c-6.035-8.538-16.282-13.249-26.557-15.181
				c-5.019-0.944-10.214-1.311-15.225-0.321c-6.671,1.319-15.755,5.069-20.08,10.685c-2.695,3.5-4.72,7.773-6.195,12.235
				C375.18,67.441,387.836,64.456,400.106,65.255z"/>
		</g>
		<g>
			<path style="fill:#F8AB73;" d="M425.498,92.804c-1.433,3.818-1.436,8.053-0.706,12.065c0.563,3.096,1.825,6.446,4.676,7.779
				c2.106,0.985,4.669,0.596,6.69-0.555c2.021-1.15,3.575-2.972,4.895-4.886c1.992-2.889,3.573-6.148,3.979-9.634
				c0.406-3.486-0.481-7.224-2.881-9.785c-2.342-2.5-6.467-4.321-9.703-2.825C429.189,86.47,426.745,89.483,425.498,92.804z"/>
			<g>
				<path style="fill:#32338C;" d="M440.535,91.524c-1.025-1.321-2.738-1.841-4.283-1.658c-1.568,0.133-2.954,1.059-3.938,2.254
					c-1.007,1.201-1.661,2.658-2.061,4.197c-0.423,1.538-0.59,3.155-0.802,4.785l-0.976-0.413c0.984-1.173,2.436-2.148,4.14-2.039
					c0.829,0.052,1.647,0.453,2.208,1.04c0.571,0.591,0.909,1.337,1.074,2.097c0.153,0.762,0.143,1.563-0.099,2.305
					c-0.238,0.738-0.646,1.392-1.163,1.932c-1.051,1.064-2.403,1.734-3.799,2.039c1.324-0.524,2.569-1.287,3.413-2.375
					c0.41-0.542,0.751-1.141,0.902-1.78c0.162-0.63,0.122-1.307-0.046-1.929c-0.339-1.255-1.349-2.279-2.554-2.307
					c-1.202-0.04-2.417,0.712-3.219,1.712l-1.18,1.468l0.203-1.882c0.177-1.636,0.404-3.302,0.861-4.942
					c0.464-1.63,1.233-3.24,2.425-4.506c1.175-1.255,2.818-2.197,4.576-2.228C437.925,89.27,439.729,90.036,440.535,91.524z"/>
			</g>
		</g>
		<g>
			<path style="fill:#32338C;" d="M388.705,82.393c0.91,4.556,0.865,9.316,0.036,13.919c-0.829,4.605-2.451,9.082-4.834,13.094
				l-0.124-0.419c0.682,0.41,1.391,0.789,2.139,1.09c0.747,0.301,1.524,0.539,2.319,0.729c-0.817-0.043-1.632-0.184-2.429-0.401
				c-0.796-0.217-1.585-0.495-2.33-0.873l-0.261-0.132l0.137-0.287c1.974-4.153,3.429-8.516,4.316-13.003
				C388.561,91.622,388.875,87.028,388.705,82.393z"/>
		</g>
		<g>
			<path style="fill:#FE632E;" d="M385.577,123.598c1.066,0.684,2.188,1.161,3.337,1.269c3.131,0.295,6.084-2.566,8.153-5.288
				C392.909,119.294,388.653,120.785,385.577,123.598z"/>
			<path style="fill:#32338C;" d="M387.745,118.397c-3.992-0.413-9.911-3.992-9.911-3.992s3.38,6.393,7.743,9.193
				c3.075-2.812,7.332-4.303,11.49-4.019c1.796-2.364,2.927-4.623,2.927-4.623S391.737,118.81,387.745,118.397z"/>
		</g>
		<path style="fill:#32328C;" d="M377.143,91.712c0.105,2.128-0.917,3.908-2.284,3.976c-1.367,0.068-2.56-1.603-2.665-3.731
			c-0.105-2.128,0.917-3.908,2.284-3.976C375.844,87.913,377.038,89.583,377.143,91.712z"/>
		<path style="fill:#32328C;" d="M404.951,92.235c0.105,2.128-0.917,3.908-2.284,3.976c-1.367,0.068-2.56-1.603-2.665-3.731
			c-0.105-2.128,0.917-3.908,2.284-3.976C403.652,88.436,404.846,90.107,404.951,92.235z"/>
		<g>
			<path style="fill:#FE642E;" d="M366.554,83.448c0.355-1.294,0.959-2.531,1.745-3.693c0.404-0.571,0.855-1.123,1.356-1.644
				c0.514-0.503,1.076-0.974,1.684-1.4c0.613-0.423,1.238-0.873,1.924-1.247c0.687-0.366,1.46-0.549,2.243-0.514
				c1.549,0.084,3.183,0.698,4.132,2.25l-0.119,0.431c-1.51,0.874-2.471,1.348-3.449,1.754c-0.48,0.196-0.957,0.289-1.486,0.303
				c-0.53,0.007-1.089,0.042-1.609,0.202c-0.525,0.157-1.047,0.363-1.56,0.615c-0.526,0.234-1.044,0.516-1.547,0.84
				c-1.027,0.63-1.988,1.431-2.931,2.33L366.554,83.448z"/>
		</g>
		<g>
			<path style="fill:#FE642E;" d="M409.571,83.675c-0.943-0.9-1.904-1.701-2.931-2.33c-0.503-0.324-1.021-0.606-1.547-0.84
				c-0.512-0.252-1.035-0.458-1.56-0.615c-0.52-0.16-1.078-0.195-1.609-0.202c-0.53-0.014-1.006-0.107-1.487-0.303
				c-0.978-0.406-1.939-0.88-3.449-1.754l-0.119-0.431c0.949-1.552,2.583-2.166,4.132-2.25c0.784-0.035,1.557,0.148,2.243,0.514
				c0.686,0.373,1.311,0.824,1.924,1.247c0.608,0.426,1.17,0.897,1.684,1.4c0.501,0.521,0.952,1.073,1.356,1.644
				c0.786,1.162,1.39,2.399,1.745,3.693L409.571,83.675z"/>
		</g>
		<g>
			<path style="opacity:0.4;fill:#F8AB74;" d="M375.754,109.666c0,1.7-2.302,3.079-5.142,3.079c-2.84,0-5.142-1.378-5.142-3.079
				c0-1.7,2.302-3.079,5.142-3.079C373.452,106.588,375.754,107.966,375.754,109.666z"/>
			<path style="opacity:0.4;fill:#F8AB74;" d="M411.413,109.666c0,1.7-2.302,3.079-5.142,3.079c-2.84,0-5.142-1.378-5.142-3.079
				c0-1.7,2.302-3.079,5.142-3.079C409.111,106.588,411.413,107.966,411.413,109.666z"/>
		</g>
		<g>
			<g>
				<path style="fill:#F8AB74;" d="M365.984,24c-0.721,3.507-0.179,7.181,1.345,10.345c1.486,3.177,3.935,5.917,7.001,7.556
					c3.087,1.612,6.643,2.116,10.158,2.179c3.536,0.052,7.089-0.188,10.633-0.511c7.09-0.56,14.239-1.522,21.446-0.964
					c3.573,0.322,7.244,1.177,10.246,3.295c1.466,1.077,2.737,2.422,3.645,3.99c0.908,1.561,1.424,3.361,1.353,5.151
					c-0.051-1.791-0.661-3.515-1.606-4.997c-0.955-1.484-2.249-2.726-3.703-3.693c-2.939-1.94-6.499-2.676-10-2.889
					c-7.076-0.373-14.169,0.566-21.284,1.219c-3.566,0.29-7.15,0.5-10.754,0.413c-3.579-0.114-7.32-0.605-10.545-2.444
					c-3.196-1.831-5.657-4.76-7.086-8.082C365.431,31.24,365.014,27.457,365.984,24z"/>
			</g>
			<g>
				<path style="fill:#F8AB74;" d="M427.746,61.17c-0.607-4.106-3.736-7.436-7.414-8.973c-3.724-1.599-7.93-1.644-11.892-0.958
					c-3.993,0.7-7.867,2.015-11.82,3.153c-3.951,1.133-7.964,2.121-12.061,2.696c-4.093,0.562-8.279,0.676-12.398,0.108
					c-4.079-0.589-8.25-1.745-11.615-4.33c-3.332-2.552-5.765-6.231-6.74-10.285c-0.928-4.054-0.464-8.403,1.37-12.079
					c-1.6,3.773-1.915,8.048-0.839,11.944c1.049,3.898,3.485,7.381,6.722,9.73c3.257,2.341,7.246,3.488,11.238,4.012
					c4.01,0.52,8.094,0.374,12.11-0.206c4.028-0.531,8.003-1.474,11.937-2.567c3.93-1.078,7.844-2.436,11.963-3.022
					c4.079-0.6,8.43-0.459,12.248,1.306c1.891,0.888,3.574,2.203,4.861,3.829C426.706,57.147,427.579,59.119,427.746,61.17z"/>
			</g>
			<g>
				<path style="fill:#F8AB74;" d="M423.561,59.243c-1.313-2.16-3.606-3.426-5.938-3.827c-2.363-0.382-4.809,0.056-7.025,0.985
					c-2.232,0.907-4.223,2.369-6.09,3.972c-1.861,1.618-3.624,3.397-5.483,5.077c1.54-1.973,3.082-3.947,4.892-5.718
					c1.789-1.773,3.857-3.366,6.255-4.364c1.198-0.481,2.453-0.836,3.743-0.998c1.29-0.138,2.612-0.11,3.883,0.194
					c1.268,0.298,2.477,0.862,3.491,1.66C422.28,57.04,423.121,58.062,423.561,59.243z"/>
			</g>
			<g>
				<path style="fill:#F8AB74;" d="M437.598,59.031c1.419-0.499,3.036-0.37,4.472,0.167c1.445,0.553,2.698,1.568,3.66,2.779
					c1.928,2.465,2.711,5.606,2.808,8.646c0.064,3.065-0.578,6.111-1.74,8.899c-0.583,1.394-1.258,2.742-2.016,4.036
					c-0.786,1.279-1.61,2.527-2.53,3.704c0.708-1.315,1.434-2.612,2.047-3.962c0.65-1.329,1.224-2.69,1.694-4.081
					c0.94-2.775,1.512-5.672,1.428-8.568c-0.066-2.876-0.771-5.795-2.378-8.165c-0.809-1.175-1.886-2.172-3.19-2.79
					C440.572,59.035,439.072,58.781,437.598,59.031z"/>
			</g>
			<g>
				<path style="fill:#F8AB74;" d="M429.758,63.784c1.043-0.228,2.171,0.028,3.145,0.525c0.977,0.513,1.801,1.312,2.422,2.217
					c1.248,1.834,1.872,3.926,2.309,6.027c0.398,2.116,0.476,4.292,0.195,6.418c-0.134,1.063-0.353,2.113-0.663,3.133
					c-0.167,0.507-0.338,1.01-0.54,1.502c-0.097,0.239-0.181,0.51-0.36,0.732c-0.156,0.21-0.463,0.425-0.716,0.273
					c0.275,0.085,0.472-0.154,0.575-0.365c0.122-0.216,0.159-0.467,0.218-0.727c0.119-0.509,0.207-1.025,0.289-1.538
					c0.177-1.024,0.272-2.057,0.328-3.086c0.095-2.059-0.026-4.121-0.424-6.131c-0.391-2-0.956-4.025-1.943-5.766
					c-0.507-0.863-1.148-1.645-1.975-2.222C431.81,64.17,430.815,63.811,429.758,63.784z"/>
			</g>
		</g>
	</g>
	<g>
		
			<rect x="77.439" y="101.829" transform="matrix(0.9918 -0.128 0.128 0.9918 -20.6658 19.3997)" style="fill:#EEEEFF;" width="126.415" height="137.408"/>
		
			<rect x="66.731" y="72.573" transform="matrix(0.9918 -0.128 0.128 0.9918 -10.1344 17.3474)" style="fill:#7371FC;" width="126.415" height="29.944"/>
		
			<rect x="60.816" y="111.018" transform="matrix(0.9918 -0.128 0.128 0.9918 -22.4281 10.3616)" style="fill:#91C4FB;" width="17.213" height="137.408"/>
		
			<rect x="50.109" y="81.762" transform="matrix(0.9918 -0.128 0.128 0.9918 -11.8952 8.3082)" style="fill:#443DC3;" width="17.213" height="29.944"/>
		
			<rect x="80.456" y="117.643" transform="matrix(0.9918 -0.128 0.128 0.9918 -15.9914 12.6064)" style="fill:#FEFFFD;" width="19.319" height="26.231"/>
		
			<rect x="103.196" y="114.709" transform="matrix(0.9918 -0.128 0.128 0.9918 -15.4293 15.4926)" style="fill:#FEFFFD;" width="19.319" height="26.231"/>
		
			<rect x="125.937" y="111.775" transform="matrix(0.9918 -0.128 0.128 0.9918 -14.8677 18.3795)" style="fill:#FEFFFD;" width="19.319" height="26.231"/>
		
			<rect x="148.677" y="108.841" transform="matrix(0.9918 -0.128 0.128 0.9918 -14.3045 21.2643)" style="fill:#FEFFFD;" width="19.319" height="26.231"/>
		
			<rect x="171.417" y="105.907" transform="matrix(0.9918 -0.128 0.128 0.9918 -13.7413 24.1486)" style="fill:#FEFFFD;" width="19.319" height="26.231"/>
		
			<rect x="84.251" y="147.056" transform="matrix(0.9918 -0.128 0.128 0.9918 -19.7246 13.3343)" style="fill:#FEFFFD;" width="19.319" height="26.231"/>
		
			<rect x="106.991" y="144.122" transform="matrix(0.9918 -0.128 0.128 0.9918 -19.1606 16.2187)" style="fill:#FEFFFD;" width="19.319" height="26.231"/>
		
			<rect x="129.732" y="141.188" transform="matrix(0.9918 -0.128 0.128 0.9918 -18.5996 19.1059)" style="fill:#FEFFFD;" width="19.319" height="26.231"/>
		
			<rect x="152.472" y="138.254" transform="matrix(0.9918 -0.128 0.128 0.9918 -18.0365 21.9908)" style="fill:#FEFFFD;" width="19.319" height="26.231"/>
		
			<rect x="175.212" y="135.32" transform="matrix(0.9918 -0.128 0.128 0.9918 -17.4748 24.8776)" style="fill:#FEFFFD;" width="19.319" height="26.231"/>
		
			<rect x="88.046" y="176.469" transform="matrix(0.9918 -0.128 0.128 0.9918 -23.4571 14.0616)" style="fill:#FEFFFD;" width="19.319" height="26.231"/>
		
			<rect x="110.786" y="173.535" transform="matrix(0.9918 -0.128 0.128 0.9918 -22.8949 16.9477)" style="fill:#FEFFFD;" width="19.319" height="26.231"/>
		
			<rect x="133.527" y="170.601" transform="matrix(0.9918 -0.128 0.128 0.9918 -22.3305 19.8316)" style="fill:#FEFFFD;" width="19.319" height="26.231"/>
		
			<rect x="156.267" y="167.667" transform="matrix(0.9918 -0.128 0.128 0.9918 -21.7701 22.7196)" style="fill:#FEFFFD;" width="19.319" height="26.231"/>
		
			<rect x="179.007" y="164.733" transform="matrix(0.9918 -0.128 0.128 0.9918 -21.2074 25.6051)" style="fill:#FEFFFD;" width="19.319" height="26.231"/>
		
			<rect x="91.841" y="205.882" transform="matrix(0.9918 -0.128 0.128 0.9918 -27.1897 14.789)" style="fill:#FEFFFD;" width="19.319" height="26.231"/>
		
			<rect x="114.581" y="202.948" transform="matrix(0.9918 -0.128 0.128 0.9918 -26.6263 17.6742)" style="fill:#FEFFFD;" width="19.319" height="26.231"/>
		
			<rect x="137.322" y="200.014" transform="matrix(0.9918 -0.128 0.128 0.9918 -26.065 20.5609)" style="fill:#FEFFFD;" width="19.319" height="26.231"/>
		
			<rect x="160.062" y="197.08" transform="matrix(0.9918 -0.128 0.128 0.9918 -25.5006 23.4446)" style="fill:#FEFFFD;" width="19.319" height="26.231"/>
		
			<rect x="182.802" y="194.146" transform="matrix(0.9918 -0.128 0.128 0.9918 -24.9401 26.3325)" style="fill:#FEFFFD;" width="19.319" height="26.231"/>
		
			<path style="fill:none;stroke:#32338C;stroke-width:4.0278;stroke-linecap:round;stroke-linejoin:round;stroke-miterlimit:10;" d="
			M58.341,81.687l-1.089-8.437c-0.683-5.291,3.053-10.134,8.344-10.816l5.866-0.757c5.291-0.683,10.134,3.053,10.816,8.344
			l1.876,14.541c0.683,5.291-3.053,10.134-8.344,10.816l0,0"/>
		
			<path style="fill:none;stroke:#32338C;stroke-width:4.0278;stroke-linecap:round;stroke-linejoin:round;stroke-miterlimit:10;" d="
			M75.07,79.528l-1.089-8.437c-0.683-5.291,3.053-10.134,8.344-10.816l5.866-0.757c5.291-0.683,10.134,3.053,10.816,8.344
			l1.876,14.541c0.683,5.291-3.053,10.133-8.344,10.816l0,0"/>
		
			<path style="fill:none;stroke:#32338C;stroke-width:4.0278;stroke-linecap:round;stroke-linejoin:round;stroke-miterlimit:10;" d="
			M91.799,77.37l-1.089-8.437c-0.683-5.291,3.053-10.134,8.344-10.816l5.866-0.757c5.291-0.683,10.134,3.053,10.816,8.344
			l1.876,14.541c0.683,5.291-3.053,10.134-8.344,10.816l0,0"/>
		
			<path style="fill:none;stroke:#32338C;stroke-width:4.0278;stroke-linecap:round;stroke-linejoin:round;stroke-miterlimit:10;" d="
			M108.527,75.211l-1.089-8.437c-0.683-5.291,3.053-10.133,8.344-10.816l5.866-0.757c5.291-0.683,10.133,3.053,10.816,8.344
			l1.876,14.541c0.683,5.291-3.053,10.134-8.344,10.816l0,0"/>
		
			<path style="fill:none;stroke:#32338C;stroke-width:4.0278;stroke-linecap:round;stroke-linejoin:round;stroke-miterlimit:10;" d="
			M125.256,73.053l-1.089-8.437c-0.683-5.291,3.053-10.134,8.344-10.816l5.866-0.757c5.291-0.683,10.133,3.053,10.816,8.344
			l1.876,14.541c0.683,5.291-3.053,10.133-8.344,10.816l0,0"/>
		
			<path style="fill:none;stroke:#32338C;stroke-width:4.0278;stroke-linecap:round;stroke-linejoin:round;stroke-miterlimit:10;" d="
			M141.985,70.894l-1.089-8.437c-0.683-5.291,3.053-10.134,8.344-10.816l5.866-0.757c5.291-0.683,10.133,3.053,10.816,8.344
			l1.876,14.541c0.683,5.291-3.053,10.134-8.344,10.816l0,0"/>
		
			<path style="fill:none;stroke:#32338C;stroke-width:4.0278;stroke-linecap:round;stroke-linejoin:round;stroke-miterlimit:10;" d="
			M158.714,68.736l-1.089-8.437c-0.683-5.291,3.053-10.133,8.344-10.816l5.866-0.757c5.291-0.683,10.133,3.053,10.816,8.344
			l1.876,14.541c0.683,5.291-3.053,10.134-8.344,10.816l0,0"/>
	</g>
	<g>
		<circle style="fill:#32338C;" cx="248.269" cy="255.87" r="153.24"/>
		<circle style="fill:#7371FC;" cx="255.478" cy="255.87" r="153.24"/>
		<g>
			<path style="fill:#FFFFFF;" d="M279.373,331.531c27.654-11.156,52.752-29.714,69.033-54.696
				c18.91-29.015,24.619-64.202,22.962-99.203c-25.132-37.153-67.659-61.577-115.891-61.577
				c-77.217,0-139.815,62.597-139.815,139.815c0,25.595,6.883,49.58,18.891,70.215C179.428,347.302,233.213,350.153,279.373,331.531
				z"/>
			<path style="fill:#EEEEFF;" d="M371.368,177.633c1.656,35.001-4.053,70.188-22.962,99.203
				c-16.281,24.982-41.379,43.54-69.033,54.696c-46.16,18.622-99.945,15.77-144.818-5.445
				c24.219,41.619,69.301,69.599,120.923,69.599c77.218,0,139.815-62.597,139.815-139.815
				C395.293,226.885,386.471,199.96,371.368,177.633z"/>
		</g>
		<polygon style="fill:#32338C;" points="253.952,257.678 188.174,199.04 257.004,254.063 		"/>
		<polygon style="fill:#32338C;" points="258.098,254.213 288.454,365.652 252.858,257.528 		"/>
		<circle style="fill:#FE814B;" cx="255.478" cy="255.87" r="10.359"/>
		<g>
			
				<line style="fill:none;stroke:#32338C;stroke-width:3.8829;stroke-linecap:round;stroke-linejoin:round;stroke-miterlimit:10;" x1="255.478" y1="116.056" x2="255.478" y2="145.777"/>
			
				<line style="fill:none;stroke:#32338C;stroke-width:3.8829;stroke-linecap:round;stroke-linejoin:round;stroke-miterlimit:10;" x1="255.478" y1="365.964" x2="255.478" y2="395.685"/>
			
				<line style="fill:none;stroke:#32338C;stroke-width:3.8829;stroke-linecap:round;stroke-linejoin:round;stroke-miterlimit:10;" x1="395.292" y1="255.87" x2="365.571" y2="255.87"/>
			
				<line style="fill:none;stroke:#32338C;stroke-width:3.8829;stroke-linecap:round;stroke-linejoin:round;stroke-miterlimit:10;" x1="145.385" y1="255.87" x2="115.663" y2="255.87"/>
		</g>
		<g>
			
				<line style="fill:none;stroke:#32338C;stroke-width:3.8829;stroke-linecap:round;stroke-linejoin:round;stroke-miterlimit:10;" x1="137.463" y1="180.899" x2="162.551" y2="196.836"/>
			
				<line style="fill:none;stroke:#32338C;stroke-width:3.8829;stroke-linecap:round;stroke-linejoin:round;stroke-miterlimit:10;" x1="348.405" y1="314.905" x2="373.492" y2="330.842"/>
			
				<line style="fill:none;stroke:#32338C;stroke-width:3.8829;stroke-linecap:round;stroke-linejoin:round;stroke-miterlimit:10;" x1="330.449" y1="137.856" x2="314.512" y2="162.943"/>
			
				<line style="fill:none;stroke:#32338C;stroke-width:3.8829;stroke-linecap:round;stroke-linejoin:round;stroke-miterlimit:10;" x1="196.444" y1="348.798" x2="180.507" y2="373.885"/>
		</g>
		<g>
			
				<line style="fill:none;stroke:#32338C;stroke-width:3.8829;stroke-linecap:round;stroke-linejoin:round;stroke-miterlimit:10;" x1="373.492" y1="180.899" x2="348.405" y2="196.836"/>
			
				<line style="fill:none;stroke:#32338C;stroke-width:3.8829;stroke-linecap:round;stroke-linejoin:round;stroke-miterlimit:10;" x1="162.551" y1="314.905" x2="137.463" y2="330.842"/>
			
				<line style="fill:none;stroke:#32338C;stroke-width:3.8829;stroke-linecap:round;stroke-linejoin:round;stroke-miterlimit:10;" x1="180.507" y1="137.856" x2="196.444" y2="162.943"/>
			
				<line style="fill:none;stroke:#32338C;stroke-width:3.8829;stroke-linecap:round;stroke-linejoin:round;stroke-miterlimit:10;" x1="314.512" y1="348.798" x2="330.449" y2="373.885"/>
		</g>
	</g>
	<g>
		
			<rect x="52.642" y="356.007" transform="matrix(0.9351 -0.3544 0.3544 0.9351 -132.1107 69.8979)" style="fill:#F8AB74;" width="144.302" height="79.311"/>
		<polygon style="fill:#FE814B;" points="124.793,395.662 43.271,384.148 128.113,404.424 178.21,333.012 		"/>
	</g>
	<g>
		<g>
			
				<rect x="304.66" y="299.425" transform="matrix(0.9733 0.2297 -0.2297 0.9733 97.8189 -74.6006)" style="fill:#32338C;" width="129.253" height="166.727"/>
			
				<rect x="306.994" y="299.977" transform="matrix(0.9733 0.2297 -0.2297 0.9733 98.0079 -75.1222)" style="fill:#91C4FB;" width="129.253" height="166.727"/>
			
				<rect x="316.843" y="316.008" transform="matrix(0.9733 0.2297 -0.2297 0.9733 98.7036 -74.8703)" style="fill:#FFFFFF;" width="108.087" height="140.889"/>
			<path style="fill:#32338C;" d="M413.671,289.422l-37.663-8.89c-6.048-1.428-12.108,2.318-13.536,8.366l-1.482,6.279l59.564,14.06
				l1.482-6.279C423.465,296.91,419.719,290.85,413.671,289.422z"/>
			<g>
				<path style="fill:#EEEEFE;" d="M359.468,332.694c-1.319,5.585-6.915,9.044-12.5,7.726c-5.585-1.318-9.044-6.915-7.726-12.501
					c1.319-5.585,6.915-9.044,12.5-7.726C357.328,321.512,360.787,327.108,359.468,332.694z"/>
				
					<polyline style="fill:none;stroke:#FE814B;stroke-width:3.1984;stroke-linecap:round;stroke-linejoin:round;stroke-miterlimit:10;" points="
					344.503,325.904 348.845,332.93 361.336,325.21 				"/>
				<g>
					
						<line style="fill:none;stroke:#91C4FB;stroke-width:3.1984;stroke-linecap:round;stroke-linejoin:round;stroke-miterlimit:10;" x1="369.604" y1="328.411" x2="426.858" y2="341.926"/>
					
						<line style="fill:none;stroke:#91C4FB;stroke-width:3.1984;stroke-linecap:round;stroke-linejoin:round;stroke-miterlimit:10;" x1="368.111" y1="334.734" x2="425.365" y2="348.249"/>
					
						<line style="fill:none;stroke:#91C4FB;stroke-width:3.1984;stroke-linecap:round;stroke-linejoin:round;stroke-miterlimit:10;" x1="366.619" y1="341.057" x2="423.873" y2="354.572"/>
				</g>
			</g>
			<g>
				<path style="fill:#EEEEFE;" d="M351.868,364.893c-1.318,5.585-6.915,9.044-12.5,7.726c-5.585-1.318-9.044-6.915-7.726-12.5
					c1.318-5.585,6.915-9.044,12.5-7.726C349.727,353.711,353.186,359.307,351.868,364.893z"/>
				
					<polyline style="fill:none;stroke:#FE814B;stroke-width:3.1984;stroke-linecap:round;stroke-linejoin:round;stroke-miterlimit:10;" points="
					336.903,358.103 341.245,365.128 353.735,357.409 				"/>
				<g>
					
						<line style="fill:none;stroke:#91C4FB;stroke-width:3.1984;stroke-linecap:round;stroke-linejoin:round;stroke-miterlimit:10;" x1="362.003" y1="360.61" x2="419.257" y2="374.125"/>
					
						<line style="fill:none;stroke:#91C4FB;stroke-width:3.1984;stroke-linecap:round;stroke-linejoin:round;stroke-miterlimit:10;" x1="360.51" y1="366.933" x2="417.765" y2="380.448"/>
					
						<line style="fill:none;stroke:#91C4FB;stroke-width:3.1984;stroke-linecap:round;stroke-linejoin:round;stroke-miterlimit:10;" x1="359.018" y1="373.256" x2="416.272" y2="386.771"/>
				</g>
			</g>
			<g>
				<path style="fill:#EEEEFE;" d="M344.267,397.091c-1.318,5.585-6.915,9.044-12.501,7.726c-5.585-1.318-9.044-6.915-7.726-12.5
					c1.318-5.585,6.915-9.044,12.5-7.726C342.126,385.909,345.585,391.506,344.267,397.091z"/>
				
					<polyline style="fill:none;stroke:#FE814B;stroke-width:3.1984;stroke-linecap:round;stroke-linejoin:round;stroke-miterlimit:10;" points="
					329.302,390.302 333.644,397.327 346.134,389.608 				"/>
				<g>
					
						<line style="fill:none;stroke:#91C4FB;stroke-width:3.1984;stroke-linecap:round;stroke-linejoin:round;stroke-miterlimit:10;" x1="354.402" y1="392.809" x2="411.657" y2="406.324"/>
					
						<line style="fill:none;stroke:#91C4FB;stroke-width:3.1984;stroke-linecap:round;stroke-linejoin:round;stroke-miterlimit:10;" x1="352.91" y1="399.132" x2="410.164" y2="412.647"/>
					
						<line style="fill:none;stroke:#91C4FB;stroke-width:3.1984;stroke-linecap:round;stroke-linejoin:round;stroke-miterlimit:10;" x1="351.417" y1="405.454" x2="408.672" y2="418.97"/>
				</g>
			</g>
			<path style="fill:#91C4FB;" d="M427.325,320.823l-77.571-18.311c-2.446-0.577-3.961-3.028-3.383-5.474l1.188-5.033l86.429,20.402
				l-1.188,5.033C432.222,319.886,429.771,321.401,427.325,320.823z"/>
		</g>
		<g>
			<path style="fill:#EEEEFE;" d="M336.901,429.346c-1.319,5.585-6.915,9.044-12.501,7.726c-5.585-1.319-9.044-6.915-7.726-12.501
				c1.318-5.585,6.915-9.044,12.5-7.726C334.761,418.164,338.22,423.76,336.901,429.346z"/>
			
				<polyline style="fill:none;stroke:#FE814B;stroke-width:3.1984;stroke-linecap:round;stroke-linejoin:round;stroke-miterlimit:10;" points="
				321.936,422.556 326.279,429.582 338.769,421.862 			"/>
			<g>
				
					<line style="fill:none;stroke:#91C4FB;stroke-width:3.1984;stroke-linecap:round;stroke-linejoin:round;stroke-miterlimit:10;" x1="347.037" y1="425.063" x2="404.291" y2="438.578"/>
				
					<line style="fill:none;stroke:#91C4FB;stroke-width:3.1984;stroke-linecap:round;stroke-linejoin:round;stroke-miterlimit:10;" x1="345.544" y1="431.386" x2="402.799" y2="444.901"/>
				
					<line style="fill:none;stroke:#91C4FB;stroke-width:3.1984;stroke-linecap:round;stroke-linejoin:round;stroke-miterlimit:10;" x1="344.052" y1="437.709" x2="401.306" y2="451.224"/>
			</g>
		</g>
	</g>
	<g>
		<g>
			<path style="fill:#FFFFFF;" d="M416.674,169.256c-1.372,3.303-3.037,6.439-4.775,9.533c-1.767,3.078-3.608,6.114-5.746,8.982
				c1.369-3.304,3.035-6.44,4.775-9.533C412.697,175.161,414.538,172.125,416.674,169.256z"/>
		</g>
		<g>
			<path style="fill:#32338C;" d="M431.406,215.091c0,0-10.091,15.837-20.08,27.633c-9.989,11.796-24.074,25.024-24.074,25.024
				l-75.336-31.558l11.059-25.804l55.157,17.043l31.778-44.977L431.406,215.091z"/>
			<g>
				<path style="fill:#F8AB72;" d="M311.097,205.394l11.879,4.992l-7.789,18.175l-7.722-2.631l-17.044,0.699l-5.004-2.502
					c-1.839-0.92-2.537-3.19-1.531-4.984l1.365-2.433l-1.209-0.944c-1.724-1.346-1.859-3.906-0.287-5.427l1.356-1.313l-1.838-2.49
					c-1.311-1.776-0.731-4.302,1.224-5.328l1.872-0.983l-0.606-3.307c-0.344-1.877,0.835-3.697,2.689-4.149v0
					c2.402-0.586,4.941-0.093,6.95,1.35L311.097,205.394z"/>
				<path style="fill:#F8AB72;" d="M311.307,206.611c-3.615-7.738-7.288-15.69-7.944-24.205c-0.032-0.416-0.087-0.889-0.428-1.13
					c-0.198-0.14-0.452-0.167-0.694-0.169c-1.999-0.018-3.828,1.466-4.543,3.332c-0.715,1.866-0.436,4.011,0.414,5.82
					c0.187,0.398,0.406,0.807,0.387,1.247c-0.016,0.38-0.209,0.726-0.397,1.057c-0.629,1.106-1.258,2.212-1.887,3.318
					C300.152,200.669,305.451,204.574,311.307,206.611z"/>
				<g>
					<path style="fill:#32338C;" d="M304.408,201.461c-0.717-0.446-1.394-0.939-2.066-1.44c-0.676-0.495-1.323-1.025-1.971-1.554
						c-0.639-0.54-1.277-1.08-1.888-1.654c-0.614-0.569-1.223-1.145-1.792-1.769c0.717,0.445,1.395,0.939,2.067,1.439
						c0.676,0.496,1.323,1.025,1.971,1.555c0.639,0.54,1.277,1.08,1.888,1.654C303.23,200.262,303.838,200.838,304.408,201.461z"/>
				</g>
			</g>
			<g>
				<path style="fill:#F8AB74;" d="M300.494,99.818l18.231,7.038c2.366,0.913,3.831,3.294,3.581,5.818l-0.921,9.277l-6.309,10.342
					c0,0-2.586-0.724-1.655-3.62c0.931-2.896,4.034-10.653,4.034-10.653v-5.481c0,0-2.989,12.649-5.843,14.996
					c-2.854,2.347-13.177-2.238-15.969-4.513c-1.362-1.11,1.059-4.69,1.389-10.028C297.377,107.386,295.777,100.031,300.494,99.818z
					"/>
				<g>
					<path style="fill:#32338C;" d="M312.155,104.058c0.309,2.096,0.363,4.231,0.216,6.353c-0.145,2.123-0.529,4.228-1.066,6.288
						c-0.581,2.049-1.319,4.057-2.27,5.961c-0.951,1.903-2.079,3.716-3.41,5.365c1.141-1.783,2.162-3.63,3.021-5.549
						c0.859-1.918,1.589-3.893,2.12-5.923c0.574-2.019,0.944-4.092,1.178-6.18C312.178,108.283,312.235,106.173,312.155,104.058z"/>
				</g>
				<g>
					<path style="fill:#32338C;" d="M305.216,101.652c0.195,2.063,0.184,4.146,0.02,6.217c-0.163,2.073-0.518,4.128-0.985,6.155
						c-0.512,2.016-1.136,4.007-1.943,5.923c-0.413,0.954-0.845,1.898-1.32,2.821c-0.253,0.455-0.48,0.917-0.757,1.363
						c-0.272,0.438-0.641,0.875-1.149,1.026c0.484-0.21,0.784-0.656,1.02-1.1c0.234-0.454,0.425-0.939,0.639-1.407
						c0.422-0.941,0.806-1.897,1.167-2.861c0.716-1.929,1.336-3.893,1.8-5.896c0.507-1.993,0.85-4.023,1.102-6.065
						C305.061,105.784,305.181,103.723,305.216,101.652z"/>
				</g>
			</g>
		</g>
	</g>
</g>
</svg>
