<svg width="184" height="195" viewBox="0 0 184 195" fill="none" xmlns="http://www.w3.org/2000/svg">
<path d="M1.18072 111.359C1.42147 113.793 1.79467 116.538 2.33636 119.335C2.33636 119.335 13.748 87.0765 51.2573 91.2363L43.8903 77.2179L37.7993 71.9559C25.569 77.4467 13.724 75.7932 5.63466 89.9675C1.85484 96.5815 0.446435 104.017 1.19277 111.369L1.18072 111.359Z" fill="#259E48" stroke="black" stroke-miterlimit="10"/>
<path d="M106.931 80.473C73.0816 80.5042 68.0258 37.4092 102.225 1.54175C102.333 1.42736 102.55 1.50017 102.538 1.65616C101.19 13.8858 142.743 57.7087 115.514 77.7691C113.119 79.5266 110.085 80.473 106.944 80.473H106.931Z" fill="#259E48" stroke="black" stroke-miterlimit="10"/>
<path d="M104.897 64.3747C83.5423 53.4242 88.3574 20.5934 151.639 1.21938C151.76 1.18818 151.88 1.28177 151.832 1.37536C151.11 3.15365 146.921 14.7698 144.718 47.5486C144.128 56.284 129.683 77.0827 104.897 64.3643V64.3747Z" fill="#259E48" stroke="black" stroke-miterlimit="10"/>
<path d="M126.986 136.328C127.949 142.786 77.2707 142.786 78.2337 136.328C77.2707 129.87 127.949 129.87 126.986 136.328Z" fill="#264B70" stroke="black" stroke-miterlimit="10"/>
<path d="M128.997 193.524C126.806 193.244 70.9991 194.346 70.8667 192.63C59.8763 188.127 59.4069 173.422 59.4069 173.422C57.7457 153.799 78.2458 143.275 78.2458 143.275V136.338C77.2828 142.796 127.961 142.796 126.998 136.338V143.753C153.83 158.967 148.389 191.985 128.997 193.524Z" fill="#F58F74" stroke="black" stroke-miterlimit="10"/>
<path d="M128.647 152.364C128.708 156.087 121.93 156.087 122.003 152.364C121.942 148.641 128.72 148.641 128.647 152.364Z" fill="white"/>
<path d="M138.627 160.974C138.687 164.697 131.91 164.697 131.982 160.974C131.922 157.251 138.699 157.251 138.627 160.974Z" fill="white"/>
<path d="M140.288 174.858C140.348 178.581 133.571 178.581 133.643 174.858C133.583 171.135 140.36 171.135 140.288 174.858Z" fill="white"/>
<path d="M131.416 185.382C131.476 189.105 124.699 189.105 124.771 185.382C124.711 181.659 131.488 181.659 131.416 185.382Z" fill="white"/>
<path d="M104.271 188.252C104.331 191.975 97.5542 191.975 97.6264 188.252C97.5662 184.529 104.343 184.529 104.271 188.252Z" fill="white"/>
<path d="M83.2173 185.382C83.2775 189.105 76.5003 189.105 76.5725 185.382C76.5123 181.659 83.2896 181.659 83.2173 185.382Z" fill="white"/>
<path d="M71.5889 177.249C71.6491 180.972 64.8719 180.972 64.9441 177.249C64.8839 173.526 71.6612 173.526 71.5889 177.249Z" fill="white"/>
<path d="M73.2501 160.974C73.3103 164.697 66.5331 164.697 66.6053 160.974C66.5451 157.251 73.3223 157.251 73.2501 160.974Z" fill="white"/>
<path d="M85.4442 151.407C85.5044 155.13 78.7273 155.13 78.7995 151.407C78.7393 147.684 85.5165 147.684 85.4442 151.407Z" fill="white"/>
<path d="M96.5189 160.018C96.5791 163.741 89.8019 163.741 89.8741 160.018C89.814 156.295 96.5911 156.295 96.5189 160.018Z" fill="white"/>
<path d="M83.7711 167.672C83.8312 171.395 77.0541 171.395 77.1263 167.672C77.0661 163.949 83.8433 163.949 83.7711 167.672Z" fill="white"/>
<path d="M94.8577 177.249C94.9178 180.972 88.1407 180.972 88.2129 177.249C88.1527 173.526 94.9299 173.526 94.8577 177.249Z" fill="white"/>
<path d="M107.04 169.107C107.1 172.83 100.323 172.83 100.395 169.107C100.335 165.384 107.112 165.384 107.04 169.107Z" fill="white"/>
<path d="M109.267 152.842C109.327 156.565 102.55 156.565 102.622 152.842C102.562 149.119 109.339 149.119 109.267 152.842Z" fill="white"/>
<path d="M119.234 162.888C119.294 166.611 112.517 166.611 112.589 162.888C112.529 159.165 119.306 159.165 119.234 162.888Z" fill="white"/>
<path d="M126.986 169.585C127.046 173.308 120.269 173.308 120.341 169.585C120.281 165.862 127.058 165.862 126.986 169.585Z" fill="white"/>
<path d="M115.912 179.163C115.972 182.886 109.195 182.886 109.267 179.163C109.207 175.44 115.984 175.44 115.912 179.163Z" fill="white"/>
<path d="M156.912 104.017C138.639 91.1635 112.661 108.811 138.627 130.816C138.627 130.816 151.928 141.34 157.466 152.353C157.466 152.353 182.949 136.557 183.503 115.02C183.503 115.02 183.503 93.0041 156.912 104.007V104.017Z" fill="#259E48" stroke="black" stroke-miterlimit="10"/>
<path d="M1.80666 101.355C30.5165 57.6359 42.7708 102.592 85.9859 96.3632C86.636 46.1031 2.44466 48.2141 1.80666 101.355Z" fill="#259E48" stroke="black" stroke-miterlimit="10"/>
<path d="M78.2337 143.264C78.2337 143.264 98.6857 152.332 126.986 143.743" stroke="black" stroke-linecap="round" stroke-linejoin="round"/>
<path d="M107.738 120.074C107.738 120.074 119.776 76.3963 150.412 97.5798C154.721 100.554 157.417 104.943 158.729 109.57C160.764 116.746 163.34 129.807 160.102 142.432" stroke="black" stroke-linecap="round" stroke-linejoin="round"/>
<path d="M146.86 5.16077C146.86 5.16077 90.2834 40.5186 109.544 136.193" stroke="black" stroke-linecap="round" stroke-linejoin="round"/>
<path d="M24.0764 72.7565C24.0764 72.7565 98.7098 71.7166 101.117 135.153" stroke="black" stroke-linecap="round" stroke-linejoin="round"/>
</svg>
