<svg width="149" height="273" viewBox="0 0 149 273" fill="none" xmlns="http://www.w3.org/2000/svg">
<path d="M70.3583 224.881C83.0375 224.881 93.316 222.395 93.316 219.328C93.316 216.261 83.0375 213.774 70.3583 213.774C57.6791 213.774 47.4006 216.261 47.4006 219.328C47.4006 222.395 57.6791 224.881 70.3583 224.881Z" fill="#FBE493" stroke="black" stroke-miterlimit="10"/>
<path d="M69.9768 223.588C80.079 223.588 88.2684 221.929 88.2684 219.882C88.2684 217.836 80.079 216.177 69.9768 216.177C59.8746 216.177 51.6852 217.836 51.6852 219.882C51.6852 221.929 59.8746 223.588 69.9768 223.588Z" fill="#002346" stroke="black" stroke-linecap="round" stroke-linejoin="round"/>
<path d="M107.312 9.42389C95.4516 14.2733 74.5786 27.6509 63.4989 63.4538C63.4989 63.4538 46.3073 96.2642 71.9795 111.552C75.5189 113.664 79.6971 114.509 83.7865 113.91C91.8057 112.749 105.236 107.996 112.031 89.7514C112.031 89.7514 128.238 42.1023 120.334 15.6287C118.702 10.1456 112.643 7.25002 107.312 9.42389Z" fill="#F58F74" stroke="black" stroke-linecap="round" stroke-linejoin="round"/>
<path d="M113.921 9.21265C101.741 31.3826 87.734 62.3976 78.8011 101.237C67.3666 150.937 68.8125 193.604 72.1124 222.243" stroke="black" stroke-linecap="round" stroke-linejoin="round"/>
<path d="M79.0849 120.96C75.5632 127.57 73.2835 136.072 76.8407 144.978C78.1979 148.393 80.6196 151.297 83.7421 153.26C86.9534 155.284 91.7436 157.529 97.0928 157.529L87.7606 144.565L102.318 156.42C102.318 156.42 115.012 151.975 119.119 146.052L107.17 130.122L123.971 142.716C123.971 142.716 147.718 120.775 147.834 103.534C147.869 98.5261 144.081 94.2488 139.078 93.5799C131.582 92.5678 117.584 93.1575 96.7822 103.78C89.2775 107.609 83.0325 113.558 79.0761 120.96H79.0849Z" fill="#F58F74" stroke="black" stroke-linecap="round" stroke-linejoin="round"/>
<path d="M23.1811 26.7886L11.2321 41.9704C11.2321 41.9704 16.457 103.824 58.274 90.8604C58.274 90.8604 86.2703 79.375 65.7432 42.7097C65.7432 42.7097 51.9403 3.40408 25.9399 0.614141C20.2093 -0.00193501 14.7981 3.38647 12.8554 8.77274C10.8861 14.2206 9.1031 22.3088 10.4958 31.9724L23.19 26.7886H23.1811Z" fill="#F58F74" stroke="black" stroke-linecap="round" stroke-linejoin="round"/>
<path d="M92.9154 219.644V254.945C92.9154 264.494 85.1091 272.239 75.4842 272.239H64.4312C54.8063 272.239 47 264.494 47 254.945V219.644C47 222.707 57.2813 225.197 69.9577 225.197C82.6341 225.197 92.9154 222.707 92.9154 219.644Z" fill="#FBE493" stroke="black" stroke-miterlimit="10"/>
<path d="M146.379 97.5316C146.379 97.5316 57.1563 118.645 67.2335 223.097" stroke="black" stroke-linecap="round" stroke-linejoin="round"/>
<path d="M18.515 1.68787C18.515 1.68787 47.8065 31.1275 63.6586 120.652C67.0118 139.601 68.7593 158.787 68.9545 178.026L69.398 222.648" stroke="black" stroke-linecap="round" stroke-linejoin="round"/>
<path d="M6.48772 61.0426C4.41194 60.9809 2.54911 62.3275 1.98138 64.3078C0.322536 70.1517 -1.15005 85.3864 14.6489 112.256C14.6489 112.256 27.3519 132.833 41.0928 133.044C46.1758 133.123 50.6023 129.673 52.0305 124.833C54.0708 117.898 54.3902 104.555 39.2832 85.2191C39.2832 85.2191 20.0246 61.421 6.47889 61.0426H6.48772Z" fill="#F58F74" stroke="black" stroke-linecap="round" stroke-linejoin="round"/>
<path d="M15.1707 85.4916C15.1707 85.4916 47.6112 105.629 62.7981 154.906C65.1045 162.396 66.3996 170.167 66.6746 178L68.2714 222.965" stroke="black" stroke-linecap="round" stroke-linejoin="round"/>
</svg>
