<?xml version="1.0" encoding="utf-8"?>
<!-- Generator: Adobe Illustrator 27.5.0, SVG Export Plug-In . SVG Version: 6.00 Build 0)  -->
<svg version="1.1" xmlns="http://www.w3.org/2000/svg" xmlns:xlink="http://www.w3.org/1999/xlink" x="0px" y="0px"
	 viewBox="0 0 500 500" style="enable-background:new 0 0 500 500;" xml:space="preserve">
<g id="Floor">
	<path id="Floor_00000056417976768900245440000008798272830408210571_" style="fill:#F5F5F5;" d="M76.335,230.397
		c-95.91,55.374-95.907,145.152,0.005,200.526s251.415,55.374,347.325,0s95.907-145.152-0.005-200.526
		S172.245,175.024,76.335,230.397z"/>
</g>
<g id="Plants">
	<g id="Plants_5_">
		<g>
			<path style="fill:#FFFFFF;" d="M448.137,230.367c-0.498,0.488-1.301,1.169-2.318,2.043c-6.393,5.438-21.284,18.093-23.165,35.728
				l-2.053-0.529c-0.183-19.333,13.447-39.143,22.829-43.148c0.224-0.092,0.325-0.346,0.234-0.569
				c-0.102-0.224-0.356-0.325-0.579-0.234c-9.453,4.025-23.46,23.439-23.358,43.727l-1.393-0.356
				c-0.518-1.758-3.578-13.956,4.94-30.148c1.484-2.816,3.141-5.408,4.899-7.715l0.081-0.102
				c5.926-7.705,12.939-12.106,17.747-10.54c2.46,0.803,4.096,2.45,4.604,4.645C451.176,225.61,450.261,228.304,448.137,230.367z"/>
			<path style="fill:#FFFFFF;" d="M437.19,212.295c-3.852,5.519-7.837,11.221-9.687,16.334c-1.799,2.338-3.496,4.98-5.001,7.847
				c-2.745,5.204-4.299,10.022-5.143,14.22c-0.783-29.365,15.328-52.398,20.247-56.504c0.183-0.152,0.213-0.427,0.051-0.61
				c-0.153-0.183-0.427-0.213-0.61-0.061c-5.235,4.361-22.91,29.741-20.339,61.434c0,0.01,0,0.031,0.01,0.041
				c-0.589,5.885,0.214,10.073,0.64,11.74l-2.429-0.732c-0.65-2.206-5.712-20.837-1.555-45.516
				c2.216-13.183,9.859-26.031,18.174-30.534c3.852-2.084,7.623-2.358,11.211-0.793c1.952,0.854,3.11,2.023,3.557,3.588
				C447.619,197.343,442.547,204.6,437.19,212.295z"/>
		</g>
		<g>
			<g>
				<path style="fill:#BA68C8;" d="M451.461,222.978c-0.579-2.47-2.47-4.391-5.194-5.275c-4.615-1.514-11.069,2.013-16.822,8.558
					c-0.65,0.752-1.301,1.535-1.941,2.368c-1.799,2.338-3.496,4.98-5.001,7.847c-2.745,5.204-4.299,10.022-5.143,14.22
					c-0.295,1.515-0.498,2.958-0.64,4.3c-0.589,5.885,0.214,10.073,0.64,11.74c0.122,0.508,0.214,0.783,0.224,0.803
					c0.041,0.102,0.112,0.183,0.203,0.234l0.081,0.03c0.01,0.01,0.01,0.01,0.02,0.01l2.104,0.539l2.938,0.752
					c0.061,0.02,0.112,0.02,0.173,0.01c0.061-0.01,0.132-0.031,0.183-0.071c0.102-0.071,0.173-0.193,0.183-0.315
					c1.616-17.544,16.538-30.239,22.921-35.657c1.026-0.874,1.839-1.565,2.358-2.084
					C451.085,228.71,452.101,225.712,451.461,222.978z M448.137,230.367c-0.498,0.488-1.301,1.169-2.318,2.043
					c-6.393,5.438-21.284,18.093-23.165,35.728l-2.053-0.529l-0.874-0.224l-1.393-0.356c-0.518-1.758-3.578-13.956,4.94-30.148
					c1.484-2.816,3.141-5.408,4.899-7.715l0.081-0.102c5.926-7.705,12.939-12.106,17.747-10.54c2.46,0.803,4.096,2.45,4.604,4.645
					C451.176,225.61,450.261,228.304,448.137,230.367z"/>
			</g>
			<g>
				<path style="fill:#BA68C8;" d="M443.431,224.462c-9.382,4.005-23.012,23.815-22.829,43.148v0.336
					c0.01,0.213-0.152,0.407-0.366,0.437h-0.061c-0.061,0-0.122-0.01-0.183-0.03c-0.142-0.071-0.254-0.224-0.254-0.397
					c0-0.183-0.01-0.376-0.01-0.569c-0.102-20.288,13.905-39.702,23.358-43.727c0.224-0.092,0.478,0.01,0.579,0.234
					C443.756,224.116,443.655,224.37,443.431,224.462z"/>
			</g>
		</g>
		<g>
			<g>
				<path style="fill:#BA68C8;" d="M437.902,212.793c-3.151,4.513-6.394,9.168-8.457,13.468c-0.447,0.935-0.833,1.85-1.159,2.744
					c-0.01,0.02-0.397,0.325-0.559,0.264c-0.224-0.081-0.335-0.335-0.254-0.559c0.01-0.031,0.02-0.051,0.03-0.081
					c1.85-5.113,5.834-10.815,9.687-16.334c5.357-7.695,10.429-14.952,9.128-19.546c-0.447-1.565-1.606-2.734-3.557-3.588
					c-3.588-1.565-7.359-1.291-11.211,0.793c-8.314,4.503-15.958,17.351-18.174,30.534c-4.157,24.679,0.905,43.311,1.555,45.516
					l2.429,0.732l0.762,0.234c0.224,0.071,0.356,0.315,0.285,0.549c-0.051,0.163-0.183,0.274-0.346,0.305
					c-0.061,0.01-0.132,0-0.193-0.02l-0.081-0.03l-3.334-0.996c-0.142-0.041-0.254-0.152-0.295-0.285
					c-0.061-0.193-6.089-19.78-1.647-46.146c2.267-13.427,10.093-26.539,18.621-31.154c4.097-2.226,8.132-2.5,11.974-0.823
					c2.175,0.945,3.537,2.338,4.045,4.147C448.564,197.495,443.39,204.926,437.902,212.793z"/>
			</g>
			<g>
				<path style="fill:#BA68C8;" d="M437.607,194.192c-4.919,4.106-21.03,27.139-20.247,56.504c0.031,1.382,0.112,2.785,0.224,4.188
					c0.02,0.234-0.142,0.437-0.366,0.467c-0.01,0-0.03,0-0.041,0.01c-0.224,0.01-0.417-0.142-0.457-0.366
					c-0.01-0.01-0.01-0.031-0.01-0.041c-2.571-31.693,15.104-57.073,20.339-61.434c0.183-0.152,0.457-0.122,0.61,0.061
					C437.82,193.765,437.79,194.04,437.607,194.192z"/>
			</g>
		</g>
	</g>
</g>
<g id="Clouds">
	<g id="Clouds_1_">
		<path id="XMLID_00000103265044168975126140000001925722070285014430_" style="fill:#EBEBEB;" d="M277.336,86.153l-9.328,5.386
			c0.046-0.417,0.079-0.83,0.079-1.235v-2.702c0-4.809-3.376-6.759-7.542-4.354c-1.687,0.974-3.238,2.517-4.495,4.322
			c-0.682-6.047-5.427-8.3-11.189-4.973c-6.231,3.598-11.282,12.347-11.282,19.542v4.043c0,1.864,0.345,3.433,0.955,4.684
			l-7.749,4.474c-2.31,1.334-4.183,4.578-4.183,7.245c0,2.668,1.873,3.749,4.183,2.415l50.551-29.186
			c2.31-1.334,4.183-4.578,4.183-7.246C281.52,85.9,279.647,84.819,277.336,86.153z"/>
		<path id="XMLID_00000113353482933697261250000013261552027314291635_" style="fill:#EBEBEB;" d="M334.469,91.979l-7.04,4.065
			c0.035-0.314,0.059-0.627,0.059-0.932v-2.04c0-3.63-2.548-5.101-5.691-3.286c-1.273,0.735-2.444,1.899-3.392,3.262
			c-0.515-4.564-4.096-6.264-8.445-3.753c-4.703,2.715-8.515,9.318-8.515,14.748v3.051c0,1.407,0.26,2.591,0.721,3.535l-5.848,3.376
			c-1.744,1.007-3.157,3.455-3.157,5.468c0,2.013,1.413,2.829,3.157,1.823l38.151-22.027c1.744-1.007,3.157-3.455,3.157-5.468
			C337.626,91.788,336.212,90.972,334.469,91.979z"/>
	</g>
</g>
<g id="Shadows">
	<g id="Shadow_2_">
		<path style="fill:#E0E0E0;" d="M277.977,399.248l-7.477-4.318l5.439-3.14c2.832-1.64,3.255-3.961,3.255-5.205
			c-0.003-1.237-0.428-3.558-3.26-5.192l-13.546-7.821c-1.502-0.867-3.285-1.308-5.308-1.31c-2.017,0.001-3.8,0.443-5.299,1.308
			l-9.138,5.277l-47.225-27.266c-1.501-0.865-3.282-1.305-5.299-1.307c-2.013,0-3.797,0.44-5.306,1.308l-19.301,11.144
			c-1.666,0.964-2.759,1.914-3.46,3.016c-0.833,1.333-1.09,2.974-0.744,4.975l9.99,49.988c0.58,2.511,2.462,4.7,5.593,6.506
			l13.546,7.821c1.503,0.868,3.283,1.308,5.29,1.308h0.01c2.019,0,3.804-0.44,5.303-1.307l38.407-22.176l11.184,6.457
			c1.504,0.868,3.283,1.308,5.312,1.308c2.008,0,3.79-0.439,5.295-1.307l16.732-9.663c2.838-1.629,3.265-3.955,3.267-5.211
			C281.236,403.204,280.809,400.881,277.977,399.248z M203.601,401.386l-2.244-11.258l10.872,6.277L203.601,401.386z"/>
		<path id="Shadow_9_" style="fill:#E0E0E0;" d="M63.294,395.346c7.707,2.81,15.078,6.573,21.901,11.182
			c7.669,5.18,14.673,11.438,22.847,15.74c10.623,5.591,22.836,7.615,34.796,7.04c6.774-0.325,14.145-1.807,18.498-7.15
			c1.115-1.368,2.005-3.028,2.034-4.804c0.043-2.608-1.733-4.846-3.573-6.642c-9.814-9.582-23.544-13.526-36.789-16.61
			c-13.245-3.084-21.18-6.937-34.169-13.877c-5.559-2.971-11.036-6.163-16.638-8.964c-0.045-0.023-0.091-0.045-0.136-0.068
			c-2.844-1.414-5.514-2.978-8.514-4.082c-3.833-1.41-7.009-2.437-11.237-2.125c-4.211,0.311-8.955,0.25-11.924,3.68
			c-2.577,2.978-2.858,7.001-1.321,10.544C43.176,388.678,54.431,392.115,63.294,395.346z"/>
		<path style="fill:#E0E0E0;" d="M353.188,321.453c-3.385-2.15-7.128-4.411-11.126-6.72c-3.965-2.289-7.963-4.497-11.912-6.578
			c-5.059-2.612-10.631-4.765-16.563-6.403c-5.983-1.65-12.298-2.525-18.767-2.605l-0.874-0.004c-6.174,0-12.575,0.793-19.024,2.359
			c-6.793,1.653-13.614,4.441-20.277,8.287c-6.899,3.984-11.746,7.963-14.816,12.17c-3.211,4.408-4.761,8.872-4.605,13.271
			c0.158,4.393,1.886,8.607,5.128,12.52c2.948,3.567,6.8,6.898,11.476,9.921c3.499,2.215,7.328,4.526,11.381,6.866
			c4.052,2.34,7.966,4.5,11.653,6.429c5.072,2.619,10.646,4.772,16.563,6.403c5.983,1.652,12.298,2.528,18.768,2.604l0.877,0.005
			c6.189,0,12.589-0.793,19.021-2.359c6.791-1.653,13.614-4.44,20.276-8.287c6.904-3.987,11.75-7.966,14.816-12.167
			c3.215-4.406,4.765-8.873,4.606-13.274c-0.158-4.387-1.884-8.6-5.13-12.521C361.707,327.8,357.855,324.469,353.188,321.453z
			 M330.211,347.93c-0.346,0.527-1.326,1.639-3.998,3.181c-2.21,1.276-4.389,2.156-6.48,2.615c-1.667,0.366-3.331,0.551-4.946,0.551
			c-0.44,0-0.88-0.013-1.321-0.04c-2.042-0.125-4.06-0.52-6.001-1.176c-2.068-0.7-4.139-1.599-6.206-2.702
			c-7.512-3.852-14.624-7.959-21.199-12.243c-1.773-1.105-3.211-2.228-4.275-3.332c-0.781-0.813-1.272-1.596-1.418-2.247
			c-0.027-0.126-0.111-0.511,0.435-1.344c0.344-0.524,1.321-1.634,3.997-3.179c2.215-1.279,4.396-2.159,6.478-2.615
			c1.605-0.352,3.195-0.53,4.728-0.53c0.482,0,0.959,0.017,1.43,0.052c2.029,0.15,4.045,0.56,5.988,1.217
			c2.107,0.713,4.257,1.606,6.303,2.612c7.289,3.823,14.424,7.943,21.227,12.256c1.802,1.129,3.288,2.263,4.411,3.369
			c0.754,0.745,1.213,1.459,1.325,2.065C330.716,346.586,330.798,347.034,330.211,347.93z"/>
		<path style="fill:#E0E0E0;" d="M464.659,291.465l-7.478-4.318l5.44-3.14c2.832-1.639,3.254-3.96,3.254-5.199
			c0-1.236-0.423-3.555-3.259-5.199l-13.544-7.818c-1.498-0.867-3.281-1.308-5.312-1.313c-2.016,0.004-3.797,0.444-5.298,1.31
			l-9.138,5.277L382.1,243.8c-1.499-0.865-3.282-1.307-5.301-1.308c-2.011,0-3.796,0.438-5.305,1.307l-19.299,11.142
			c-1.663,0.962-2.758,1.91-3.466,3.02c-0.831,1.334-1.087,2.975-0.741,4.974l9.992,49.988c0.58,2.511,2.461,4.699,5.591,6.506
			l13.546,7.82c1.502,0.87,3.283,1.31,5.292,1.31h0.01c2.016,0,3.8-0.44,5.303-1.308l38.407-22.174l11.184,6.457
			c1.503,0.868,3.288,1.308,5.312,1.308c2.01,0,3.791-0.44,5.293-1.308l16.732-9.662c2.833-1.626,3.265-3.95,3.269-5.217
			C467.916,295.415,467.487,293.099,464.659,291.465z M390.281,293.604l-2.244-11.258l10.872,6.277L390.281,293.604z"/>
	</g>
</g>
<g id="_x34_04_00000153698429525509797010000016850429553717446047_">
	<g id="_x34_04_1_">
		<g id="_x34_04">
			<g>
				<g>
					<path style="fill:#BA68C8;" d="M274.642,389.583l-16.744,9.661c-0.934,0.548-2.089,0.815-3.452,0.815
						c-1.363,0-2.504-0.267-3.438-0.815l-13.04-7.527l-40.26,23.249c-0.934,0.534-2.089,0.815-3.453,0.815
						c-1.363,0-2.504-0.281-3.452-0.815l-13.543-7.824c-2.223-1.274-3.497-2.652-3.838-4.134l-9.972-49.876
						c-0.059-0.326-0.074-0.622-0.074-0.889c0,0.963-0.015,13.41,0,14.018c0,0.237,0.03,0.489,0.074,0.771l9.972,49.876
						c0.341,1.482,1.615,2.86,3.838,4.134l13.543,7.824c0.948,0.534,2.089,0.815,3.452,0.815c1.363,0,2.519-0.281,3.453-0.815
						l40.26-23.249l13.04,7.527c0.934,0.548,2.074,0.815,3.438,0.815c1.363,0,2.519-0.267,3.452-0.815l16.744-9.661
						c0.934-0.548,1.408-1.2,1.408-2v-13.899C276.05,388.368,275.576,389.035,274.642,389.583z"/>
					<path style="fill:#BA68C8;" d="M274.005,383.626v-13.899c0,0.785-0.474,1.452-1.408,2l-10.995,6.342l11.869,6.846
						C273.813,384.53,274.005,384.1,274.005,383.626z"/>
					<polygon style="fill:#BA68C8;" points="197.784,381.671 206.111,386.501 218.158,379.552 194.642,365.964 197.769,381.671 
											"/>
				</g>
				<g>
					<polygon style="opacity:0.35;" points="197.784,381.671 206.111,386.501 218.158,379.552 194.642,365.964 197.769,381.671 
											"/>
					<path style="opacity:0.2;" d="M274.005,383.626v-13.899c0,0.785-0.474,1.452-1.408,2l-10.995,6.342l11.869,6.846
						C273.813,384.53,274.005,384.1,274.005,383.626z"/>
					<path style="opacity:0.2;" d="M274.642,389.583l-16.744,9.661c-0.934,0.548-2.089,0.815-3.452,0.815v13.899
						c1.363,0,2.519-0.267,3.452-0.815l16.744-9.661c0.934-0.548,1.408-1.2,1.408-2v-13.899
						C276.05,388.368,275.576,389.035,274.642,389.583z"/>
					<path style="opacity:0.25;" d="M173.423,403.008l-9.972-49.876c-0.059-0.326-0.074-0.622-0.074-0.889
						c0,0.963-0.015,13.41,0,14.018c0,0.237,0.03,0.489,0.074,0.771l9.972,49.876c0.059,0.281,0.163,0.563,0.311,0.845v-13.899
						C173.586,403.571,173.482,403.289,173.423,403.008z"/>
					<path style="opacity:0.35;" d="M194.257,415.781c-1.363,0-2.504-0.281-3.452-0.815l-13.543-7.824
						c-1.793-1.022-2.978-2.119-3.527-3.29v13.899c0.548,1.171,1.734,2.267,3.527,3.289l13.543,7.824
						c0.948,0.534,2.089,0.815,3.452,0.815c0.133,0,0.252,0,0.385-0.03v-13.899C194.509,415.781,194.39,415.781,194.257,415.781z"/>
					<path style="opacity:0.2;" d="M197.709,414.966c-0.845,0.489-1.867,0.756-3.067,0.785v13.899c1.2-0.03,2.223-0.296,3.067-0.785
						l40.26-23.249v-13.899L197.709,414.966z"/>
					<path style="opacity:0.35;" d="M251.008,399.244l-13.04-7.527v13.899l13.04,7.527c0.934,0.548,2.074,0.815,3.438,0.815v-13.899
						C253.083,400.059,251.942,399.793,251.008,399.244z"/>
				</g>
				<path style="fill:#BA68C8;" d="M257.905,399.245c-0.94,0.542-2.091,0.813-3.453,0.811c-1.363,0-2.511-0.271-3.449-0.812
					l-13.036-7.526l-40.259,23.245c-0.937,0.541-2.084,0.811-3.451,0.811c-1.365,0.001-2.511-0.271-3.449-0.812l-13.546-7.821
					c-2.216-1.279-3.493-2.656-3.835-4.132l-9.968-49.88c-0.17-0.984-0.084-1.746,0.254-2.287c0.344-0.54,1.068-1.132,2.174-1.772
					l19.297-11.141c0.937-0.539,2.088-0.81,3.453-0.812c1.363,0.002,2.513,0.272,3.448,0.812l49.076,28.334l10.991-6.346
					c0.935-0.54,2.089-0.81,3.452-0.813c1.365,0.003,2.513,0.272,3.45,0.813l13.546,7.821c0.938,0.541,1.407,1.206,1.407,1.991
					c0,0.789-0.472,1.453-1.407,1.993l-10.991,6.346l13.034,7.525c0.94,0.543,1.407,1.206,1.409,1.992
					c-0.002,0.788-0.471,1.453-1.409,1.992L257.905,399.245z M218.155,379.544l-23.514-13.576l4.855,24.349L218.155,379.544z"/>
			</g>
			<g>
				<g>
					<path style="fill:#BA68C8;" d="M364.615,327.867c-0.059,3.349-1.378,6.772-3.912,10.254
						c-2.727,3.734-7.276,7.453-13.677,11.143c-6.387,3.69-12.817,6.312-19.293,7.898c-6.476,1.571-12.802,2.327-18.982,2.252
						c-6.164-0.074-12.121-0.904-17.826-2.475c-5.705-1.571-10.995-3.616-15.855-6.134c-3.66-1.911-7.483-4.03-11.498-6.342
						c-4.001-2.311-7.75-4.564-11.247-6.786c-4.342-2.801-7.883-5.853-10.595-9.143c-2.741-3.304-4.164-6.727-4.282-10.298
						c0.074,2.208-0.089,11.469,0,13.899c0.118,3.571,1.541,6.994,4.282,10.298c2.712,3.29,6.253,6.342,10.595,9.143
						c3.497,2.223,7.246,4.475,11.247,6.786c4.015,2.312,7.839,4.43,11.498,6.357c4.86,2.504,10.15,4.549,15.855,6.12
						c5.705,1.571,11.662,2.4,17.826,2.474c6.179,0.074,12.506-0.682,18.982-2.252c6.475-1.586,12.906-4.208,19.293-7.898
						c6.401-3.689,10.95-7.409,13.677-11.143c2.726-3.734,4.03-7.394,3.897-10.95C364.526,339.025,364.66,331.024,364.615,327.867z"
						/>
					<path style="opacity:0.35;" d="M312.164,359.341c-1.14,0.042-2.281,0.086-3.411,0.073c-6.164-0.074-12.121-0.904-17.826-2.475
						c-5.705-1.571-10.995-3.616-15.855-6.134c-3.66-1.911-7.483-4.03-11.498-6.342c-4.001-2.311-7.75-4.564-11.247-6.786
						c-4.342-2.801-7.883-5.853-10.595-9.143c-2.741-3.304-4.164-6.727-4.282-10.298c0.074,2.208-0.089,11.469,0,13.899
						c0.118,3.571,1.541,6.994,4.282,10.298c2.712,3.29,6.253,6.342,10.595,9.143c3.497,2.223,7.246,4.475,11.247,6.786
						c4.015,2.312,7.839,4.43,11.498,6.357c4.86,2.504,10.15,4.549,15.855,6.12c5.705,1.571,11.662,2.4,17.826,2.474
						c1.13,0.014,2.271-0.031,3.411-0.073V359.341z"/>
					<path style="opacity:0.2;" d="M364.615,327.867c-0.059,3.349-1.378,6.772-3.912,10.254c-2.727,3.734-7.276,7.453-13.677,11.143
						c-6.387,3.69-12.817,6.312-19.293,7.898c-5.29,1.283-10.476,1.992-15.569,2.179v13.899c5.092-0.187,10.278-0.896,15.569-2.179
						c6.475-1.586,12.906-4.208,19.293-7.898c6.401-3.689,10.95-7.409,13.677-11.143c2.726-3.734,4.03-7.394,3.897-10.95
						C364.526,339.025,364.66,331.024,364.615,327.867z"/>
				</g>
				<g>
					<path style="fill:#BA68C8;" d="M271.634,320.488c0.712,0.741,1.541,1.482,2.49,2.193c0.43-0.282,0.859-0.563,1.334-0.845
						c2.563-1.467,5.067-2.475,7.542-3.023c2.474-0.534,4.89-0.726,7.231-0.548c2.341,0.178,4.638,0.637,6.905,1.393
						c2.252,0.771,4.534,1.719,6.831,2.845c7.409,3.897,14.566,8.016,21.471,12.402c0.904,0.563,1.733,1.14,2.488,1.703
						c1.823-1.177,3.143-2.344,3.898-3.511c0.933-1.423,1.274-2.83,1.022-4.208c-0.252-1.363-1.037-2.712-2.356-4.016
						c-1.334-1.304-3.008-2.593-5.053-3.867c-6.905-4.386-14.062-8.52-21.471-12.402c-2.297-1.126-4.579-2.075-6.831-2.845
						c-2.267-0.756-4.564-1.215-6.905-1.393c-2.341-0.178-4.756,0.015-7.231,0.548c-2.475,0.548-4.979,1.556-7.542,3.023
						c-2.549,1.482-4.297,2.934-5.231,4.356c-0.933,1.423-1.259,2.815-0.963,4.164C269.575,317.821,270.36,319.155,271.634,320.488z
						"/>
					<path style="opacity:0.35;" d="M271.634,320.488c0.712,0.741,1.541,1.482,2.49,2.193c0.43-0.282,0.859-0.563,1.334-0.845
						c2.563-1.467,5.067-2.475,7.542-3.023c2.474-0.534,4.89-0.726,7.231-0.548c2.341,0.178,4.638,0.637,6.905,1.393
						c2.252,0.771,4.534,1.719,6.831,2.845c7.409,3.897,14.566,8.016,21.471,12.402c0.904,0.563,1.733,1.14,2.488,1.703
						c1.823-1.177,3.143-2.344,3.898-3.511c0.933-1.423,1.274-2.83,1.022-4.208c-0.252-1.363-1.037-2.712-2.356-4.016
						c-1.334-1.304-3.008-2.593-5.053-3.867c-6.905-4.386-14.062-8.52-21.471-12.402c-2.297-1.126-4.579-2.075-6.831-2.845
						c-2.267-0.756-4.564-1.215-6.905-1.393c-2.341-0.178-4.756,0.015-7.231,0.548c-2.475,0.548-4.979,1.556-7.542,3.023
						c-2.549,1.482-4.297,2.934-5.231,4.356c-0.933,1.423-1.259,2.815-0.963,4.164C269.575,317.821,270.36,319.155,271.634,320.488z
						"/>
				</g>
				<path style="fill:#BA68C8;" d="M255.016,296.135c6.389-3.689,12.826-6.321,19.301-7.896c6.475-1.572,12.803-2.323,18.978-2.25
					c6.175,0.077,12.12,0.899,17.827,2.473c5.709,1.575,10.991,3.616,15.849,6.123c3.833,2.02,7.753,4.183,11.758,6.495
					c4.005,2.312,7.666,4.526,10.992,6.639c4.343,2.805,7.88,5.856,10.606,9.151c2.728,3.296,4.154,6.73,4.283,10.292
					c0.128,3.566-1.171,7.221-3.897,10.957c-2.729,3.738-7.288,7.454-13.677,11.143c-6.389,3.689-12.823,6.32-19.299,7.896
					c-6.472,1.575-12.8,2.324-18.978,2.25c-6.175-0.073-12.123-0.896-17.827-2.473c-5.711-1.573-10.993-3.615-15.851-6.122
					c-3.664-1.919-7.495-4.034-11.5-6.346c-4.005-2.312-7.755-4.574-11.25-6.789c-4.343-2.805-7.88-5.854-10.604-9.151
					c-2.73-3.294-4.154-6.726-4.283-10.292c-0.126-3.565,1.173-7.218,3.897-10.957C244.07,303.54,248.626,299.825,255.016,296.135z
					 M325.436,321.003c-6.903-4.377-14.059-8.509-21.471-12.396c-2.299-1.13-4.58-2.077-6.836-2.841
					c-2.258-0.762-4.559-1.228-6.903-1.402c-2.342-0.171-4.753,0.013-7.222,0.554c-2.471,0.541-4.982,1.55-7.54,3.025
					c-2.554,1.476-4.302,2.926-5.239,4.353c-0.937,1.427-1.255,2.818-0.96,4.169c0.302,1.353,1.088,2.693,2.365,4.022
					c1.278,1.329,2.94,2.633,4.985,3.91c6.644,4.33,13.803,8.463,21.471,12.396c2.214,1.182,4.451,2.151,6.709,2.915
					c2.254,0.763,4.578,1.219,6.964,1.364c2.388,0.148,4.816-0.048,7.285-0.59c2.472-0.541,4.986-1.549,7.54-3.025
					c2.558-1.475,4.302-2.926,5.239-4.353c0.937-1.425,1.281-2.828,1.023-4.206c-0.255-1.377-1.044-2.717-2.363-4.021
					C329.161,323.574,327.478,322.282,325.436,321.003z"/>
			</g>
			<g>
				<g>
					<path style="fill:#BA68C8;" d="M461.324,281.8l-16.744,9.661c-0.934,0.548-2.089,0.815-3.452,0.815
						c-1.363,0-2.504-0.267-3.438-0.815l-13.04-7.527l-40.259,23.249c-0.933,0.533-2.089,0.815-3.453,0.815
						c-1.363,0-2.504-0.281-3.452-0.815l-13.543-7.824c-2.223-1.274-3.497-2.652-3.838-4.134l-9.972-49.876
						c-0.059-0.326-0.074-0.622-0.074-0.889c0,0.963-0.015,13.41,0,14.017c0,0.237,0.03,0.489,0.074,0.771l9.972,49.876
						c0.341,1.482,1.615,2.86,3.838,4.134l13.543,7.824c0.948,0.533,2.089,0.815,3.452,0.815c1.363,0,2.519-0.282,3.453-0.815
						l40.259-23.249l13.04,7.527c0.934,0.548,2.074,0.815,3.438,0.815c1.363,0,2.519-0.267,3.452-0.815l16.744-9.661
						c0.934-0.548,1.408-1.2,1.408-2V279.8C462.732,280.585,462.258,281.252,461.324,281.8z"/>
					<path style="fill:#BA68C8;" d="M460.687,275.844v-13.899c0,0.785-0.474,1.452-1.408,2l-10.995,6.342l11.869,6.846
						C460.494,276.748,460.687,276.318,460.687,275.844z"/>
					<polygon style="fill:#BA68C8;" points="384.465,273.888 392.792,278.718 404.839,271.769 381.323,258.181 384.45,273.888 					
						"/>
				</g>
				<g>
					<polygon style="opacity:0.35;" points="384.465,273.888 392.792,278.718 404.839,271.769 381.323,258.181 384.45,273.888 					
						"/>
					<path style="opacity:0.2;" d="M460.687,275.844v-13.899c0,0.785-0.474,1.452-1.408,2l-10.995,6.342l11.869,6.846
						C460.494,276.748,460.687,276.318,460.687,275.844z"/>
					<path style="opacity:0.2;" d="M461.324,281.8l-16.744,9.661c-0.934,0.548-2.089,0.815-3.452,0.815v13.899
						c1.363,0,2.519-0.267,3.452-0.815l16.744-9.661c0.934-0.548,1.408-1.2,1.408-2V279.8
						C462.732,280.585,462.258,281.252,461.324,281.8z"/>
					<path style="opacity:0.25;" d="M360.104,295.225l-9.972-49.876c-0.059-0.326-0.074-0.622-0.074-0.889
						c0,0.963-0.015,13.41,0,14.017c0,0.237,0.03,0.489,0.074,0.771l9.972,49.876c0.059,0.282,0.163,0.563,0.311,0.845V296.07
						C360.267,295.788,360.164,295.507,360.104,295.225z"/>
					<path style="opacity:0.35;" d="M380.938,307.998c-1.363,0-2.504-0.281-3.452-0.815l-13.543-7.824
						c-1.793-1.022-2.978-2.119-3.527-3.29v13.899c0.548,1.171,1.734,2.267,3.527,3.29l13.543,7.824
						c0.948,0.533,2.089,0.815,3.452,0.815c0.134,0,0.252,0,0.385-0.03v-13.899C381.19,307.998,381.072,307.998,380.938,307.998z"/>
					<path style="opacity:0.2;" d="M384.391,307.183c-0.845,0.489-1.867,0.756-3.067,0.785v13.899c1.2-0.03,2.223-0.296,3.067-0.785
						l40.259-23.249v-13.899L384.391,307.183z"/>
					<path style="opacity:0.35;" d="M437.69,291.461l-13.04-7.527v13.899l13.04,7.527c0.934,0.548,2.074,0.815,3.438,0.815v-13.899
						C439.764,292.276,438.623,292.01,437.69,291.461z"/>
				</g>
				<path style="fill:#BA68C8;" d="M444.586,291.462c-0.939,0.542-2.091,0.813-3.453,0.812c-1.363,0-2.511-0.271-3.448-0.812
					l-13.036-7.526l-40.259,23.245c-0.937,0.541-2.084,0.811-3.451,0.811c-1.365,0.001-2.511-0.271-3.449-0.812l-13.546-7.821
					c-2.216-1.279-3.494-2.656-3.835-4.132l-9.968-49.88c-0.169-0.984-0.084-1.746,0.254-2.287c0.344-0.541,1.068-1.132,2.174-1.772
					l19.297-11.141c0.937-0.539,2.088-0.81,3.453-0.811c1.363,0.001,2.513,0.272,3.448,0.812l49.076,28.334l10.991-6.346
					c0.935-0.541,2.088-0.81,3.451-0.813c1.365,0.003,2.513,0.272,3.45,0.813l13.546,7.821c0.938,0.541,1.407,1.206,1.407,1.991
					c0,0.789-0.472,1.453-1.407,1.993l-10.991,6.346l13.034,7.525c0.94,0.543,1.407,1.206,1.409,1.992
					c-0.002,0.788-0.471,1.453-1.409,1.992L444.586,291.462z M404.836,271.762l-23.513-13.576l4.855,24.349L404.836,271.762z"/>
			</g>
		</g>
	</g>
</g>
<g id="Text_00000058582275662430624600000006959888412841882264_">
	<g id="Text">
		<path style="fill:#455A64;" d="M356.495,398.034c0.228-0.133,0.51-0.199,0.844-0.199c0.332,0,0.613,0.067,0.842,0.199l3.311,1.912
			c0.229,0.132,0.345,0.295,0.343,0.486c0,0.193-0.114,0.355-0.343,0.487l-14.806,8.548c-0.229,0.132-0.51,0.199-0.844,0.198
			c-0.332,0.001-0.614-0.065-0.844-0.198l-20.179-11.65c-0.228-0.132-0.344-0.294-0.345-0.487c0.001-0.192,0.115-0.354,0.345-0.486
			l14.557-8.405c0.228-0.132,0.51-0.199,0.843-0.199c0.335,0,0.616,0.066,0.845,0.199l3.311,1.912
			c0.228,0.132,0.341,0.294,0.343,0.486c-0.001,0.193-0.114,0.355-0.343,0.487l-9.622,5.555l3.374,1.948l8.935-5.158
			c0.228-0.132,0.509-0.199,0.844-0.199c0.332,0,0.613,0.067,0.842,0.199l3.311,1.912c0.229,0.132,0.345,0.295,0.343,0.486
			c0.001,0.194-0.114,0.355-0.343,0.487l-8.933,5.158l3.499,2.02L356.495,398.034z"/>
		<path style="fill:#455A64;" d="M361.429,382.199c0.228-0.132,0.511-0.198,0.844-0.198c0.333,0,0.614,0.065,0.845,0.199
			l3.155,1.821c0.228,0.132,0.341,0.294,0.342,0.486c-0.001,0.193-0.114,0.355-0.342,0.487l-2.843,1.641
			c-1.916,1.107-1.917,2.212,0,3.318l7.684,4.437c0.229,0.132,0.344,0.295,0.343,0.486c0,0.193-0.114,0.355-0.343,0.487
			l-3.936,2.272c-0.229,0.133-0.51,0.198-0.844,0.198c-0.333,0-0.614-0.065-0.844-0.198l-14.556-8.404
			c-0.23-0.133-0.344-0.295-0.344-0.487c0.001-0.193,0.114-0.354,0.344-0.487l3.624-2.092c0.228-0.132,0.51-0.198,0.843-0.198
			c0.333,0,0.615,0.065,0.845,0.199l0.718,0.414c0.021-0.54,0.223-1.09,0.609-1.65c0.385-0.559,1.046-1.11,1.983-1.651
			L361.429,382.199z"/>
		<path style="fill:#455A64;" d="M376.547,373.471c0.228-0.133,0.511-0.199,0.844-0.199c0.333,0,0.614,0.066,0.845,0.199
			l3.155,1.822c0.229,0.132,0.342,0.295,0.342,0.486c0,0.193-0.113,0.355-0.342,0.487l-2.843,1.641
			c-1.916,1.107-1.917,2.212,0,3.318l7.684,4.437c0.229,0.132,0.344,0.295,0.343,0.486c0,0.193-0.114,0.355-0.343,0.487
			l-3.936,2.272c-0.229,0.133-0.51,0.198-0.844,0.198c-0.332,0.001-0.614-0.065-0.843-0.198l-14.556-8.404
			c-0.23-0.133-0.345-0.295-0.345-0.487c0.001-0.192,0.114-0.354,0.343-0.487l3.624-2.091c0.228-0.132,0.511-0.198,0.843-0.199
			c0.334,0,0.614,0.066,0.845,0.199l0.718,0.415c0.022-0.541,0.224-1.091,0.609-1.651c0.385-0.559,1.046-1.109,1.983-1.65
			L376.547,373.471z"/>
		<path style="fill:#455A64;" d="M403.412,365.968c0.333,0.169,0.744,0.394,1.234,0.676c0.49,0.284,0.879,0.521,1.172,0.713
			c0.957,0.601,1.665,1.274,2.124,2.02c0.457,0.745,0.651,1.519,0.579,2.318c-0.074,0.8-0.439,1.605-1.095,2.416
			c-0.656,0.812-1.62,1.584-2.89,2.318c-1.27,0.734-2.609,1.29-4.013,1.669c-1.406,0.378-2.801,0.59-4.185,0.631
			c-1.386,0.043-2.725-0.069-4.016-0.334c-1.29-0.265-2.457-0.674-3.498-1.227c-0.333-0.168-0.743-0.393-1.234-0.676
			c-0.489-0.283-0.879-0.52-1.172-0.713c-0.978-0.589-1.697-1.257-2.154-2.002c-0.459-0.745-0.646-1.521-0.563-2.326
			c0.083-0.806,0.449-1.617,1.094-2.435c0.645-0.818,1.603-1.593,2.874-2.327c1.271-0.734,2.614-1.286,4.03-1.66
			c1.417-0.372,2.821-0.583,4.217-0.631c1.395-0.048,2.734,0.064,4.014,0.335C401.209,365.003,402.371,365.415,403.412,365.968z
			 M394.292,373.831c0.854,0.421,1.759,0.613,2.717,0.577c0.958-0.036,1.854-0.294,2.687-0.775c0.833-0.48,1.28-0.997,1.343-1.55
			c0.063-0.553-0.271-1.076-1-1.569c-0.271-0.204-0.603-0.421-1.001-0.649c-0.395-0.228-0.77-0.421-1.124-0.578
			c-0.855-0.421-1.759-0.612-2.717-0.577c-0.96,0.037-1.855,0.295-2.688,0.775c-0.833,0.481-1.28,0.999-1.342,1.552
			c-0.063,0.553,0.27,1.076,1,1.569c0.27,0.204,0.603,0.421,0.999,0.649C393.563,373.483,393.936,373.675,394.292,373.831z"/>
		<path style="fill:#455A64;" d="M411.533,353.271c0.229-0.132,0.511-0.198,0.844-0.199c0.333,0.001,0.614,0.066,0.845,0.199
			l3.155,1.822c0.229,0.132,0.342,0.294,0.342,0.486c0,0.193-0.113,0.355-0.342,0.487l-2.843,1.641
			c-1.916,1.107-1.917,2.212,0,3.318l7.684,4.437c0.229,0.132,0.344,0.295,0.343,0.486c0,0.193-0.114,0.355-0.343,0.487
			l-3.936,2.272c-0.229,0.132-0.51,0.198-0.844,0.198c-0.332,0-0.614-0.065-0.843-0.198l-14.556-8.404
			c-0.23-0.133-0.345-0.295-0.345-0.487c0.001-0.193,0.114-0.355,0.343-0.487l3.624-2.092c0.229-0.132,0.511-0.197,0.843-0.197
			c0.333,0,0.615,0.065,0.846,0.198l0.717,0.414c0.022-0.54,0.224-1.09,0.609-1.65c0.385-0.559,1.046-1.109,1.983-1.651
			L411.533,353.271z"/>
	</g>
</g>
<g id="Speech_Bubble">
	<g id="Speech_Bubble_00000029041184811666561180000004130019062498227341_">
		<g id="Speech_Bubble_00000168811938903256229650000006441786807749537171_">
			<g>
				<path style="fill:#BA68C8;" d="M311.254,222.46c0.868-4.063-15.707,5.506-16.574,9.569l5.341,14.375
					c0.204,0.469,0.522,0.816,0.895,1.046c1.174,0.722,5.491,3.157,5.867,3.387c1.182,0.723,2.922,0.27,3.414-1.268l6.918-23.726
					C317.543,223.84,311.254,222.46,311.254,222.46z"/>
				<path style="opacity:0.25;" d="M311.254,222.46c0.868-4.063-15.707,5.506-16.574,9.569l5.341,14.375
					c0.204,0.469,0.522,0.816,0.895,1.046c1.174,0.722,5.491,3.157,5.867,3.387c1.182,0.723,2.922,0.27,3.414-1.268l6.918-23.726
					C317.543,223.84,311.254,222.46,311.254,222.46z"/>
			</g>
			<path style="fill:#BA68C8;" d="M363.083,114.756l-138.276,79.776c-1.229,0.709-2.225,2.433-2.225,3.851v76.04
				c0,1.419,0.998,3.14,2.229,3.844l1.388,0.794c1.231,0.704,3.225,0.7,4.453-0.009l138.277-79.865
				c1.228-0.709,2.224-2.434,2.224-3.853v-75.948c0-1.419-0.998-3.139-2.229-3.844l-1.388-0.794
				C366.306,114.044,364.312,114.047,363.083,114.756z"/>
			<path style="opacity:0.25;" d="M363.083,114.756l-138.276,79.776c-1.229,0.709-2.225,2.433-2.225,3.851v76.04
				c0,1.419,0.998,3.14,2.229,3.844l1.388,0.794c1.231,0.704,3.225,0.7,4.453-0.009l138.277-79.865
				c1.228-0.709,2.224-2.434,2.224-3.853v-75.948c0-1.419-0.998-3.139-2.229-3.844l-1.388-0.794
				C366.306,114.044,364.312,114.047,363.083,114.756z"/>
			<g>
				<path style="fill:#BA68C8;" d="M371.156,119.388v0.873c0-1.575-1.712-2.56-3.082-1.772l-136.586,78.906
					c-0.95,0.539-1.712,1.318-2.235,2.235c-0.017,0.025-0.026,0.043-0.034,0.068l-6.01-3.467c0.411-0.711,0.967-1.336,1.601-1.695
					l138.272-79.779c1.233-0.711,3.228-0.711,4.452-0.008l1.387,0.796C370.154,116.246,371.156,117.967,371.156,119.388z"/>
				<path style="opacity:0.45;fill:#FFFFFF;" d="M371.156,119.388v0.873c0-1.575-1.712-2.56-3.082-1.772l-136.586,78.906
					c-0.95,0.539-1.712,1.318-2.235,2.235c-0.017,0.025-0.026,0.043-0.034,0.068l-6.01-3.467c0.411-0.711,0.967-1.336,1.601-1.695
					l138.272-79.779c1.233-0.711,3.228-0.711,4.452-0.008l1.387,0.796C370.154,116.246,371.156,117.967,371.156,119.388z"/>
			</g>
			<g>
				<path style="fill:#FFFFFF;" d="M369.1,119.012c-0.217,0-0.426,0.058-0.622,0.171L231.89,198.087
					c-1.64,0.947-2.66,2.713-2.66,4.608v74.077c0,0.42,0.088,1.394,0.902,1.394c0.282,0,0.617-0.108,0.97-0.312l70.877-40.92
					l4.43,12.285c0.851,1.952,3.666,1.809,4.315-0.219l5.998-20.584l50.96-29.439c1.848-1.062,2.671-2.137,2.671-3.485v-75.228
					C370.353,119.491,369.703,119.012,369.1,119.012z"/>
				<path style="fill:#BA68C8;" d="M230.133,278.961c-1.03,0-1.697-0.859-1.697-2.189v-74.077c0-2.177,1.172-4.206,3.057-5.295
					l136.588-78.904c0.321-0.184,0.663-0.277,1.02-0.277c0.985,0,2.047,0.783,2.047,2.047v75.228c0,2.16-1.752,3.416-3.07,4.174
					l-50.682,29.279l-5.909,20.277c-0.404,1.262-1.503,2.107-2.804,2.173c-1.296,0.063-2.479-0.663-3.002-1.859l-4.127-11.44
					l-70.054,40.445C231.018,278.82,230.558,278.961,230.133,278.961z M369.1,119.807c-0.076,0-0.15,0.021-0.226,0.065
					l-136.586,78.903c-1.396,0.806-2.263,2.308-2.263,3.92v74.077c0,0.367,0.084,0.578,0.122,0.618
					c0.036-0.018,0.228-0.033,0.559-0.224l71.698-41.395l4.752,13.178c0.29,0.66,0.943,0.88,1.446,0.86
					c0.506-0.026,1.131-0.316,1.367-1.052l6.08-20.869l0.277-0.159l50.96-29.44c2.004-1.151,2.274-2.06,2.274-2.797v-75.228
					C369.558,119.922,369.244,119.807,369.1,119.807z"/>
			</g>
		</g>
		<g>
			<path style="fill:#455A64;" d="M244.693,221.979c0.081-2.375,0.409-4.756,0.991-7.149c0.58-2.392,1.404-4.654,2.47-6.786
				c1.066-2.133,2.361-4.085,3.887-5.861c1.523-1.773,3.284-3.235,5.282-4.389c1.969-1.137,3.724-1.705,5.263-1.7
				c1.538,0.007,2.841,0.459,3.908,1.361c1.066,0.902,1.888,2.212,2.47,3.934c0.58,1.722,0.91,3.722,0.991,6.004
				c0.054,1.755,0.081,3.61,0.081,5.563c0,1.953-0.027,3.797-0.081,5.532c-0.081,2.372-0.411,4.755-0.991,7.147
				c-0.582,2.392-1.404,4.665-2.47,6.819c-1.068,2.152-2.37,4.11-3.908,5.87c-1.538,1.76-3.294,3.211-5.263,4.348
				c-1.997,1.153-3.758,1.732-5.282,1.74c-1.527,0.008-2.822-0.449-3.887-1.37c-1.066-0.923-1.89-2.245-2.47-3.967
				c-0.582-1.722-0.91-3.723-0.991-6.002c-0.055-1.672-0.083-3.485-0.083-5.438C244.611,225.683,244.638,223.797,244.693,221.979z
				 M262.465,222.501c0.027-0.762,0.056-1.61,0.081-2.54c0.027-0.93,0.04-1.871,0.04-2.827c0-0.957-0.013-1.873-0.04-2.752
				c-0.025-0.878-0.054-1.66-0.081-2.352c-0.054-1.008-0.196-1.882-0.424-2.622c-0.228-0.74-0.553-1.311-0.972-1.713
				c-0.419-0.403-0.937-0.613-1.557-0.629c-0.622-0.013-1.35,0.219-2.188,0.702c-0.837,0.483-1.565,1.092-2.186,1.823
				c-0.622,0.734-1.141,1.542-1.558,2.429c-0.421,0.885-0.743,1.831-0.972,2.835c-0.23,1.005-0.373,2.043-0.426,3.113
				c-0.054,0.739-0.088,1.557-0.102,2.457c-0.013,0.903-0.019,1.83-0.019,2.787c0,0.956,0.006,1.886,0.019,2.792
				c0.013,0.906,0.048,1.719,0.102,2.434c0.109,2.016,0.574,3.471,1.398,4.367c0.822,0.897,2.071,0.861,3.743-0.105
				c1.673-0.966,2.916-2.369,3.724-4.207C261.858,226.654,262.33,224.656,262.465,222.501z"/>
			<path style="fill:#455A64;" d="M295.338,201.527c0.027,0.607,0.042,1.399,0.042,2.375c0,0.977-0.015,1.785-0.042,2.425
				c-0.054,2.024-0.352,4.067-0.889,6.124c-0.542,2.056-1.283,4.011-2.228,5.866c-0.945,1.853-2.084,3.54-3.421,5.06
				c-1.337,1.52-2.827,2.756-4.473,3.706c-1.646,0.951-3.138,1.438-4.475,1.46c-1.335,0.024-2.476-0.347-3.421-1.109
				c-0.945-0.764-1.686-1.863-2.226-3.296c-0.54-1.434-0.835-3.133-0.891-5.096c-0.027-0.609-0.04-1.4-0.04-2.378
				c0-0.976,0.013-1.784,0.04-2.422c0.027-2.011,0.311-4.044,0.851-6.101c0.54-2.058,1.289-4.017,2.247-5.878
				c0.957-1.863,2.105-3.565,3.44-5.104c1.337-1.539,2.829-2.787,4.475-3.737c1.646-0.95,3.136-1.425,4.473-1.428
				c1.337-0.004,2.483,0.374,3.442,1.13c0.956,0.755,1.702,1.852,2.226,3.295C294.994,197.862,295.284,199.563,295.338,201.527z
				 M280.601,214.522c0.083,1.533,0.453,2.554,1.114,3.065c0.661,0.514,1.533,0.456,2.612-0.167
				c1.079-0.623,1.949-1.571,2.612-2.848c0.661-1.274,1.031-2.723,1.112-4.351c0.054-0.653,0.08-1.376,0.08-2.165
				c0-0.789-0.027-1.48-0.08-2.071c-0.081-1.532-0.452-2.554-1.112-3.066c-0.663-0.511-1.533-0.456-2.612,0.167
				c-1.079,0.623-1.951,1.574-2.612,2.848c-0.661,1.275-1.031,2.726-1.114,4.352c-0.054,0.653-0.079,1.375-0.079,2.165
				C280.522,213.239,280.547,213.931,280.601,214.522z"/>
			<path style="fill:#455A64;" d="M311.857,211.188c-0.782,0.452-1.471,0.725-2.065,0.818c-0.594,0.093-1.106,0.078-1.538-0.047
				c-0.43-0.126-0.797-0.32-1.093-0.585c-0.298-0.264-0.542-0.529-0.728-0.795v13.277c0,0.457-0.11,0.913-0.325,1.372
				c-0.217,0.457-0.472,0.77-0.768,0.941l-5.103,2.945c-0.298,0.172-0.553,0.155-0.77-0.053c-0.215-0.209-0.323-0.542-0.323-0.999
				v-40.889c0-0.457,0.108-0.912,0.323-1.369c0.217-0.457,0.472-0.772,0.77-0.944l4.9-2.828c0.296-0.171,0.551-0.152,0.77,0.055
				c0.215,0.208,0.323,0.54,0.323,0.997v1.435c0.242-0.555,0.507-1.146,0.789-1.766c0.283-0.62,0.634-1.228,1.053-1.824
				c0.419-0.592,0.932-1.181,1.538-1.76c0.609-0.579,1.356-1.126,2.247-1.641c1.216-0.701,2.36-1.082,3.442-1.144
				c1.077-0.061,2.024,0.264,2.833,0.982c0.81,0.715,1.464,1.825,1.965,3.322c0.499,1.5,0.774,3.459,0.83,5.878
				c0.027,0.609,0.04,1.442,0.04,2.503c0,1.058-0.013,1.909-0.04,2.547c-0.056,2.484-0.33,4.762-0.83,6.836
				c-0.501,2.077-1.154,3.939-1.965,5.592c-0.809,1.652-1.756,3.08-2.833,4.284C314.217,209.534,313.072,210.487,311.857,211.188z
				 M313.679,195.052c0.081-1.211,0.081-2.375,0-3.492c-0.082-1.407-0.394-2.495-0.931-3.263c-0.542-0.769-1.444-0.788-2.714-0.055
				c-0.593,0.343-1.106,0.785-1.538,1.324c-0.43,0.54-0.787,1.131-1.072,1.772c-0.284,0.642-0.507,1.3-0.668,1.975
				c-0.161,0.676-0.271,1.342-0.323,1.995c-0.056,0.656-0.083,1.397-0.083,2.229c0,0.832,0.027,1.542,0.083,2.135
				c0.052,0.591,0.161,1.132,0.323,1.62c0.161,0.489,0.384,0.89,0.668,1.205c0.284,0.314,0.641,0.492,1.072,0.533
				c0.432,0.042,0.945-0.109,1.538-0.452c1.27-0.733,2.172-1.794,2.714-3.187C313.286,198,313.597,196.553,313.679,195.052z"/>
			<path style="fill:#455A64;" d="M336.713,186.489c0-0.457-0.1-0.752-0.303-0.884c-0.202-0.132-0.546-0.14-1.031-0.027
				c-0.488,0.116-1.127,0.319-1.924,0.612c-0.795,0.294-1.788,0.618-2.975,0.971c-2.051,0.602-3.63,0.349-4.736-0.758
				c-1.108-1.105-1.659-3.071-1.659-5.896c0-1.414,0.227-2.853,0.686-4.324c0.459-1.469,1.1-2.899,1.924-4.29
				c0.822-1.389,1.815-2.678,2.977-3.869c1.158-1.188,2.455-2.197,3.886-3.023c1.404-0.811,2.698-1.297,3.887-1.465
				c1.187-0.165,2.211-0.092,3.077,0.219c0.862,0.312,1.544,0.853,2.043,1.624c0.5,0.772,0.776,1.661,0.83,2.669
				c0.027,0.442-0.075,0.896-0.303,1.361c-0.23,0.465-0.494,0.782-0.789,0.953l-4.819,2.782c-0.298,0.172-0.532,0.204-0.707,0.098
				c-0.175-0.107-0.386-0.214-0.628-0.324c-0.242-0.109-0.561-0.154-0.951-0.136c-0.392,0.018-0.939,0.23-1.64,0.636
				c-0.62,0.358-1.139,0.792-1.56,1.305c-0.419,0.513-0.626,1.078-0.626,1.701c0,0.459,0.065,0.772,0.202,0.943
				c0.137,0.172,0.405,0.214,0.809,0.125c0.407-0.086,0.974-0.258,1.702-0.514c0.73-0.254,1.686-0.578,2.875-0.974
				c2.454-0.795,4.242-0.548,5.364,0.736c1.12,1.286,1.679,3.175,1.679,5.668c0,1.414-0.229,2.866-0.688,4.356
				c-0.459,1.49-1.133,2.961-2.024,4.411c-0.889,1.447-1.969,2.81-3.238,4.082c-1.27,1.272-2.714,2.377-4.331,3.311
				c-1.621,0.935-3.044,1.475-4.272,1.623c-1.229,0.149-2.262,0.029-3.098-0.361c-0.835-0.391-1.479-0.975-1.922-1.757
				c-0.446-0.782-0.695-1.656-0.751-2.621c-0.025-0.442,0.075-0.896,0.305-1.361c0.229-0.464,0.492-0.784,0.788-0.954l5.022-2.899
				c0.296-0.171,0.513-0.181,0.647-0.03c0.134,0.151,0.309,0.3,0.526,0.444c0.215,0.146,0.526,0.216,0.93,0.211
				c0.407-0.006,1.014-0.243,1.825-0.711c0.808-0.467,1.509-1.037,2.103-1.712C336.415,187.764,336.713,187.113,336.713,186.489z"/>
			<path style="fill:#455A64;" d="M354.972,170.588c0,0.457-0.109,0.915-0.324,1.372c-0.217,0.457-0.473,0.77-0.768,0.941
				l-5.101,2.945c-0.298,0.172-0.555,0.155-0.77-0.053c-0.217-0.208-0.323-0.542-0.323-0.999v-26.863
				c0-0.457,0.106-0.914,0.323-1.371c0.215-0.457,0.472-0.772,0.77-0.944l5.101-2.945c0.296-0.171,0.551-0.152,0.768,0.055
				c0.215,0.208,0.324,0.541,0.324,0.998V170.588z M354.972,183.989c0,0.457-0.109,0.913-0.324,1.37
				c-0.217,0.459-0.473,0.772-0.768,0.943l-5.101,2.945c-0.298,0.172-0.555,0.154-0.77-0.055c-0.217-0.207-0.323-0.54-0.323-0.997
				v-6.296c0-0.457,0.106-0.912,0.323-1.371c0.215-0.457,0.472-0.77,0.77-0.942l5.101-2.945c0.296-0.171,0.551-0.154,0.768,0.054
				c0.215,0.209,0.324,0.541,0.324,0.998V183.989z"/>
		</g>
	</g>
</g>
<g id="Character">
	<g id="Character_2_">
		<g id="Arm_00000094602732277270658380000008153176723017155243_">
			<path style="fill:#F28F8F;" d="M158.616,216.285c0.702,1.46,1.348,2.969,1.646,4.573c0.733,3.937-0.685,7.909-1.468,11.835
				c-0.265,1.326-0.353,2.544,0.598,3.582c0.196,0.214,0.464,0.415,0.741,0.35c0.239-0.056,0.395-0.291,0.524-0.509
				c0.938-1.591,1.693-3.3,2.244-5.08c0.108,1.693,0.049,3.398-0.176,5.079c-0.179,1.339-0.459,2.735-0.045,4.015
				c0.415,1.281,1.86,2.31,3.001,1.679c0.747-0.413,1.069-1.338,1.329-2.181c0.309-1.003,0.618-2.007,0.926-3.01
				c0.431-1.401,0.863-2.805,1.136-4.249c0.98-5.183-0.224-10.778-3.23-15.018c-0.798-1.125-1.762-2.192-3.01-2.695
				c-1.163-0.469-2.516-0.39-3.621,0.212C158.498,215.256,158.254,215.532,158.616,216.285z"/>
			<path style="fill:#FFA8A7;" d="M171.42,223.158c-0.426-5.247-0.607-10.751-1.586-15.718c-0.98-4.968-3.063-24.078-3.995-29.392
				c-1.226-6.983-2.9-11.382-3.923-15.708c-1.144-4.839-2.101-11.459-4.137-22.04c-2.016-10.477-4.519-16.438-9.729-19.845
				c-4.778-3.124-8.816-3.856-13.026-3.98c-1.181,3.24-0.096,14.587-0.096,14.587s5.051,24.181,5.54,27.143
				c0.49,2.962,5.891,16.566,9.471,27.625c2.054,6.348,5.152,15.275,5.152,15.275c0.935,3.95,1.274,5.212,0.48,8.345
				c-0.335,1.32-0.858,2.578-1.191,3.905c-0.361,1.435-0.583,2.905-0.661,4.383c-0.052,0.996-0.04,1.994-0.088,2.99
				c-0.09,1.854-0.389,3.69-0.606,5.534c-0.159,1.35,0.623,2.175,1.987,1.755c0.986-0.304,1.799-1.194,2.251-2.071
				c0.674-1.308,0.861-2.801,1.189-4.235c0.156-0.686,0.979-4.844,2.307-3.713c1.12,0.954,2.312,4.195,3.785,6.396
				c1.473,2.201,2.227,3.594,1.979,6.946c-0.248,3.352-1.855,7.827-1.311,10.665c0.544,2.839,2.116,3.441,2.687,2.265
				c0.571-1.176,2.307-8.012,2.886-10.369C171.363,231.542,171.824,228.123,171.42,223.158z"/>
			<path style="fill:#455A64;" d="M158.451,219.436c6.092,2.683,13.679,4.147,17.002,17.149c3.323,13.002,7.251,60.763,7.251,60.763
				s-4.307,6.262-13.297,6.262l0.546,13.627c0,0-8.904,4.283-22.162,0.935c-6.432-1.624-10.394-7.499-10.394-7.499
				s1.517-38.576,2.565-53.305C141.01,242.638,142.355,212.247,158.451,219.436z"/>
			<path style="fill:#37474F;" d="M167.259,251.152c0,0,1.617,38.984,2.148,52.458c1.615,0,3.073-0.208,4.388-0.539L167.259,251.152
				z"/>
			<path style="fill:#FFA8A7;" d="M153.63,220.728c-0.09,1.854-0.389,3.69-0.606,5.534c-0.158,1.35,0.623,2.176,1.987,1.755
				c0.986-0.304,1.799-1.194,2.251-2.071c0.673-1.308,0.861-2.801,1.188-4.235c0.12-0.525,0.632-3.083,1.463-3.744l-6.196-0.228
				C153.666,218.734,153.679,219.732,153.63,220.728z M159.914,217.966l0.845,0.031
				C160.448,217.732,160.167,217.764,159.914,217.966z"/>
			<path style="fill:#E6E6E6;" d="M140.643,115.787c9.871,4.059,13.031,7.331,14.905,13.312c1.874,5.981,4.926,21.099,5.911,27.672
				c0.986,6.573,3.467,12.476,4.849,21.065c1.382,8.589,2.745,21.117,2.745,21.117s-1.794,2.296-7.191,2.617
				c-5.397,0.321-8.212-1.625-8.212-1.625s-5.736-17.159-7.907-22.889c-2.171-5.73-7.147-19.971-7.147-19.971L140.643,115.787z"/>
		</g>
		<g id="Bottom_8_">
			<g id="XMLID_1175_">
				<g>
					<polygon points="56.201,354.454 62.79,356.466 63.782,351.721 58.385,352.225 					"/>
					<path style="fill:#263238;" d="M58.014,341.168c0,0-2.764,3.171-3.616,4.184c-0.852,1.013,1.108,7.711,1.803,9.102l2.184-2.229
						c0.216,1.695-0.147,3.355-0.497,5.942c-0.291,2.156-1.37,5.828-0.489,9.575c1.309,5.563,5.662,11.226,11.086,15.725
						c5.425,4.499,9.676,5.588,12.194,5.599c2.518,0.011,4.111-1.018,4.806-2.741C86.18,384.602,58.014,341.168,58.014,341.168z"/>
					<g id="XMLID_1169_">
						<path id="XMLID_1171_" style="fill:#455A64;" d="M81.683,341.307l1.554-1.879c1.052,0.761-0.976,3.652-1.363,7.26
							c-0.521,4.852-0.732,11.269,0.124,16.09c1.689,9.513,4.247,16.639,4.984,20.905c0.988,5.707-8.749,6.075-17.465-1.447
							c-4.326-3.734-10.608-12.189-10.807-16.598c-0.199-4.409,1.618-9.64,1.306-12.973c-0.313-3.332-2.687-8.274-2-11.497
							c0.378-1.77,3.03-4.54,5.376-6.823c2.153-2.095,3.965-6.628,5.068-5.313l-0.794,1.561c-0.251,1.448,0.692,4.816,3.864,8.238
							C73.112,340.539,78.415,344.882,81.683,341.307z"/>
						<path style="opacity:0.15;" d="M74.381,341.18c1.855,1.189,4.171,2.055,6.108,1.047c0.023-0.012,0.047-0.014,0.07-0.026
							c0,0-1.842,1.456-1.681,4.615c0.161,3.159,0.106,24.521,0.106,24.521s-1.043-18.458-1.273-21.96
							c-0.34-5.177-0.924-6.201-3.343-8.199C74.372,341.178,74.376,341.179,74.381,341.18z"/>
					</g>
					<path style="fill:#37474F;" d="M86.981,383.683c-0.622-3.603-2.542-9.253-4.142-16.651c-0.214,2.291,0.272,4.57,0.024,5.188
						c-0.616,1.535-5.715,0.413-8.46-0.74c-2.744-1.153-2.816-6.41-3.904-11.954c-1.087-5.543-6.71-4.372-11.039-1.109
						c-0.407,2.372-0.856,4.908-0.751,7.221c0.199,4.409,6.481,12.864,10.807,16.598C78.232,389.758,87.969,389.391,86.981,383.683z
						"/>
					<g>
						<path style="opacity:0.15;" d="M73.913,346.492c-0.269,0.28-0.714,0.288-0.994,0.019c-0.28-0.269-0.288-0.714-0.019-0.994
							c0.269-0.28,0.714-0.288,0.994-0.019C74.174,345.767,74.182,346.212,73.913,346.492z"/>
						<path style="opacity:0.15;" d="M74.313,351.533c-0.269,0.28-0.714,0.288-0.994,0.019c-0.28-0.269-0.288-0.714-0.019-0.994
							c0.269-0.28,0.714-0.288,0.994-0.019C74.574,350.808,74.583,351.253,74.313,351.533z"/>
						<path style="opacity:0.15;" d="M74.715,356.574c-0.269,0.28-0.714,0.288-0.994,0.019c-0.28-0.269-0.288-0.714-0.019-0.994
							c0.269-0.28,0.714-0.288,0.994-0.019C74.975,355.849,74.984,356.294,74.715,356.574z"/>
						<path style="opacity:0.15;" d="M75.115,361.615c-0.269,0.28-0.714,0.288-0.994,0.019c-0.28-0.269-0.288-0.714-0.019-0.994
							c0.269-0.28,0.714-0.288,0.994-0.019C75.376,360.89,75.385,361.335,75.115,361.615z"/>
						<path style="opacity:0.15;" d="M75.516,366.655c-0.269,0.28-0.714,0.288-0.994,0.019s-0.288-0.714-0.019-0.994
							c0.269-0.28,0.714-0.288,0.994-0.019C75.777,365.931,75.785,366.376,75.516,366.655z"/>
					</g>
					<g>
						<path style="fill:#263238;" d="M73.216,346.214c-0.049-0.044-0.083-0.106-0.091-0.176c-0.019-0.155,0.092-0.296,0.247-0.314
							c0.197-0.024,4.867-0.546,8.216,2.356c0.001,0.001,0.003,0.002,0.004,0.004c0.114,0.103,0.125,0.279,0.024,0.395
							c-0.102,0.118-0.281,0.131-0.399,0.028c-3.162-2.738-7.732-2.227-7.778-2.221C73.355,346.295,73.275,346.267,73.216,346.214z"
							/>
					</g>
					<g>
						<path style="fill:#263238;" d="M73.627,351.246c-0.049-0.044-0.083-0.106-0.091-0.176c-0.019-0.155,0.092-0.296,0.247-0.314
							c0.198-0.024,4.866-0.547,8.216,2.356c0.001,0.001,0.003,0.002,0.004,0.003c0.114,0.103,0.125,0.279,0.024,0.396
							c-0.102,0.118-0.28,0.13-0.399,0.028c-3.156-2.734-7.732-2.227-7.778-2.221C73.765,351.327,73.685,351.298,73.627,351.246z"/>
					</g>
					<g>
						<path style="fill:#263238;" d="M74.018,356.296c-0.049-0.045-0.083-0.106-0.091-0.176c-0.019-0.156,0.092-0.296,0.247-0.314
							c0.198-0.024,4.866-0.546,8.216,2.356c0.001,0.001,0.002,0.002,0.004,0.004c0.114,0.103,0.125,0.279,0.024,0.395
							c-0.102,0.118-0.281,0.131-0.399,0.028c-3.156-2.734-7.732-2.227-7.777-2.221C74.157,356.377,74.077,356.349,74.018,356.296z"
							/>
					</g>
					<g>
						<path style="fill:#263238;" d="M74.419,361.337c-0.049-0.044-0.083-0.106-0.091-0.176c-0.019-0.155,0.091-0.296,0.247-0.314
							c0.198-0.024,4.867-0.547,8.217,2.355c0.001,0.001,0.002,0.002,0.004,0.004c0.114,0.103,0.125,0.279,0.024,0.395
							c-0.102,0.118-0.281,0.131-0.399,0.028c-3.156-2.734-7.733-2.226-7.778-2.221C74.558,361.418,74.477,361.389,74.419,361.337z"
							/>
					</g>
					<g>
						<path style="fill:#263238;" d="M74.821,366.378c-0.049-0.044-0.083-0.106-0.091-0.176c-0.019-0.156,0.092-0.297,0.247-0.314
							c0.197-0.024,4.866-0.547,8.216,2.355c0.001,0.001,0.002,0.002,0.004,0.004c0.114,0.103,0.125,0.279,0.024,0.396
							c-0.102,0.118-0.28,0.131-0.399,0.028c-3.156-2.734-7.732-2.227-7.778-2.222C74.959,366.458,74.879,366.43,74.821,366.378z"/>
					</g>
				</g>
				<path style="fill:#263238;" d="M148.761,195.486c0,0,0.723,12.494,0.098,38.465c-0.523,21.731,1.885,33.012-6.837,46.84
					c-7.788,12.346-56.414,59.526-59.926,63.806c0,0-15.383,1.407-16.14-14.369c0,0,14.332-25.587,21.095-40.1
					c6.763-14.513,15.997-21.466,15.997-21.466L90.424,205.4L148.761,195.486z"/>
				<path d="M95.792,204.487l-5.337,0.907l0.014,0.229l12.174,61.009l0.405,1.529l-0.001,0c0,0-0.034,0.012-0.093,0.034l0.093,0.467
					c0,0-6.571,4.971-12.687,15.233c2.134,5.482,6.375,15.076,6.375,15.076c0.38,1.49-3.919,7.591-1.466,25.953
					c0.176,1.317,0.5,3.24,0.874,5.301c10.937-11.025,25.816-26.074,35.866-37.214c0.494-2.868,1.955-12.325,1.122-19.543
					c-0.837-7.248-4.109-42.648-4.109-42.648s3.831-2.068,8.075-7.428c3.082-3.892,3.772-8.18,3.772-8.18s3.001-8.391,4.172-14.493
					L95.792,204.487z"/>
			</g>
			<g>
				<polygon points="114.98,406.305 121.528,404.159 119.609,399.707 115.484,403.225 				"/>
				<path style="fill:#263238;" d="M108.82,394.395c0,0-0.437,4.183-0.551,5.503c-0.114,1.319,5.343,5.669,6.712,6.408l0.504-3.08
					c1.152,1.262,1.81,2.829,3.012,5.146c1.002,1.931,2.232,5.555,5.109,8.113c4.271,3.797,11.09,5.924,18.115,6.483
					c7.025,0.559,11.129-0.997,13.195-2.436c2.066-1.439,2.777-3.197,2.354-5.007C156.847,413.715,108.82,394.395,108.82,394.395z"
					/>
				<g id="XMLID_1252_">
					<path id="XMLID_00000137093148565343230020000008190399361796792203_" style="fill:#455A64;" d="M128.258,380.891l0.19-2.431
						c1.299,0.017,1.303,3.548,3.063,6.722c2.365,4.268,5.885,9.638,9.359,13.089c6.855,6.809,13.047,11.165,16.104,14.231
						c4.092,4.099-3.661,10.003-15.118,8.865c-5.686-0.565-15.689-3.866-18.389-7.358c-2.7-3.491-4.223-8.816-6.396-11.362
						c-2.173-2.545-6.959-5.221-8.25-8.253c-0.71-1.666-0.135-5.457,0.471-8.674c0.556-2.952-0.57-7.702,1.088-7.261l0.248,1.733
						c0.629,1.329,3.337,3.541,7.9,4.515C120.806,385.194,127.643,385.694,128.258,380.891z"/>
					<path style="opacity:0.15;" d="M122.212,384.988c2.202-0.095,4.594-0.72,5.598-2.658c0.012-0.023,0.031-0.038,0.042-0.062
						c0,0-0.669,2.25,1.281,4.742c1.95,2.491,14.195,19.994,14.195,19.994s-11.473-14.497-13.676-17.229
						c-3.257-4.039-4.324-4.54-7.452-4.783C122.205,384.991,122.208,384.99,122.212,384.988z"/>
				</g>
				<path style="fill:#37474F;" d="M156.973,412.502c-2.582-2.589-7.403-6.105-12.968-11.236c1.143,1.997,2.852,3.581,3.005,4.229
					c0.379,1.61-4.437,3.626-7.345,4.262c-2.908,0.636-5.991-3.623-10.071-7.531c-4.078-3.908-8.004,0.285-9.667,5.445
					c1.032,2.174,2.124,4.507,3.54,6.338c2.7,3.492,12.703,6.793,18.389,7.358C153.313,422.505,161.065,416.602,156.973,412.502z"/>
				<g>
					<path style="opacity:0.15;" d="M124.886,389.602c-0.059,0.384-0.418,0.647-0.802,0.587c-0.384-0.059-0.647-0.418-0.587-0.802
						c0.059-0.384,0.418-0.647,0.802-0.588C124.683,388.859,124.945,389.218,124.886,389.602z"/>
					<path style="opacity:0.15;" d="M128.114,393.495c-0.059,0.383-0.418,0.647-0.802,0.587c-0.383-0.059-0.646-0.418-0.587-0.802
						c0.059-0.384,0.418-0.647,0.802-0.588C127.911,392.751,128.174,393.111,128.114,393.495z"/>
					<path style="opacity:0.15;" d="M131.342,397.387c-0.059,0.384-0.418,0.647-0.802,0.587c-0.383-0.059-0.646-0.418-0.587-0.802
						c0.059-0.384,0.418-0.647,0.802-0.587C131.139,396.644,131.402,397.003,131.342,397.387z"/>
					<path style="opacity:0.15;" d="M134.571,401.279c-0.059,0.384-0.418,0.646-0.802,0.587c-0.384-0.059-0.647-0.418-0.587-0.802
						c0.059-0.384,0.418-0.647,0.802-0.587C134.367,400.536,134.63,400.895,134.571,401.279z"/>
					<path style="opacity:0.15;" d="M137.799,405.171c-0.059,0.384-0.418,0.647-0.802,0.587c-0.384-0.059-0.647-0.418-0.587-0.802
						c0.059-0.384,0.418-0.647,0.802-0.587C137.595,404.429,137.858,404.788,137.799,405.171z"/>
				</g>
				<g>
					<path style="fill:#263238;" d="M124.157,389.776c-0.066-0.008-0.129-0.039-0.175-0.092c-0.105-0.116-0.095-0.296,0.021-0.399
						c0.148-0.133,3.666-3.247,8.075-2.8c0.001,0,0.003,0,0.005,0c0.152,0.019,0.262,0.156,0.247,0.31
						c-0.016,0.155-0.154,0.268-0.31,0.252c-4.161-0.42-7.606,2.628-7.639,2.658C124.317,389.762,124.235,389.785,124.157,389.776z"
						/>
				</g>
				<g>
					<path style="fill:#263238;" d="M127.387,393.655c-0.066-0.008-0.129-0.039-0.176-0.092c-0.105-0.116-0.095-0.295,0.021-0.399
						c0.148-0.133,3.666-3.247,8.076-2.8c0.001,0,0.003,0,0.005,0c0.152,0.019,0.262,0.156,0.247,0.31
						c-0.015,0.155-0.154,0.268-0.31,0.252c-4.155-0.421-7.605,2.628-7.639,2.658C127.547,393.641,127.465,393.665,127.387,393.655z
						"/>
				</g>
				<g>
					<path style="fill:#263238;" d="M130.613,397.56c-0.066-0.008-0.129-0.039-0.176-0.092c-0.105-0.116-0.095-0.296,0.021-0.399
						c0.148-0.133,3.666-3.247,8.076-2.8c0.001,0,0.003,0,0.005,0.001c0.152,0.019,0.263,0.156,0.247,0.31
						c-0.016,0.155-0.154,0.269-0.31,0.253c-4.154-0.421-7.605,2.628-7.639,2.658C130.773,397.546,130.691,397.57,130.613,397.56z"
						/>
				</g>
				<g>
					<path style="fill:#263238;" d="M133.841,401.453c-0.066-0.008-0.129-0.039-0.176-0.092c-0.105-0.116-0.095-0.294,0.021-0.399
						c0.148-0.133,3.666-3.248,8.076-2.802c0.001,0,0.003,0,0.005,0.001c0.152,0.019,0.263,0.156,0.247,0.31
						c-0.016,0.155-0.154,0.268-0.31,0.253c-4.155-0.42-7.606,2.629-7.639,2.659C134.001,401.439,133.919,401.462,133.841,401.453z"
						/>
				</g>
				<g>
					<path style="fill:#263238;" d="M137.07,405.344c-0.066-0.008-0.129-0.039-0.176-0.092c-0.105-0.116-0.095-0.295,0.021-0.399
						c0.148-0.133,3.666-3.247,8.076-2.801c0.001,0,0.003,0,0.005,0.001c0.152,0.019,0.262,0.156,0.247,0.31
						c-0.016,0.155-0.154,0.268-0.31,0.252c-4.154-0.42-7.606,2.627-7.639,2.658C137.23,405.331,137.148,405.354,137.07,405.344z"/>
				</g>
			</g>
			<path style="fill:#263238;" d="M78.753,191.455c0,0-0.351,15.972-0.283,23.182c0.139,14.741,2.972,20.814,6.644,33.211
				c2.981,10.063,15.069,46.963,15.99,50.572c-1.283,7.803-2.638,14.703-0.026,31.733c3.769,24.572,8.049,53.763,8.049,53.763
				c2.25,3.126,17.59,4.257,22.052-0.267c0,0,1.321-78.642,0.843-94.713c-0.415-13.966-6.931-59.767-6.931-59.767
				s20.901-8.791,22.701-33.379L78.753,191.455z"/>
		</g>
		<g id="Top_00000020399596863194484410000013604455611249083277_">
			<g id="Top_21_">
				<g>
					<g>
						<path style="fill:#FAFAFA;" d="M108.021,219.733c-13.157,0-21.994-2.787-29.494-9.31c0.068-14.781,0.306-33.39,0.479-46.996
							l0.062-4.84c0.136-10.846,0.311-17.988,1.584-25.708c0.92-5.58,3.123-12.734,6.307-14.533
							c3.791-2.141,6.346-3.445,12.362-5.978c2.499-1.051,4.11-2.069,5.672-3.593c2.396,0.181,23.406,1.907,35.443,7.463
							c2.711,1.251,11.184,12.314,10.175,27.644c-2.458,37.34-1.622,59.156-1.551,60.839c-1.011,2.558-8.784,12.485-28.155,14.324
							C116.034,219.508,111.819,219.733,108.021,219.733z"/>
						<path style="fill:#E0E0E0;" d="M105.175,109.289c3.23,0.254,23.4,2.023,35.051,7.401c2.639,1.218,10.881,12.066,9.887,27.16
							c-2.412,36.649-1.654,58.364-1.556,60.776c-0.412,0.891-2.246,3.758-6.463,6.749c-3.832,2.718-10.627,6.169-21.237,7.176
							c-4.855,0.461-9.053,0.685-12.836,0.685c-12.926,0-21.631-2.707-28.996-9.039c0.069-14.73,0.305-33.203,0.477-46.728
							l0.062-4.875c0.136-10.824,0.311-17.95,1.577-25.634c0.973-5.904,3.225-12.578,6.061-14.18
							c3.773-2.131,6.317-3.429,12.311-5.952C101.954,111.8,103.629,110.758,105.175,109.289 M104.802,108.263
							c-1.532,1.532-3.118,2.571-5.675,3.647c-6.174,2.599-8.729,3.921-12.414,6.003c-3.51,1.983-5.701,9.72-6.553,14.885
							c-1.278,7.754-1.453,14.834-1.591,25.783c-0.18,14.246-0.467,35.456-0.541,52.068c7.674,6.751,16.56,9.582,29.993,9.582
							c3.9,0,8.183-0.239,12.93-0.689c20.48-1.944,27.9-12.756,28.609-14.739c0,0-1.029-21.766,1.546-60.887
							c1.022-15.527-7.579-26.797-10.463-28.129C127.697,109.811,104.802,108.263,104.802,108.263L104.802,108.263z"/>
					</g>
				</g>
				<g id="Head_00000181063198160928323710000015398661155642775742_">
					<g>
						<g id="XMLID_00000140015731636432161340000004522338302970655105_">
							<g id="XMLID_1168_">
								<path style="fill:#37474F;" d="M105.249,64.223c-6.206,7.019-4.198,15.252-1.962,23.535
									c2.605,9.427,2.762,12.479,8.18,14.841c-1.221-29.607,8.238,6.667,31.974-16.349c4.291-4.161,4.563-17.037-0.642-22.88
									C135.443,55.113,117.385,50.986,105.249,64.223z"/>
								<path style="fill:#FFA8A7;" d="M103.956,97.061c4.326,1.799,6.286-1.175,6.286-1.175l-3.821,11.002
									c0,0-2.41,6.818,3.141,10.154c15.378,9.242,11.894,13.124,17.096,17.614c1.767-2.203,1.537-12.102,1.81-14.711l3.376-10.595
									c0,0,2.793,0.118,5.259-0.237c4.114-0.581,6.449-3.511,7.744-7.937c2.077-7.117,1.761-17.854-0.787-31.766
									c-4.546-3.632-19.634-4.405-29.381,1.574c0.348,8.177-1.868,9.504-1.868,13.025c0,3.954-0.272,4.859-1.477,5.392
									c-1.204,0.533-2.289-1.318-2.779-2.481c-0.823-1.955-1.529-3.214-3.46-3.703c-1.983-0.504-4.082-0.164-5.851,2.437
									C96.501,89.684,100.816,95.755,103.956,97.061z"/>
								<path style="fill:#F28F8F;" d="M131.843,109.349c-4.874-0.24-11.713-2.798-14.472-5.378c-2.76-2.58-4.56-7.604-4.56-7.604
									s-0.076,4.964,3.523,9.343c3.6,4.38,14.482,6.848,14.482,6.848L131.843,109.349z"/>
								<path style="fill:#F28F8F;" d="M129.248,73.312c-0.132,0.009-0.291,0.076-0.294,0.208c-0.003,0.148,0.127,0.175,0.23,0.23
									c0.169,0.09,0.329,0.207,0.48,0.324c0.151,0.118,0.298,0.25,0.386,0.421c0.063,0.122,0.093,0.258,0.116,0.394
									c0.04,0.232,0.045,0.453,0.051,0.684c0.005,0.19,0.162,0.312,0.346,0.16c0.069-0.057,0.113-0.14,0.147-0.223
									c0.107-0.26,0.154-0.53,0.127-0.799c-0.015-0.149-0.053-0.298-0.117-0.444C130.482,73.726,129.856,73.271,129.248,73.312z
									 M136.694,73.612c0.086-0.311-0.243-0.624-0.549-0.516c-0.52,0.184-0.861,0.735-1.026,1.238
									c-0.235,0.719-0.184,1.611,0.404,2.15c0.086,0.078,0.216,0.15,0.311,0.083c0.23-0.162,0.048-0.982,0.061-1.211
									c0.019-0.342,0.123-0.678,0.297-0.972C136.344,74.126,136.613,73.906,136.694,73.612z M132.636,71.863
									c-0.084-0.055-0.161-0.028-0.196,0.066c-0.074,0.201,0.018,0.353,0.105,0.526c0.096,0.192,0.175,0.393,0.239,0.598
									c0.126,0.404,0.191,0.826,0.206,1.249c0.014,0.398-0.016,0.796-0.078,1.189c-0.058,0.37-0.173,0.729-0.23,1.098
									c-0.006,0.037,0.017,0.144,0.074,0.096c0.66-0.553,0.813-1.431,0.8-2.249c-0.007-0.454-0.071-0.919-0.207-1.352
									C133.217,72.658,133.024,72.116,132.636,71.863z"/>
							</g>
							<g id="XMLID_1164_">
								<path id="XMLID_1167_" style="fill:#37474F;" d="M123.87,76.752l4.4-1.693c0.441,1.258-0.186,2.657-1.401,3.124
									C125.654,78.651,124.311,78.01,123.87,76.752z"/>
								<path id="XMLID_1166_" style="fill:#37474F;" d="M137.847,74.392l4.263,2.098c-0.54,1.209-1.931,1.719-3.108,1.139
									C137.825,77.049,137.307,75.6,137.847,74.392z"/>
								<path style="fill:#263238;" d="M128.265,81.29c-0.409-0.989-1.005,0.415-2.191,0.905c-1.187,0.491-2.516-0.117-2.107,0.872
									c0.409,0.989,1.703,1.393,2.89,0.902C128.044,83.479,128.674,82.279,128.265,81.29z"/>
								<path style="fill:#263238;" d="M142.143,82.266c0.243-1.042-1.058-0.247-2.309-0.538c-1.251-0.291-1.978-1.559-2.221-0.516
									c-0.243,1.042,0.575,2.123,1.826,2.415C140.69,83.917,141.9,83.308,142.143,82.266z"/>
								<path id="XMLID_00000049940538088433738770000008291048259187833733_" style="fill:#F28F8F;" d="M131.675,78.899
									l1.786,12.99l6.476-1.498C138.512,86.634,134.489,80.625,131.675,78.899z"/>
								<g>
									<path style="fill:#B16668;" d="M128.706,94.929c-0.3,0.193-0.557,0.438-0.738,0.74c-0.566,0.943,0.24,1.417,1.099,1.498
										c0.945,0.089,1.872,0.357,2.719,0.785c0.408,0.206,0.785,0.458,1.259,0.399c0.259-0.032,0.578-0.21,0.718-0.431
										c0.137-0.215,0.168-0.55,0.132-0.802c-0.144-1.006-0.861-2.094-1.999-2.514C130.848,94.216,129.649,94.322,128.706,94.929z
										"/>
									<path style="fill:#F28F8F;" d="M131.786,97.952c0.211,0.106,0.413,0.223,0.625,0.305c-0.426-1.792-2.023-3.128-3.943-3.138
										c-0.194,0.159-0.371,0.335-0.5,0.55c-0.566,0.943,0.24,1.417,1.099,1.498C130.011,97.256,130.939,97.524,131.786,97.952z"
										/>
								</g>
							</g>
						</g>
					</g>
				</g>
			</g>
			<g>
				<g>
					<path style="fill:#BA68C8;" d="M124.862,141.089c-4.695-3.254-13.473-10.445-20.756-31.785l-2.879,1.976
						c0,0,4.619,21.928,22.936,33.074L124.862,141.089z"/>
					<path style="fill:#BA68C8;" d="M129.341,140.671c1.352-1.839,4.46-14.374,1.35-27.834l2.546,2.451
						c2.625,13.154-0.219,25.391-2.666,29.065L129.341,140.671z"/>
					<path style="fill:#BA68C8;" d="M129.133,147.47c0,0,5.504,38.721,5.727,42.516c0.223,3.795-5.746,13.058-6.558,13.517
						c-0.811,0.459-6.163-8.515-6.231-11.531c-0.068-3.016,3.867-44.542,3.867-44.542L129.133,147.47z"/>
					<path style="fill:#BA68C8;" d="M129.341,140.671c0,0-2.315-0.5-4.479,0.418c-0.845,1.507-1.139,3.848-0.485,4.949
						c0.654,1.101,1.907,2.805,3.426,2.733c1.519-0.072,2.8-2.008,2.992-3.855C131.004,142.916,129.341,140.671,129.341,140.671z"/>
					<path style="opacity:0.2;fill:#FFFFFF;" d="M129.341,140.671c0,0-2.315-0.5-4.479,0.418c-0.845,1.507-1.139,3.848-0.485,4.949
						c0.654,1.101,1.907,2.805,3.426,2.733c1.519-0.072,2.8-2.008,2.992-3.855C131.004,142.916,129.341,140.671,129.341,140.671z"/>
				</g>
				<path style="fill:#F0F0F0;" d="M126.593,134.656c-2.69-3.064-3.629-12.3-5.621-13.847c-1.992-1.547-13.547-8.608-14.628-13.676
					l1.273-3.69c-1.382-0.631-3.241,3.78-8.49,8.468c0,0-0.642,5.355,3.37,11.448c4.733,7.188,8.881,9.599,8.881,9.599
					s5.784-7.462,6.729-7.752C119.053,124.915,123.374,133.56,126.593,134.656z"/>
				<path style="fill:#F0F0F0;" d="M126.593,134.656c1.442-2.513,1.206-12.875,1.614-14.242c0.861-2.883,3.395-10.336,3.395-10.336
					s0.665,0.507,1.139,1.121c4.775,6.184,4.63,15.107,3.321,17.848c-1.383-2.929-4.664-6.703-5.248-5.948
					C130.23,123.852,129.064,133.432,126.593,134.656z"/>
			</g>
			<g>
				<g>
					<g id="Briefcase_00000156569967237714097600000008019537740476757675_">
						<g id="XMLID_00000036214741753049319630000013876888521190180999_">
							<g id="XMLID_00000170964264009152298160000010801169327388214419_">
								<path id="XMLID_00000090997243670107298960000015658060447067572379_" style="fill:#37474F;" d="M108.731,261.197
									l2.339,47.64c0.113,2.31-1.454,3.724-3.394,4.998l-4.869,3.142c-1.344,0.869-2.102,1.177-3.875,0.961
									c-0.776-0.087-2.098-0.651-2.729-0.964c-0.042-0.008-0.074-0.028-0.106-0.047l-0.278-0.143l-52.659-27.05
									c-3.848-1.977-6.349-5.855-6.561-10.176l-2.132-43.38c-0.049-0.988,0.589-2.229,1.428-2.771l8.308-5.351
									c0.828-0.541,2.223-0.61,3.1-0.152l59.735,30.685c0.449,0.218,0.855,0.636,1.159,1.101
									C108.503,260.166,108.707,260.708,108.731,261.197z"/>
								<path id="XMLID_00000007427161011502781650000006780953997152251793_" style="fill:#263238;" d="M108.731,261.197
									l2.339,47.64c0.113,2.31-1.454,3.724-3.394,4.998l-4.869,3.142c-1.344,0.869-2.102,1.177-3.875,0.961
									c-0.776-0.087-2.098-0.651-2.729-0.964l-0.001-0.021c2.043,0.838,3.563-0.279,3.447-2.641l-2.204-44.887
									c-0.037-0.749-0.338-1.568-0.801-2.286l11.553-7.45C108.503,260.166,108.707,260.708,108.731,261.197z"/>
							</g>
							<path id="XMLID_00000005955979175717265410000018275570129353353362_" style="fill:#455A64;" d="M97.448,269.426
								c-0.073-1.493-1.221-3.273-2.551-3.956l-56.458-29.001c-2.232-1.146-3.957-0.034-3.834,2.472l1.99,40.614
								c0.212,4.321,2.713,8.201,6.561,10.178l52.662,27.053c2.232,1.146,3.957,0.034,3.834-2.472L97.448,269.426z"/>
							<g>
								<path style="fill:#BA68C8;" d="M41.511,229.792l59.856,31.072c1.714,0.89,2.838,2.64,2.932,4.568l2.408,49.03l-0.862,0.556
									l-2.433-49.543c-0.079-1.614-1.02-3.078-2.455-3.824l-60.306-31.305L41.511,229.792z"/>
								<path style="opacity:0.2;" d="M103.44,262.758c0.507,0.79,0.812,1.709,0.859,2.673l2.408,49.03l-0.862,0.556l-2.433-49.543
									c-0.04-0.806-0.294-1.575-0.717-2.236L103.44,262.758z"/>
								<path style="opacity:0.2;" d="M102.695,263.239c-0.424-0.662-1.019-1.215-1.737-1.588l-60.306-31.305l0.86-0.554
									l59.856,31.072c0.857,0.445,1.566,1.105,2.073,1.895"/>
							</g>
						</g>
						<g id="XMLID_00000007403475549176482200000011777877000058531770_">
							<path id="XMLID_00000168085238712574926790000003833358578085078935_" style="fill:#BA68C8;" d="M62.479,234.865l0.362,7.377
								l-2.803,1.808l-0.481-9.796c-0.025-0.507,0.317-0.725,0.767-0.495L62.479,234.865z"/>
							<path id="XMLID_00000085230426259356809240000005907916271700416389_" style="opacity:0.4;" d="M62.479,234.865l0.362,7.377
								l-2.803,1.808l-0.481-9.796c-0.025-0.507,0.317-0.725,0.767-0.495L62.479,234.865z"/>
							<path id="XMLID_00000115513883539964669560000017358565005449581732_" style="fill:#BA68C8;" d="M83.112,241.159
								l0.586,11.943l-2.675,1.729l-1.907-0.982l-0.481-9.797c-0.025-0.502-0.412-1.101-0.858-1.331L63.326,235.3l-3.001-1.542
								c-0.451-0.23-0.792-0.012-0.767,0.495l0.481,9.796l-1.912-0.982L57.54,231.13c-0.002-0.05-0.001-0.105,0.006-0.156
								c0.036-0.473,0.34-1.01,0.722-1.253l1.14-0.738c0.422-0.273,1.13-0.307,1.58-0.077l21.267,10.923
								C82.706,240.062,83.087,240.657,83.112,241.159z"/>
							<path id="XMLID_00000147914730314529393280000004983274207043291785_" style="opacity:0.2;" d="M80.437,242.889l0.587,11.943
								l-1.907-0.982l-0.481-9.797c-0.025-0.502-0.412-1.101-0.858-1.331L63.326,235.3l-3.001-1.542
								c-0.451-0.23-0.792-0.012-0.767,0.495l0.481,9.796l-1.912-0.982L57.54,231.13c-0.002-0.05-0.001-0.105,0.006-0.156
								c0.05-0.391,0.367-0.544,0.766-0.339l21.266,10.923C80.025,241.791,80.412,242.386,80.437,242.889z"/>
						</g>
					</g>
				</g>
				<g>
					<path style="fill:#F28F8F;" d="M70.417,233.739l9.061,4.656c-0.113-1.415-0.559-3.285-1.203-3.952
						c-0.944-0.977-5.046-5.004-6.34-4.597C71.314,230.039,70.724,231.74,70.417,233.739z"/>
					<path style="fill:#F28F8F;" d="M70.416,238.949c0.084,0.313,0.175,0.583,0.289,0.824c1.232,2.585,3.857,4.506,3.857,4.506
						c1.064-0.213,2.074-0.919,2.896-1.72L70.416,238.949z"/>
					<path style="fill:#FFA8A7;" d="M84.366,122.254c-6.576,2.887-11.349,7.931-14.746,18.664
						c-3.354,10.596-7.56,23.475-9.224,34.642c-1.664,11.167-3.109,34.5-3.513,41.729c-0.169,3.013-0.467,5.769-0.231,8.774
						c0.13,1.65,0.657,6.077,1.584,9.829c0.373,1.51,1.152,2.949,2.693,3.51c0.389,0.142,0.806,0.223,1.159,0.439
						c0.673,0.413,0.977,1.226,1.535,1.785c0.639,0.642,1.577,0.906,2.482,0.938c0.406,0.015,0.816-0.012,1.218,0.047
						c1.491,0.218,2.582,1.538,4.01,2.019c1.205,0.406,2.138,0.527,3.294,0.075c0.42-0.164,1.198-0.697,1.562-0.964
						c0.275-0.201,1.003-0.928,1.236-1.145c-2.023,0.181-3.476-1.473-4.236-3.03c-0.848-1.736-1.361-3.882-1.413-5.82
						c-0.013-0.473,0.002-0.961,0.198-1.392c0.097-0.214,0.274-0.428,0.509-0.428c0.258,0,0.434,0.25,0.565,0.472
						c0.907,1.543,1.783,3.047,3.207,4.183c0.572,0.456,1.25,0.852,1.981,0.832c0.731-0.02,1.482-0.603,1.45-1.334
						c-0.013-0.291-0.142-0.563-0.265-0.828c-0.991-2.119-1.788-4.328-2.378-6.592c-0.553-2.121-1.089-4.165-2.167-6.104
						c-1.115-2.005-3.714-4.715-3.436-7.035c0.468-3.911,7.692-34.421,7.692-34.421s8.718-26.7,10.808-33.762
						C92.518,138.613,90.694,127.35,84.366,122.254z"/>
					<path style="fill:#E6E6E6;" d="M86.713,117.913c-10.518,5.353-13.07,9.585-15.956,17.556
						c-2.582,7.13-8.337,26.682-9.773,33.643c-2.566,12.445-3.999,36.253-3.999,36.253s1.24,3.427,7.463,4.926
						c6.222,1.499,8.727-0.407,8.727-0.407l6.983-30.241c0,0,10.816-25.104,11.727-28.644
						C93.711,143.894,95.219,122.7,86.713,117.913z"/>
				</g>
			</g>
		</g>
		<g>
			<path style="fill:#455A64;" d="M166.791,97.925c0.254,0.673,0.391,1.381,0.69,2.039c0.286,0.63,0.687,1.215,1.154,1.724
				c0.97,1.057,2.296,1.761,3.731,1.889c3.075,0.273,6.485-2.285,5.782-5.616c-0.072-0.339,0.223-0.585,0.538-0.617
				c2.042-0.202,3.114-2.225,3.099-4.105c-0.017-2.115-1.175-3.946-3.342-4.296c-0.428-0.069-0.862-0.094-1.295-0.074
				c-0.411,0.019-0.841,0.148-1.249,0.113c-0.803-0.069-0.882-1.084-1.218-1.648c-0.921-1.543-2.666-2.412-4.453-2.118
				c-1.07,0.175-2.062,0.769-2.718,1.632c-0.656,0.863-0.91,1.905-1.058,2.959c-0.018,0.126-0.307,0.476-0.385,0.204
				c-0.558-1.946,0.733-4.139,2.423-5.078c1.944-1.079,4.391-0.892,6.084,0.571c0.369,0.318,0.698,0.695,0.967,1.1
				c0.148,0.223,0.271,0.456,0.381,0.7c0.056,0.126,0.181,0.685,0.276,0.744c0.062,0.039,0.5-0.053,0.582-0.059
				c0.253-0.02,0.508-0.029,0.762-0.028c0.578,0.001,1.148,0.055,1.71,0.195c2.306,0.575,3.542,2.589,3.605,4.892
				c0.064,2.323-1.328,4.537-3.592,5.084c0.421,3.674-3.221,6.454-6.708,6.371c-1.736-0.041-3.365-0.774-4.589-1.998
				c-1.057-1.057-2.237-2.854-1.943-4.417C166.085,97.771,166.653,97.561,166.791,97.925z"/>
			<path style="fill:#455A64;" d="M154.272,93.011c1.52-0.605,3.282-0.704,4.888-0.968c0.713-0.117,1.426-0.23,2.14-0.342
				c0.742-0.117,1.511-0.285,2.265-0.267c0.351,0.008,0.155,0.476-0.056,0.557c-0.764,0.292-1.595,0.415-2.396,0.566
				c-0.757,0.142-1.515,0.275-2.274,0.401c-0.724,0.121-1.447,0.241-2.172,0.353c-0.781,0.121-1.648,0.273-2.438,0.175
				C153.99,93.458,154.118,93.073,154.272,93.011z"/>
			<path style="fill:#455A64;" d="M155.565,97.578c0.28-0.118,0.574-0.127,0.873-0.173c0.338-0.052,0.668-0.088,1.01-0.112
				c0.584-0.042,1.169-0.07,1.755-0.097c0.585-0.028,1.171-0.057,1.757-0.064c0.669-0.008,1.438-0.108,2.095,0.047
				c0.321,0.076,0.021,0.546-0.171,0.591c-0.563,0.131-1.172,0.115-1.747,0.15c-0.606,0.037-1.213,0.067-1.819,0.101
				c-0.601,0.033-1.201,0.074-1.801,0.112c-0.28,0.018-0.56,0.042-0.84,0.049c-0.344,0.009-0.864,0.057-1.208-0.041
				C155.194,98.062,155.39,97.651,155.565,97.578z"/>
		</g>
	</g>
</g>
</svg>
