<?xml version="1.0" encoding="UTF-8"?>
<svg xmlns="http://www.w3.org/2000/svg" id="a" width="865.76" height="682.89" viewBox="0 0 865.76 682.89">
  <g>
    <rect x="58.4" y="36.46" width="207.33" height="311" fill="none" stroke="#002346" stroke-miterlimit="10"></rect>
    <rect x="71.51" y="49.58" width="181.1" height="284.77" fill="none" stroke="#002346" stroke-miterlimit="10"></rect>
    <g>
      <rect x="77.76" y="149.72" width="79.94" height="85.12" fill="none" stroke="#002346" stroke-miterlimit="10"></rect>
      <rect x="166.44" y="149.72" width="79.94" height="85.12" fill="none" stroke="#002346" stroke-miterlimit="10"></rect>
    </g>
    <g>
      <rect x="77.76" y="241.74" width="79.94" height="85.12" fill="none" stroke="#002346" stroke-miterlimit="10"></rect>
      <rect x="166.44" y="241.74" width="79.94" height="85.12" fill="none" stroke="#002346" stroke-miterlimit="10"></rect>
    </g>
    <g>
      <rect x="77.76" y="57.7" width="79.94" height="85.12" fill="none" stroke="#002346" stroke-miterlimit="10"></rect>
      <rect x="166.44" y="57.7" width="79.94" height="85.12" fill="none" stroke="#002346" stroke-miterlimit="10"></rect>
    </g>
  </g>
  <g>
    <path d="M636.99,634.03s-8.51,5.32-14.36,7.45c0,0-.99,.33-1.96,.9-.83,.49-.47,1.76,.49,1.76h25.94s6.38,1.06,6.91-5.85c0,0,1.47-14.42,8.71-16.78v22.69h3.15v-24.37s3.43-8.82-3.15-15.39l-7.12-1.78s-5.85,7.98-5.85,8.51-6.91,23.93-12.76,22.87Z" fill="#f69074" stroke="#002346" stroke-miterlimit="10"></path>
    <path d="M758.78,631.9c1.06,4.79-4.79,5.32-4.79,5.32-11.17,1.06-11.7-4.79-11.7-4.79l-1.6-12.76c-1.06-9.04,.53-11.17,.53-11.17l-.12-1.26-2.54-26.39c-4.79-38.82-5.89-68-5.89-68,5.81,.09,28.61,3.12,28.61,3.12l-7.3,85.09c-.44,15.09,3.19,26.48,4.4,29.83,0,.01,0,.02,.01,.03,.23,.65,.38,.99,.38,.99Z" fill="#f1b2c0" stroke="#002346" stroke-miterlimit="10"></path>
    <path d="M636.99,634.03s4.79-7.98,9.04-38.82c0,0,6.84-59.67,12.73-81.15,0,0,20.87-.82,34.3,.35,0,0-8.73,29.22-20.97,58.47l-11.08,27.19c-.38,.94-.22,2.02,.42,2.81l1.28,1.57s-5.52,3-9.24,16.83l-3.19,9.57s-3.72,11.17-13.3,3.19Z" fill="#f1b2c0" stroke="#002346" stroke-miterlimit="10"></path>
    <path d="M663.58,227.72l-.68,4.98s6.23,2.32,15.95-.53c0,0,1.26-8.25,2.3-15.39,0,0,2.11-16.18,.51-23.09l-18.08,34.04Z" fill="#f1b2c0" stroke="#002346" stroke-miterlimit="10"></path>
    <path d="M659.34,225.57l76.34-143.72c.42-.79,1.41-1.06,2.18-.61h0c.7,.42,.96,1.32,.58,2.05l-74.47,144.69c-.93,1.8-3.46,1.91-4.54,.2h0c-.5-.79-.53-1.79-.1-2.62Z" fill="#fff" stroke="#002346" stroke-miterlimit="10"></path>
    <path d="M675.81,198.47c-1.6-4.79-4.25-3.19-4.25-3.19-2.13,1.06-2.13,4.25-2.13,4.25-4.79-.53-4.25,4.79-4.25,4.79-4.79,0-4.25,4.79-4.25,4.79-3.19,0-2.13,4.25-2.13,4.25l1.6,10.1,2.13-3.72s3.55,3.94,4.7-2.02c0,0,3.28,.96,3.28-3.3,0,0,3.19,.53,3.72-2.66,0,0,4.1,.91,3.87-4.43-.03-.78-.18-1.56-.4-2.31l-1.87-6.56Z" fill="#f1b2c0" stroke="#002346" stroke-miterlimit="10"></path>
    <rect x="364.58" y="47.1" width="276.13" height="235.14" rx="19.44" ry="19.44" fill="#e5e6e7" stroke="#002346" stroke-miterlimit="10"></rect>
    <path d="M765.41,642.14c.32,1.36-.4,2.76-1.71,3.26-5.51,2.1-16.09,.33-16.09,.33-7.03-.41-7.06-5.77-6.73-8.12,.16-1.13,.21-2.28,.16-3.42-.41-9.32-2.47-17.18-2.47-17.18-1.6-7.98,2.54-9.77,2.54-9.77l.12,1.26s-1.6,2.13-.53,11.17l1.6,12.76s.53,5.85,11.7,4.79c0,0,5.85-.53,4.79-5.32,0,0-.14-.34-.38-.99,1.23,2.71,5.16,7.37,5.16,7.37,1.09,1.64,1.62,2.9,1.85,3.85Z" fill="#f69074" stroke="#002346" stroke-miterlimit="10"></path>
    <path d="M697.47,332.15s-7.29,7.26-14.21,46.08l-35.87,136.18s83.64,5.52,123.32,5.71l4.03-106.26s3.62-44.75-7.49-61.47c.05-.22-16.06-18.65-16.06-18.65l-53.71-1.6Z" fill="#fbe493" stroke="#002346" stroke-miterlimit="10"></path>
    <path d="M775.27,359.12c4.06-4.36,29.02-31.44,31.75-48.77,0,0,2.66-11.7-6.91-23.4l-21.8-26.59s-6.38-10.64-28.19-15.95l-18.61,5.85-13.83-4.25s-11.17,0-20.21,9.04l-14.06,12.52c-.37,.33-.95,.06-.94-.43l.32-34.75s-12.09-.32-23.98,0l-.16,13.62-.14,37.95s-.92,13.11,9.71,14.17c0,0,9.52,2.04,19.22-6.84,.29-.26,.75-.13,.84,.25l9.19,40.63,53.71,1.6,14.89-44.14,16.49,17.02-16.42,25.09,9.13,27.4Z" fill="#f69074" stroke="#002346" stroke-miterlimit="10"></path>
    <path d="M721.36,228.59s3.23,8.36-3.68,17.4c0,0,0,13.3,6.91,21.27,0,0,8.51-3.72,25.53-22.87,0,0-5.71-1.87-6.31-15.03v-12.52l-.85-4.9-11.4,4.82-10.21,11.81Z" fill="#f1b2c0" stroke="#002346" stroke-miterlimit="10"></path>
    <path d="M772.99,352.27c-8.48,10.02-12.17-3.37-13.46-6.42-.41-.97-1.1-1.8-1.99-2.34-1.61-.97-2.99-.6-4.01,.07-1.02,.67-1.67,1.75-2.02,2.92-.4,1.35-1.15,1.92-1.85,2.14-1.11,.34-2.44-.34-2.91-1.4-.78-1.74,.11-3.92,.11-3.92-.68,.16-1.29,.23-1.81,.24-1.61,.03-2.68-1.63-1.96-3.08,.95-1.89,3.31-3.54,3.31-3.54,2.66-2.66,6.38-2.66,6.38-2.66-.51-.76-1.49-1.16-2.39-1.37-1.05-.24-2.16,.01-3,.7l-3.11,2.55c-.93,.76-2.27,.74-3.17-.04h0c-1.14-.98-1.15-2.73-.03-3.73l2.67-2.37c2.66-2.13,6.38-1.6,6.38-1.6l5.85,1.6c-2.59-3.23-5.76-6.07-7.86-7.8-1.11-.91-1.05-2.63,.12-3.46h0c.8-.57,1.89-.54,2.65,.09l4.56,3.73c4.23,3.8,8.45,9.74,10.01,12.02,.37,.54,1.07,.73,1.67,.47l5.88,17.2Z" fill="#f1b2c0" stroke="#002346" stroke-miterlimit="10"></path>
    <rect x="711.68" y="183.81" width="32.16" height="45.7" rx="15.87" ry="15.87" transform="translate(90.87 -201.65) rotate(16.81)" fill="#f1b2c0" stroke="#002346" stroke-miterlimit="10"></rect>
    <ellipse cx="746.93" cy="211.96" rx="5.85" ry="4.79" transform="translate(265.8 821.33) rotate(-67.55)" fill="#f1b2c0" stroke="#002346" stroke-miterlimit="10"></ellipse>
    <path d="M229.46,618.57l-7.44,20.62s16.56,3.04,35.16-.68l-3.56-19.28-2.18-11.14-9.13-2.03-8.79,4.06-4.06,8.45Z" fill="#fbe493" stroke="#002346" stroke-miterlimit="10"></path>
    <path d="M222.02,639.19s-1.01,5.07,3.04,5.75h28.55s3.95,0,4.09-2.87l-.53-3.55s-17.58,3.72-35.16,.68Z" fill="#fff" stroke="#002346" stroke-miterlimit="10"></path>
    <path d="M231.15,602l-1.69,16.56s.68,2.03,3.04-1.01c0,0,5.07-7.36,12.51-6.21,0,0,5.75-.21,8.23,6.69,.07,.18,.33,.14,.32-.06l-.65-15.97h-21.77Z" fill="#f0f1f1" stroke="#002346" stroke-miterlimit="10"></path>
    <polygon points="231.15 602 230.58 607.57 253.14 607.57 252.91 602 231.15 602" fill="#f1b2c0" stroke="#002346" stroke-miterlimit="10"></polygon>
    <polygon points="243.49 542.39 190.59 542.39 190.59 498.23 185.51 498.23 185.51 641.21 190.59 641.21 190.59 547.37 243.49 547.37 243.49 542.39" fill="#fff" stroke="#002346" stroke-miterlimit="10"></polygon>
    <path d="M187.88,306.02h0c1.59,0,2.87,1.29,2.87,2.87v162.8h-5.75v-162.8c0-1.59,1.29-2.87,2.87-2.87Z" fill="#fff" stroke="#002346" stroke-miterlimit="10"></path>
    <path d="M295.88,497.04v35.49h-89.58v-35.49h-5.75v143.83c0,1.59,1.29,2.87,2.87,2.87s2.87-1.29,2.87-2.87v-103.35h89.58v103.35c0,1.59,1.29,2.87,2.87,2.87s2.87-1.29,2.87-2.87v-143.83h-5.75Z" fill="#fff" stroke="#002346" stroke-miterlimit="10"></path>
    <polygon points="379.88 404.25 379.88 418.2 346.42 418.2 346.42 404.25 341.01 404.25 341.01 640.2 346.42 640.2 346.42 423.86 379.88 423.86 379.88 640.2 385.29 640.2 385.29 404.25 379.88 404.25" fill="#fff" stroke="#002346" stroke-miterlimit="10"></polygon>
    <path d="M263.09,497.04h5.75v143.83c0,1.59-1.29,2.87-2.87,2.87h0c-1.59,0-2.87-1.29-2.87-2.87v-143.83h0Z" fill="#fff" stroke="#002346" stroke-miterlimit="10"></path>
    <rect x="174.7" y="485.72" width="174.42" height="14.2" rx="7.1" ry="7.1" fill="#f0f1f1" stroke="#002346" stroke-miterlimit="10"></rect>
    <rect x="182.3" y="314.84" width="39.55" height="15.89" fill="#f0f1f1" stroke="#002346" stroke-miterlimit="10"></rect>
    <path d="M238.92,301.83s-4.12,2.05-20.48,5.59c0,0-10.95,2.19-30.9,17.06,0,0-9.46,7.1-27.04,22.31,0,0,13.86,1.69,20.28,6.42h23.92l-.26,32.11s1.35,24-12.85,54.42c0,0-9.85,18.39-8.84,24.75,0,.05,.08,.05,.09,0,.28-1.29,2.58-7.25,21.6-17.65,0,0,14.74-7.77,25.12-10.48,0,0,30.32-11.83,42.83,13.86l17.24-3.72,.68-11.83s.68-4.04,0-9.29c0,0-.75-2.06,.3-7.03,0,0,2.74-6.67,2.07-14.44l10.14-28.73,2.37-3.72s-1.69-13.52,21.97-12.51l-21.63-24.34s-8.79-12.51-20.62-16.23c0,0-7.44-2.03-11.16-4.73l-17.41-1.94-5.02-9.89h-12.39Z" fill="#fbe493" stroke="#002346" stroke-miterlimit="10"></path>
    <path d="M327.15,358.96l1.2,1.2c1.79,1.79,3.76,3.38,5.85,4.81,3.86,2.66,10.49,8.52,9.52,16.98,0,0-.44,2-1.51,4.01-.45,.85-1.33,1.4-2.3,1.4h-65.42s-3.45-3.04-5.48-5.75c0,0-1.61-2.89-7.64-1.47-.28,.07-.55,.2-.77,.38-.6,.47-2.06,1.43-4.09,1.43,0,0-.85,3.1-3.57,3.64-.73,.14-1.52-.2-1.82-.88-.17-.38-.21-.88,.06-1.52,0,0-.54,.55-1.44,.89-1.03,.38-2.11-.37-2.03-1.46,.07-.95,.63-2.35,2.37-4.38l5.54-6.12c.43-.48,.82-.99,1.2-1.5,.61-.82,2.3-2.37,6.45-2.86,0,0,2.7-.68,5.75-1.69,0,0,2.91-1.94,14.11,.82,.52,.13,1.03,.3,1.52,.51,1.46,.63,4.75,2.11,7.22,3.5,1.22,.69,2.56,1.11,3.96,1.25,2.49,.25,6.4,.39,9.37-.67,0,0-1.35-13.52,21.97-12.51Z" fill="#f1b2c0" stroke="#002346" stroke-miterlimit="10"></path>
    <path d="M289.63,446.51l29.59-4.42c19.57-2.92,36.73,13.2,35.03,32.91l-10.54,122.6-43.94-1.35,9.46-110.07h-34.82l-2.7,115.82h-44.62l-6.45-116.28h-31.73c-3.31,0-6.2-2.22-7.07-5.41-1.92-7.07,.91-15.81,.91-15.81,0,0,3.98-13.25,46.8-28.13,0,0,31-11.83,42.83,13.86l17.24-3.72Z" fill="#f69074" stroke="#002346" stroke-miterlimit="10"></path>
    <rect x="338.47" y="638" width="57.8" height="5.75" rx="2.87" ry="2.87" fill="#f0f1f1" stroke="#002346" stroke-miterlimit="10"></rect>
    <polygon points="177.06 404.25 177.06 418.2 151.04 418.2 151.04 404.25 145.63 404.25 145.63 640.2 151.04 640.2 151.04 423.86 177.06 423.86 177.06 640.2 182.47 640.2 182.47 404.25 177.06 404.25" fill="#fff" stroke="#002346" stroke-miterlimit="10"></polygon>
    <path d="M304.37,596.4l-1.9,12.37s12.17,1.69,21.3,1.01l1.54-12.74-20.94-.64Z" fill="#f1b2c0" stroke="#002346" stroke-miterlimit="10"></path>
    <path d="M324.45,614.51s-1.01-2.37-.68-4.73c0,0-11.16,.68-21.3-1.01l-2.7,15.55,4.73,2.03s4.73,2.7,7.61-2.61c0,0,6.59-11.93,12.34-9.22Z" fill="#f0f1f1" stroke="#002346" stroke-miterlimit="10"></path>
    <path d="M312.11,623.73c-3.21,5.65-7.61,2.61-7.61,2.61l-4.73-2.03-1.69,12.85,66.93,2.37s.58-3.49-3.65-4.27c-1.17-.21-2.34-.47-3.47-.83-4.1-1.3-12.87-4.52-21.27-10.46,0,0-6.76-4.73-12.17-9.46,0,0-5.23-3.28-12.34,9.22Z" fill="#fbe493" stroke="#002346" stroke-miterlimit="10"></path>
    <path d="M298.08,637.16l-.45,3.13c-.21,1.48,.92,2.82,2.41,2.86l62.41,1.62c1.41,.04,2.58-1.1,2.57-2.52v-2.73s-66.94-2.37-66.94-2.37Z" fill="#fff" stroke="#002346" stroke-miterlimit="10"></path>
    <path d="M217.7,326.85h0c.69-1.06,2.14-1.32,3.15-.56l43.84,31.56c.1,.07,.12,.2,.05,.3l-2.04,3.06c-.07,.1-.21,.13-.31,.06l-44.15-31.44c-.95-.69-1.19-2-.55-2.98Z" fill="#fff" stroke="#002346" stroke-miterlimit="10"></path>
    <rect x="239.43" y="235.5" width="48.23" height="67.19" rx="24.12" ry="24.12" transform="translate(-91.29 142.78) rotate(-26)" fill="#f1b2c0" stroke="#002346" stroke-miterlimit="10"></rect>
    <path d="M246.49,289.09s.21,7.34-7.57,12.74l16.9,20.96s3.95,5.36,7.72,1.67l10.19-10.79s-7.65-3.72-7.88-12c0,0-11.46,.37-19.37-12.57Z" fill="#f1b2c0" stroke="#002346" stroke-miterlimit="10"></path>
    <polygon points="189.57 383.63 190.25 386.34 288.92 386.34 289.5 383.63 242.64 385.66 189.57 383.63" fill="#002346" stroke="#002346" stroke-miterlimit="10"></polygon>
    <path d="M190.11,383.51c3.94-.91,29.05-6.2,53.72,.88,0,0,26.41-7.75,43.88-.88,.08,.03,.06,.15-.03,.15l-45.04,2.01-52.52-2.01c-.09,0-.1-.13-.02-.15Z" fill="#fff" stroke="#002346" stroke-miterlimit="10"></path>
    <rect x="107.77" y="386.68" width="295.44" height="17.58" rx="8.79" ry="8.79" fill="#f0f1f1" stroke="#002346" stroke-miterlimit="10"></rect>
    <path d="M160.5,346.79s-29.75,20.62-19.61,35.16c0,0,6.67,12.17,26.83,5.41,0,0,31.73-12.49,50.11-21.56,1.33-.66,2.79-.98,4.27-.95,2.75,.06,7.73-.21,12.09-2.5,0,0,1.69-1.4,4.73,.31,0,0,7.43,4.03,8.78,0,0,0,4.4,1.71,5.41-1.33,0,0,4.23,.68,2.79-6.59l2.68,1.88c1.12,.79,2.66,.55,3.48-.54h0c.75-.99,.68-2.38-.16-3.28l-6.8-7.26c-2.58-2.76-5.8-4.85-9.37-6.09l-7.35-2.56c-3.34-1.16-7.06-.15-9.35,2.55l-5.66,6.68-42.59,7.1s-4.73-4.39-20.28-6.42Z" fill="#f1b2c0" stroke="#002346" stroke-miterlimit="10"></path>
    <rect x="135.49" y="638.17" width="57.8" height="5.75" rx="2.87" ry="2.87" fill="#f0f1f1" stroke="#002346" stroke-miterlimit="10"></rect>
    <rect x="369.6" y="67.98" width="266.08" height="208.84" rx="17.99" ry="17.99" fill="#fff" stroke="#002346" stroke-miterlimit="10"></rect>
    <circle cx="387.39" cy="57.21" r="2.71" fill="#fff" stroke="#002346" stroke-miterlimit="10"></circle>
    <circle cx="395.39" cy="57.21" r="2.71" fill="#fff" stroke="#002346" stroke-miterlimit="10"></circle>
    <circle cx="403.38" cy="57.21" r="2.71" fill="#fff" stroke="#002346" stroke-miterlimit="10"></circle>
    <rect x="384.69" y="86.54" width="119.89" height="103.65" rx="6.41" ry="6.41" fill="#f69074" stroke="#002346" stroke-miterlimit="10"></rect>
    <rect x="518.11" y="86.93" width="35.19" height="31.71" rx="5.01" ry="5.01" fill="#e5e6e7" stroke="#002346" stroke-miterlimit="10"></rect>
    <rect x="538.61" y="207.98" width="78.12" height="58.01" rx="4.77" ry="4.77" fill="#fbe493" stroke="#002346" stroke-miterlimit="10"></rect>
    <path d="M591.46,254.2c5.49-4.24,9.03-10.89,9.03-18.37,0-1.15-.08-2.28-.25-3.39l-12.15,2.72c.01,.22,.02,.44,.02,.67,0,3.33-1.5,6.31-3.87,8.29l7.21,10.08Zm8.12-24.82c-1.64-5.67-5.38-10.45-10.33-13.43l-6.68,10.61c2.21,1.41,4.41,3.75,5.14,6.34l11.87-3.52Zm-17.22,16.02c-1.51,.8-3.24,1.26-5.08,1.26-5.98,0-10.83-4.85-10.83-10.83s4.85-10.83,10.83-10.83c1.05,0,2.07,.15,3.04,.43l6.74-10.65c-2.97-1.38-6.29-2.16-9.78-2.16-12.82,0-23.2,10.39-23.2,23.2s10.39,23.2,23.2,23.2c4.18,0,8.1-1.11,11.49-3.04l-6.41-10.6Z" fill="#fff" stroke="#002346" stroke-miterlimit="10"></path>
    <g>
      <ellipse cx="753.3" cy="187.47" rx="8.93" ry="8.78" transform="translate(270.24 795.13) rotate(-65.49)" fill="#002346" stroke="#002346" stroke-miterlimit="10"></ellipse>
      <ellipse cx="746.34" cy="190.3" rx="6.87" ry="6.76" transform="translate(263.59 790.46) rotate(-65.49)" fill="#f69074" stroke="#002346" stroke-miterlimit="10"></ellipse>
      <path d="M722.51,192.12c1.09,2.17,3.82,5.98,10.49,9.67,0,0-2.36,4.28,1.3,10.67,1.06,1.85,1.46,4.05,1.01,6.16-.71,3.35-1.75,9.53-8.58,10.82,0,0,2.95,2.2,8.56,2.77,0,0,1.63,4.49,6.79,6.53,2.12,.84,4.6,.43,6.29-1.15,2.26-2.1,4.82-6.53,5.41-15.87,0,0,5.48-31.35-10.73-38.74,0,0-6.93-4.59-14.88-4.03-8.01,.56-15.18,7.26-13.66,17.64l1.51-1.15c1.77-1.57,2.11-1.88,3.47-3.59,.14-.17,.3-.32,.49-.43h0c.91-.56,2.06-.25,2.53,.7Z" fill="#002346" stroke="#002346" stroke-miterlimit="10"></path>
    </g>
    <path d="M688.27,291.52l-1.43-4.44c-1.05-3.27-.28-6.84,2.02-9.39l9.82-10.86" fill="none" stroke="#002346" stroke-linecap="round" stroke-linejoin="round"></path>
    <line x1="682.78" y1="267.77" x2="676.52" y2="276.82" fill="none" stroke="#002346" stroke-linecap="round" stroke-linejoin="round"></line>
    <line x1="660.92" y1="209.11" x2="667.22" y2="217.72" fill="none" stroke="#002346" stroke-linecap="round" stroke-linejoin="round"></line>
    <line x1="665.18" y1="204.32" x2="670.5" y2="214.43" fill="none" stroke="#002346" stroke-linecap="round" stroke-linejoin="round"></line>
    <line x1="669.43" y1="199.53" x2="674.22" y2="211.77" fill="none" stroke="#002346" stroke-linecap="round" stroke-linejoin="round"></line>
    <line x1="766.07" y1="289.6" x2="758.71" y2="282.04" fill="none" stroke="#002346" stroke-linecap="round" stroke-linejoin="round"></line>
    <path d="M746.85,343.32l2.78-2.95c1.39-1.47,3.45-2.12,5.43-1.69l3.66,.78" fill="none" stroke="#002346" stroke-linecap="round" stroke-linejoin="round"></path>
    <path d="M254.12,256.14s.64,15.06-10.29,19.05l-.27,9.02,3.03,6.39s-15.99-1.14-20.55-27.4c0,0-6.35-18.81,6.53-29.39,0,0,18.59-17.43,34.58-2.58,0,0,4.42,3.12,9.47,3.24,7.66,.18,12.06,18.07,1.98,16.09-1.9-.37-3.6-1.35-4.6-3.34,0,0-10.28,7.99-19.88,8.93Z" fill="#002346" stroke="#002346" stroke-miterlimit="10"></path>
    <ellipse cx="240.95" cy="278.85" rx="4.46" ry="5.97" transform="translate(-97.86 133.86) rotate(-26)" fill="#f1b2c0" stroke="#002346" stroke-miterlimit="10"></ellipse>
    <path d="M305.18,371.46s7.47-2.26,12.41-4.16" fill="none" stroke="#002346" stroke-linecap="round" stroke-linejoin="round"></path>
    <line x1="301.05" y1="372.24" x2="288.88" y2="357.01" fill="none" stroke="#002346" stroke-linecap="round" stroke-linejoin="round"></line>
    <path d="M278.9,369s-3.47-2.54-7.82-.38c-1.25,.62-2.61,1.02-3.98,1.29l-1.34,.26s-4.61,1.45-1.04,3.76c0,0,2.43,1.16,7.66-.33,1.87-.53,3.9-.49,5.67,.31,1.02,.46,2.04,1.19,2.8,2.33,0,0,4.94,5.94,13.32,6.4" fill="none" stroke="#002346" stroke-linecap="round" stroke-linejoin="round"></path>
    <line x1="270.58" y1="373.96" x2="261.37" y2="380.14" fill="none" stroke="#002346" stroke-linecap="round" stroke-linejoin="round"></line>
    <path d="M256.5,381.94s-2.48-2.84,.95-6.27l3.1-2.55" fill="none" stroke="#002346" stroke-linecap="round" stroke-linejoin="round"></path>
    <line x1="256.4" y1="376.96" x2="251.74" y2="382.52" fill="none" stroke="#002346" stroke-linecap="round" stroke-linejoin="round"></line>
    <line x1="180.78" y1="353.21" x2="160.5" y2="357.01" fill="none" stroke="#002346" stroke-linecap="round" stroke-linejoin="round"></line>
    <path d="M238.04,352.84s6.78,4.79,9.67,9.82" fill="none" stroke="#002346" stroke-linecap="round" stroke-linejoin="round"></path>
    <path d="M253.12,361.32s-5.95-8.49-11.66-11.91" fill="none" stroke="#002346" stroke-linecap="round" stroke-linejoin="round"></path>
    <path d="M255.91,354.73s-5.74-6.93-10.66-9.55" fill="none" stroke="#002346" stroke-linecap="round" stroke-linejoin="round"></path>
    <path d="M262.64,361.32l2.17-3.26s.09-.04,.11,0l2.97,4.46s-.01,.1-.06,.09l-5.15-1.19s-.07-.07-.04-.11Z" fill="#002346" stroke="#002346" stroke-miterlimit="10"></path>
    <line x1="220.64" y1="485.72" x2="219.63" y2="464.53" fill="none" stroke="#002346" stroke-linecap="round" stroke-linejoin="round"></line>
    <line x1="274.42" y1="486.19" x2="273.74" y2="460.5" fill="none" stroke="#002346" stroke-linecap="round" stroke-linejoin="round"></line>
    <line x1="309.23" y1="486.19" x2="311.38" y2="463.43" fill="none" stroke="#002346" stroke-linecap="round" stroke-linejoin="round"></line>
    <path d="M407.46,102.68v71.82c0,.79,.64,1.43,1.43,1.43h71.69c1.27,0,1.91-1.54,1.01-2.44l-71.69-71.82c-.9-.9-2.44-.26-2.44,1.01Z" fill="none" stroke="#002346" stroke-linecap="round" stroke-linejoin="round"></path>
    <path d="M418.8,110.58s-2.92,8.02-11.34,5.24" fill="none" stroke="#002346" stroke-linecap="round" stroke-linejoin="round"></path>
    <path d="M472.78,164.66s-6.95,4.91-2.63,11.02" fill="none" stroke="#002346" stroke-linecap="round" stroke-linejoin="round"></path>
    <polyline points="407.46 162.73 418.8 162.73 418.8 175.92" fill="none" stroke="#002346" stroke-linecap="round" stroke-linejoin="round"></polyline>
    <path d="M170.16,338.55s18.76,3.96,29.62,11.41" fill="none" stroke="#002346" stroke-linecap="round" stroke-linejoin="round"></path>
    <text transform="translate(392.74 110.4)" fill="#002346" font-family="Barlow-SemiBold, Barlow" font-size="13.7" font-weight="600">
      <tspan x="0" y="0">A</tspan>
    </text>
    <text transform="translate(531.27 107.58)" fill="#002346" font-family="Barlow-SemiBold, Barlow" font-size="13.7" font-weight="600">
      <tspan x="0" y="0">A</tspan>
    </text>
    <rect x="518.11" y="124.61" width="35.19" height="31.71" rx="5.01" ry="5.01" fill="#e5e6e7" stroke="#002346" stroke-miterlimit="10"></rect>
    <text transform="translate(531.27 145.26)" fill="#002346" font-family="Barlow-SemiBold, Barlow" font-size="13.7" font-weight="600">
      <tspan x="0" y="0">B</tspan>
    </text>
    <rect x="518.11" y="160.01" width="35.19" height="31.71" rx="5.01" ry="5.01" fill="#e5e6e7" stroke="#002346" stroke-miterlimit="10"></rect>
    <text transform="translate(531.27 180.66)" fill="#002346" font-family="Barlow-SemiBold, Barlow" font-size="13.7" font-weight="600">
      <tspan x="0" y="0">C</tspan>
    </text>
    <text transform="translate(392.74 178.91)" fill="#002346" font-family="Barlow-SemiBold, Barlow" font-size="13.7" font-weight="600">
      <tspan x="0" y="0">B</tspan>
    </text>
    <text transform="translate(487.51 178.91)" fill="#002346" font-family="Barlow-SemiBold, Barlow" font-size="13.7" font-weight="600">
      <tspan x="0" y="0">C</tspan>
    </text>
    <g>
      <line x1="561.25" y1="94.79" x2="627.11" y2="94.79" fill="none" stroke="#002346" stroke-linecap="round" stroke-linejoin="round"></line>
      <line x1="561.25" y1="102.79" x2="627.11" y2="102.79" fill="none" stroke="#002346" stroke-linecap="round" stroke-linejoin="round"></line>
      <line x1="561.25" y1="110.78" x2="601.99" y2="110.78" fill="none" stroke="#002346" stroke-linecap="round" stroke-linejoin="round"></line>
    </g>
    <g>
      <line x1="561.25" y1="132.47" x2="627.11" y2="132.47" fill="none" stroke="#002346" stroke-linecap="round" stroke-linejoin="round"></line>
      <line x1="561.25" y1="140.47" x2="627.11" y2="140.47" fill="none" stroke="#002346" stroke-linecap="round" stroke-linejoin="round"></line>
      <line x1="561.25" y1="148.46" x2="601.99" y2="148.46" fill="none" stroke="#002346" stroke-linecap="round" stroke-linejoin="round"></line>
    </g>
    <g>
      <line x1="561.25" y1="167.87" x2="627.11" y2="167.87" fill="none" stroke="#002346" stroke-linecap="round" stroke-linejoin="round"></line>
      <line x1="561.25" y1="175.86" x2="627.11" y2="175.86" fill="none" stroke="#002346" stroke-linecap="round" stroke-linejoin="round"></line>
      <line x1="561.25" y1="183.86" x2="601.99" y2="183.86" fill="none" stroke="#002346" stroke-linecap="round" stroke-linejoin="round"></line>
    </g>
    <g>
      <line x1="384.64" y1="223.28" x2="527.44" y2="223.28" fill="none" stroke="#002346" stroke-linecap="round" stroke-linejoin="round"></line>
      <line x1="385.78" y1="236.98" x2="528.58" y2="236.98" fill="none" stroke="#002346" stroke-linecap="round" stroke-linejoin="round"></line>
      <line x1="448.58" y1="250.69" x2="528.58" y2="250.69" fill="none" stroke="#002346" stroke-linecap="round" stroke-linejoin="round"></line>
    </g>
  </g>
</svg>
