<svg id="a34b2483-b408-41ec-8a7f-4b7e340c4e88" data-name="Layer 1" xmlns="http://www.w3.org/2000/svg" width="865.76" height="682.89" viewBox="0 0 865.76 682.89"><path d="M658.57,129.76H534.35a3,3,0,0,0-3,3v31.37a3,3,0,0,0,3,3h11.18v10.34l13-10.34h100a3,3,0,0,0,3-3V132.77A3,3,0,0,0,658.57,129.76Z" fill="#2f2e41"/><path d="M251.91,434.93s-.16,12.58,3.67,15.69a26.62,26.62,0,0,0,7.24-10.32A86.52,86.52,0,0,1,251.91,434.93Z" fill="#0071f2"/><path d="M518.4,584.93,531.74,449.7s59.81,10.66,85.18,0l-5.15,135.23H578l-3.67-90.75L557,584.93Z" fill="#3f3d56"/><path d="M518.4,584.93,531.74,449.7s59.81,10.66,85.18,0l-5.15,135.23H578l-3.67-90.75L557,584.93Z" fill="#2f2e41"/><path d="M271,495.56s-3.31-39.15,19-68.37c0,0,7.72,14.06,41.08,10.75,0,0,16.46-2.92,24.08-7.25,0,0,13.14,28.76,12.31,59.63,0,0-5,87.76-6.62,94.61H329.46S318.71,507.69,317.88,498c0,0,0,64.61,2.76,86.89H287.56S269.25,522.68,271,495.56Z" fill="#2f2e41"/><path d="M268,418.64l1.38-46.86c1.38-27.57,40.73-32.1,40.73-32.1s38.4-4.3,50,2.6l46.59,36.22-3.31,57.79-18.2,17.37s-15.44-27-14.61-32.26l19.3-16s-25.64-17.09-28.12-21.78c0,0-17,32.81-.55,61.2,0,0-15.44,12.69-34.19,14.62,0,0-5.42-79.68,6.53-114.69,0,0-13.63,9-25.18,0,0,0-10.57,21.23-8.64,54.58,0,0,4.69,47.42,0,58.45,0,0-18.35-3.93-21.66-8.61,0,0,2.57-4.93,5.67-16.75,0,0-5,18.19-28.12,18.19C255.58,450.62,267.35,440.15,268,418.64Z" fill="#0071f2"/><path d="M404.75,445.72,383.5,584.93h34.19l21.05-91.18a3.67,3.67,0,0,1,3.57-2.88h0a3.65,3.65,0,0,1,3.57,2.88l21.06,91.18H502.6L482.31,445.72Z" fill="#2f2e41"/><path d="M396.83,435.84v6.75a6.14,6.14,0,0,0,5.4,6.1c14.49,1.75,55.53,7,80,.35a6.76,6.76,0,0,0,4.93-7.09l-.45-5.2L438,424.6Z" fill="#3f3d56"/><path d="M396.83,435.84v6.75a6.14,6.14,0,0,0,5.4,6.1c14.49,1.75,55.53,7,80,.35a6.76,6.76,0,0,0,4.93-7.09l-.45-5.2L438,424.6Z" fill="#0071f2"/><path d="M396.83,435.84v6.75a6.14,6.14,0,0,0,5.4,6.1c14.49,1.75,55.53,7,80,.35a6.76,6.76,0,0,0,4.93-7.09l-.45-5.2L438,424.6Z" fill="#fff" opacity="0.2"/><path d="M489,408.4l-62.49-11-6.86,14.46L417,418.31l21.81,8.88s61.5,23.84,70.08,3.26c0,0,5.19-8.73.29-27.8a21.11,21.11,0,0,1-.43-2.1c-1-6.28-7.06-40.79-27.31-49.25,0,0-14.45-5.88-18.62-6.61H421.13s-30.62,4.32-38.22,27.44c0,0-11,26.92-10.78,46.18,0,0-1.72,19.25,15.68,20,0,0,35.28-.15,51-11.1L417,418.31l2.69-6.48a65.61,65.61,0,0,0-14.91,0s3.4-8.85,3.64-17.43" fill="#0071f2"/><path d="M489,408.4l-62.49-11-6.86,14.46L417,418.31l21.81,8.88s61.5,23.84,70.08,3.26c0,0,5.19-8.73.29-27.8a21.11,21.11,0,0,1-.43-2.1c-1-6.28-7.06-40.79-27.31-49.25,0,0-14.45-5.88-18.62-6.61H421.13s-30.62,4.32-38.22,27.44c0,0-11,26.92-10.78,46.18,0,0-1.72,19.25,15.68,20,0,0,35.28-.15,51-11.1L417,418.31l2.69-6.48a65.61,65.61,0,0,0-14.91,0s3.4-8.85,3.64-17.43" fill="#fff" opacity="0.2"/><path d="M426.52,397.37c-1.83,2.92-2.9,6.33-4.72,9.95a118.18,118.18,0,0,0-4.83,11c5.34,2.32,11,4.55,16.8,6.83,9.27,3.6,20.3,7.6,27.29,9.15,0,0,25.64,7.19,37.93,3.56,0,0,12.51.22,12.26-20.45l-.65-7.71L489,408.4Z" opacity="0.2"/><path d="M425.3,338.36s16.28-5.57,31.76-.28c-1.67,2.8-3.48,5.67-5.47,8.6-3.31,4.9-6.66,9.34-9.92,13.33Z" fill="#0071f2"/><path d="M425.3,338.36s16.28-5.57,31.76-.28c-1.67,2.8-3.48,5.67-5.47,8.6-3.31,4.9-6.66,9.34-9.92,13.33Z" fill="#fff" opacity="0.2"/><path d="M301.76,435.41s6.73,3.41,24.28,2.91l.1-37.08s.54-37.77,7.37-56.48c0,0-13.57,8.71-25.18,0,0,0-9.33,18.14-8.85,43.59-.14,3.12-.23,6.31-.25,9.56A251.25,251.25,0,0,0,301.76,435.41Z" fill="#ccc"/><path d="M298.67,306.32s-4.89-21.92,5.18-26.84c0,0,11-7.73,21.79-1.17,0,0,19.44-3.28,21.55,19,0,0-1.17,31.16,5.38,42.4h-17.8l-39.82,4S301.21,320.75,298.67,306.32Z" fill="#2f2e41"/><path d="M251.91,434.93s-.16,12.58,3.67,15.69c0,0,5-4.92,7.24-10.32C262.82,440.3,255.42,438,251.91,434.93Z" fill="#231f20" opacity="0.2"/><path d="M348.14,436s-8.16,3.57-13.6,4.48a5.63,5.63,0,0,1-5.61-2.48l-2.2-3.31a4.89,4.89,0,0,1-.81-2.7v-1.89a4.9,4.9,0,0,1,2.67-4.37c5.19-2.66,16.71-7.83,23.34-5.09a4.94,4.94,0,0,1,1.77,1.27c1.75,1.9,6.36,6.95,7.09,8.37,0,0,7.06-1,10.66-4.34,0,0,4.72,10.85,5.75,12.87,0,0-13.34,11.1-21.65,5.14C355.55,444,350.31,440.16,348.14,436Z" fill="#f9b499"/><path d="M284,418.31s2.16-17.35.9-27.82c0,0,3.43,17.16,1.63,27.82Z" fill="#231f20" opacity="0.2"/><path d="M278.92,458.74a13.64,13.64,0,0,1-3.83-.55l.2-.61c.32.11,7.86,2.57,10.85-3.69l.62.23A8.15,8.15,0,0,1,278.92,458.74Z" fill="#3f3d56"/><g opacity="0.2"><path d="M365.45,465.09c-17-1.8-17.89-11.73-17.9-11.83l.73-.36c0,.1.61,9.8,17.05,11.54Z" fill="#231f20"/></g><polygon points="429.46 363.8 421.13 344.69 425.3 338.36 438.49 355.81 429.46 363.8" fill="#0071f2"/><polygon points="444.9 356.45 453.72 363.8 462.79 344.69 457.06 338.08 444.9 356.45" fill="#0071f2"/><polygon points="431.65 326.97 429.54 343.97 441.67 360.01 444.9 356.2 453.43 343.49 450.77 326.97 431.65 326.97" fill="#f9b499"/><path d="M408,399.34s13.78-.27,16.83,1.71l-5.12,10.78s-12.25-.93-14.91,0C404.75,411.86,407.54,403.47,408,399.34Z" fill="#f9b499"/><path d="M469.23,404.91s6.54-11.08,17.62-12a11.32,11.32,0,0,1,8.38,2.85h0a4.35,4.35,0,0,1,.15,6.35L489,408.4Z" fill="#f9b499"/><path d="M567.94,318.29s0,.26-.06.71c-.33,3.7-2,20.76-5.73,22.73l1.38,9.35s17.36,4.67,24.53,0v-12s-1.79.13-1.79-1.24l.28-5.52Z" fill="#f9b499"/><path d="M529.89,402.1l3.86,63.41s30.88,11.86,36.12,10.2c0,0,1.65-84.91-1.52-106.42l-12.82-24.6c-5.1-.8-25.07,9.4-30.57,12.28a6.17,6.17,0,0,0-2.32,2.13,176.58,176.58,0,0,0-22,52.76s5,37.39,16.54,53.65c0,0,16.82-4.69,19.57-10.2,0,0-9.92-32.81-12.68-37.77C524.1,417.54,524.93,416.71,529.89,402.1Z" fill="#0071f2"/><path d="M590,475.87l-1.93-104.65,4.23-31.33s33.54,14,36.57,34.37l3.86,17.5,2.76-2.62-6.06,49.68s-7.72,1.6-9.38-7.49l1.11,39.42S610.12,476,590,475.87Z" fill="#0071f2"/><path d="M618.94,399.34l1.1,32s1.29,8.93,9.38,7.49l.49-4S620.23,435,618.94,399.34Z" opacity="0.2"/><path d="M520.68,464.43s1.77,11,8.57,14.31c0,0,10.58-5.32,15.12-9.37,0,0,4,4.23,5.65,4.23h0a3,3,0,0,0,2.5-4.69,27.59,27.59,0,0,0-6.94-6.72,16.94,16.94,0,0,0-9.33-2.63,4.27,4.27,0,0,1-2.93-.83S524.84,464.36,520.68,464.43Z" fill="#f9b499"/><polygon points="666.54 400.66 634.47 397.45 611.77 584.93 645.22 584.93 666.54 400.66" fill="#2f2e41"/><polygon points="624.42 580.2 644.87 398.49 655.51 399.35 635.48 584.93 623.78 584.93 624.42 580.2" fill="#fff" opacity="0.2"/><polygon points="635.48 386.17 634.47 397.45 666.54 400.66 667.68 390.15 635.48 386.17" fill="#2f2e41"/><polygon points="635.48 386.17 634.47 397.45 666.54 400.66 667.68 390.15 635.48 386.17" opacity="0.2"/><path d="M636.52,375l-1,11.21,32.2,4L668.87,378a12.11,12.11,0,0,0-10.93-13.24l-8.23-.77A12.12,12.12,0,0,0,636.52,375Z" fill="#2f2e41"/><path d="M653.89,365.69s-7.12,11.64,10.34,15.74c0,0,8.41,2.8,8.63-7.87,0,0,.86-12.39-14.66-14.12,0,0-13.81-1.74-14.67,5.3a3.61,3.61,0,0,0,3.57,4.06C648.71,368.78,650.94,368.07,653.89,365.69Z" fill="#f9b499"/><path d="M570.3,454.05s.39-68.77-1.95-84.76c0,0-3.71-10.67-4.82-18.21,0,0,18.05,4.53,24.53,0v20.14l1.54,83.13Z" fill="#ccc"/><path d="M199.43,364.65l52.88,6.07a5,5,0,0,1,4.19,3.54l17.13,58.53L259,431.15l-48.37-8.29L196.1,368.52A3.08,3.08,0,0,1,199.43,364.65Z" fill="#2f2e41"/><path d="M249.79,370.43h6.91a3.62,3.62,0,0,1,3.48,2.59L277,428.73l39.64-5.79a2.27,2.27,0,0,1,2.6,2.24h0a2.27,2.27,0,0,1-2,2.25l-43.57,5.36L256.5,374.26S255.58,369.85,249.79,370.43Z" fill="#2f2e41"/><path d="M249.79,370.43h6.91a3.62,3.62,0,0,1,3.48,2.59L277,428.73l39.64-5.79a2.27,2.27,0,0,1,2.6,2.24h0a2.27,2.27,0,0,1-2,2.25l-43.57,5.36L256.5,374.26S255.58,369.85,249.79,370.43Z" fill="#231f20" opacity="0.2"/><polygon points="273.48 417.16 314.42 423.26 276.96 428.73 273.48 417.16" fill="#2f2e41"/><path d="M308.33,344.76s2.75-5.08,2.71-13.58l15.85-8.84,4.6-6.95,3.28,24.29-1.26,5.08S318.27,354.92,308.33,344.76Z" fill="#f9b499"/><path d="M234.57,417.4a7.1,7.1,0,0,0-8.47,9.19c1.29,4,5,8.34,15,8.34,0,0,7.17-.16,10.84,0,0,0,6.66,4.52,10.91,5.37a57,57,0,0,0,3.26-8.64s-15.61.24-20.31-6.46C245.77,425.2,240.44,418.94,234.57,417.4Z" fill="#f9b499"/><path d="M407.35,390.93l.6,8.41s13.58-.16,16.83,1.71l2.55-5.06Z" fill="#0071f2"/><path d="M407.35,390.93l.6,8.41s13.58-.16,16.83,1.71l2.55-5.06Z" fill="#fff" opacity="0.2"/><polygon points="530.15 408.45 537.89 392.26 530.79 418.93 530.15 408.45" opacity="0.2"/><path d="M544.73,461.67s5.66,3.37,7.81,7.24c0,0,1.08,2.25.14,3.24l4.32,1.31v-1a22.18,22.18,0,0,0-16.91-17.65l-8.35-22.38.4,6.51,4.64,16.33a8.52,8.52,0,0,1-3.44,3.42h0a5.8,5.8,0,0,0,2.93.83h0a20.28,20.28,0,0,1,8.46,2.11" opacity="0.2"/><path d="M550.84,355.79l8.83,1.93-1.35,6.08,10,5.49a102,102,0,0,1-4.66-29.4S552,340.9,550.84,355.79Z" fill="#0071f2"/><path d="M550.84,355.79l8.83,1.93-1.35,6.08,10,5.49a102,102,0,0,1-4.66-29.4S552,340.9,550.84,355.79Z" fill="#fff" opacity="0.2"/><path d="M588.06,371.22V339.11s7-2.76,15.62,16.06l-7.66,2.2a1.38,1.38,0,0,0-.89,1.88l2.12,4.81Z" fill="#0071f2"/><path d="M588.06,371.22V339.11s7-2.76,15.62,16.06l-7.66,2.2a1.38,1.38,0,0,0-.89,1.88l2.12,4.81Z" fill="#fff" opacity="0.2"/><line x1="137.27" y1="247.14" x2="750.24" y2="247.14" fill="none" stroke="#ccc" stroke-miterlimit="10" stroke-width="1.97"/><rect x="137.27" y="206.96" width="612.97" height="379.25" rx="6.52" fill="none" stroke="#ccc" stroke-miterlimit="10" stroke-width="1.97"/><path d="M177.67,227.46a5.61,5.61,0,1,1-5.61-5.61A5.61,5.61,0,0,1,177.67,227.46Z" fill="#2f2e41"/><path d="M177.67,227.46a5.61,5.61,0,1,1-5.61-5.61A5.61,5.61,0,0,1,177.67,227.46Z" fill="#fff" opacity="0.2"/><path d="M199.46,227.46a5.61,5.61,0,1,1-5.61-5.61A5.61,5.61,0,0,1,199.46,227.46Z" fill="#ccc"/><path d="M221.25,227.46a5.61,5.61,0,1,1-5.61-5.61A5.61,5.61,0,0,1,221.25,227.46Z" fill="#2f2e41"/><rect x="678.46" y="234.54" width="158.77" height="147.94" rx="5.99" fill="#ededed"/><rect x="678.46" y="234.54" width="158.77" height="147.94" rx="5.99" fill="none" stroke="#ccc" stroke-miterlimit="10" stroke-width="1.97"/><rect x="713.25" y="267.85" width="89.66" height="76.15" rx="6.02" transform="translate(1516.15 611.85) rotate(180)" fill="#ccc"/><polygon points="778.53 318.58 743.48 318.58 737.15 318.58 737.15 290.84 778.53 290.84 778.53 297.77 778.53 318.58" fill="none" stroke="#fff" stroke-linecap="round" stroke-linejoin="round" stroke-width="1.65"/><polyline points="737.15 290.84 757.84 307.14 778.53 290.84" fill="none" stroke="#fff" stroke-linecap="round" stroke-linejoin="round" stroke-width="1.65"/><rect x="27.15" y="358.15" width="151.41" height="133.81" rx="5.71" fill="#ededed"/><rect x="27.15" y="358.15" width="151.41" height="133.81" rx="5.71" fill="none" stroke="#ccc" stroke-miterlimit="10" stroke-width="1.97"/><rect x="58.55" y="381.07" width="87.55" height="85.11" rx="6.64" fill="#ccc"/><path d="M85.35,406.92a24.76,24.76,0,1,0,35,0A24.86,24.86,0,0,0,85.35,406.92Zm35,3.56h-7.88a51.86,51.86,0,0,0-3.07-7.43A22.28,22.28,0,0,1,120.3,410.48ZM93.77,423a39.82,39.82,0,0,1,1.17-9.59h15.83A39.83,39.83,0,0,1,112,423Zm18.08,2.9a47.44,47.44,0,0,1-1.7,9.6H95.57a46.78,46.78,0,0,1-1.71-9.6Zm-9-23.78a22.31,22.31,0,0,1,3.49.27,45,45,0,0,1,3.59,8.12H95.77a45,45,0,0,1,3.59-8.12A22.44,22.44,0,0,1,102.86,402.09Zm-6.49,1a49.66,49.66,0,0,0-3.07,7.43H85.41A22.31,22.31,0,0,1,96.37,403.05ZM83.44,413.38h9A43.24,43.24,0,0,0,91.21,423H80.57A22.17,22.17,0,0,1,83.44,413.38Zm0,22.09a22.26,22.26,0,0,1-2.87-9.6H91.26a46.29,46.29,0,0,0,1.5,9.6Zm2,2.89h8.21a60.17,60.17,0,0,0,3,7.52A22.32,22.32,0,0,1,85.41,438.36Zm17.45,8.39a21.85,21.85,0,0,1-2.93-.19,66.71,66.71,0,0,1-3.46-8.2h12.77a65.19,65.19,0,0,1-3.46,8.2A21.59,21.59,0,0,1,102.86,446.75Zm6.18-.87a58.76,58.76,0,0,0,3.06-7.52h8.2A22.28,22.28,0,0,1,109,445.88Zm13.23-10.41H113a47,47,0,0,0,1.51-9.6h10.68A22.26,22.26,0,0,1,122.27,435.47Zm2.87-12.5H114.5a43.22,43.22,0,0,0-1.26-9.59h9A22.17,22.17,0,0,1,125.14,423Z" fill="#fff"/><path d="M187.72,172H63.26a4.65,4.65,0,0,1-4.66-4.65h0a4.65,4.65,0,0,1,4.66-4.66H187.72a4.66,4.66,0,0,1,4.66,4.66h0A4.66,4.66,0,0,1,187.72,172Z" fill="#ccc"/><path d="M834.94,476H774.53a4.65,4.65,0,0,1-4.65-4.65h0a4.65,4.65,0,0,1,4.65-4.66h60.41a4.66,4.66,0,0,1,4.66,4.66h0A4.66,4.66,0,0,1,834.94,476Z" fill="#ccc"/><rect x="781.74" y="515.9" width="14.41" height="13.95" rx="2.86" fill="#2f2e41"/><rect x="82.01" y="548.15" width="14.41" height="13.95" rx="2.86" fill="#2f2e41"/><line x1="549.08" y1="143.09" x2="636.45" y2="143.09" fill="none" stroke="#fff" stroke-miterlimit="10" stroke-width="1.18"/><line x1="549.08" y1="152.05" x2="584.67" y2="152.05" fill="none" stroke="#fff" stroke-miterlimit="10" stroke-width="1.18"/><path d="M292.59,95.7h64.94a6.46,6.46,0,0,1,6.46,6.46v60.76a6.46,6.46,0,0,1-6.46,6.46H294.65a8.52,8.52,0,0,1-8.52-8.52v-58.7A6.46,6.46,0,0,1,292.59,95.7Z" fill="#ccc"/><path d="M343.22,138l-4.43-4.44a3.88,3.88,0,0,0-2.85-1.34,4.1,4.1,0,0,0-2.85,1.26L330.56,136l-.48-.24a8.25,8.25,0,0,1-.79-.4,27.41,27.41,0,0,1-6.57-6,14.61,14.61,0,0,1-2.06-3.25c.64-.55,1.19-1.19,1.74-1.74l.72-.71a3.87,3.87,0,0,0,0-5.86l-2.22-2.22a7,7,0,0,1-.71-.79l-1.51-1.5a4.07,4.07,0,0,0-2.85-1.27,3.93,3.93,0,0,0-2.85,1.27l-2.77,2.77a6.36,6.36,0,0,0-1.82,3.88,14.43,14.43,0,0,0,1,6,32.44,32.44,0,0,0,6.18,10.37,38.43,38.43,0,0,0,12.66,9.9,21.13,21.13,0,0,0,7.13,2.14h.55a6.3,6.3,0,0,0,4.75-2.06l.08-.08a12,12,0,0,1,1.43-1.43l1-1A4,4,0,0,0,343.22,138Zm-1.82,4.11-.95,1c-.55.48-1,1-1.58,1.59a3.76,3.76,0,0,1-2.85,1.18h-.39a16.73,16.73,0,0,1-6.18-1.9,36,36,0,0,1-11.8-9.26,34.18,34.18,0,0,1-5.77-9.58,9.7,9.7,0,0,1-.95-4.91,3.29,3.29,0,0,1,1.1-2.29l2.7-2.69a1.63,1.63,0,0,1,1.1-.56,1.49,1.49,0,0,1,1.11.56l1.43,1.42a5.89,5.89,0,0,0,.79.79l2.22,2.22a1.9,1.9,0,0,1,.55,1.11,1.71,1.71,0,0,1-.55,1.11l-.72.71-2,2-.08.08a1.73,1.73,0,0,0-.47,2v.07a17.89,17.89,0,0,0,2.61,4.28,29.27,29.27,0,0,0,7.21,6.57,5.42,5.42,0,0,0,1,.55,8.25,8.25,0,0,1,.79.4l.08.08a1.8,1.8,0,0,0,2.21-.4l2.77-2.77a1.71,1.71,0,0,1,1.11-.55,1.68,1.68,0,0,1,1,.55l4.43,4.44A1.48,1.48,0,0,1,341.4,142.1Z" fill="#fff"/><path d="M311,331.18l-.12,3.26a13.36,13.36,0,0,0,12.84-5.13Z" fill="#f4a48e"/><path d="M341.11,310.83c-.75,3.94-3.9,6.62-7,6a4.89,4.89,0,0,1-2.58-1.44c-1.79,9.66-8.12,16.79-15.65,16.79-8.92,0-16.15-10-16.15-22.37s7.23-22.37,16.15-22.37c7.64,0,14,7.33,15.72,17.19a5.48,5.48,0,0,1,5.2-2.06C339.9,303.2,341.85,306.89,341.11,310.83Z" fill="#f9b499"/><path d="M299.69,307.82s1.1-10.11,7.35-12.32c0,0,10.95-4,11.72-7.69,0,0,11.62,9.71,11.62,17.8,0,0,4.76-6.7,9.36-1.14,0,0,4.45,7.47-2.73,12,0,0-3.31,1.72-5.52-1.08,0,0,1.79,21.23,3.28,24.29L344.53,303l-3.27-10.48L325.6,281.72H307.41s-9.94,13.15-9.93,13.84S299.69,307.82,299.69,307.82Z" fill="#2f2e41"/><path d="M431,332.67l.7-5.7s7.82,4.58,13.91,5C445.56,332,443.15,334.94,431,332.67Z" fill="#f4a48e"/><ellipse cx="441.16" cy="309.17" rx="18.15" ry="23.5" fill="#f9b499"/><ellipse cx="461.5" cy="309.26" rx="4.89" ry="6.82" fill="#f9b499"/><ellipse cx="420.49" cy="309.26" rx="4.89" ry="6.82" fill="#f9b499"/><path d="M423.91,306.16s-11.78-11.21,0-19.85c0,0,3.15-15.81,23.18-11.76,0,0,19.45.1,15.7,27.89a33.16,33.16,0,0,1-4.28,3.72s-1.49-9.19-8.84-8.82c0,0-16,.73-19.12-6.25A34.32,34.32,0,0,0,423.91,306.16Z" fill="#2f2e41"/><path d="M586.27,337.87l.1-2.09s-12.78.44-16.07-7.18C570.3,328.6,572.38,338,586.27,337.87Z" fill="#f4a48e"/><path d="M600.12,314.31c0,12.08-7.59,21.87-17,21.87-7.9,0-14.55-7-16.44-16.37a4.47,4.47,0,0,1-2.85,1.06c-3.06,0-5.54-3.29-5.54-7.36s2.48-7.35,5.54-7.35a4.64,4.64,0,0,1,3.16,1.32c2.23-8.73,8.61-15,16.13-15C592.53,292.45,600.12,302.24,600.12,314.31Z" fill="#f9b499"/><path d="M570.16,308l1.48-9.76s8.39,1.56,13.18-1.3c0,0,11.32,8.23,20.32,0,0,0,5.66-5.66,0-13.37,0,0-2.06-6.44-13.89-2.32,0,0-12.6-11.83-23.15,2.83,0,0-12.84-.73-9.78,11.06,0,0-8.5,7.14,1,14.11,0,0-7,15.16,7.94,12.87l-.58-2.32s-4.78,3.34-7.63-2.6c0,0-2.62-6.37,1.88-9.95a4.26,4.26,0,0,1,4.7-.72,15.45,15.45,0,0,0,4.12,1.41Z" fill="#2f2e41"/></svg>