<?xml version="1.0" encoding="UTF-8"?>
<svg xmlns="http://www.w3.org/2000/svg" id="a" width="865.76" height="682.89" viewBox="0 0 865.76 682.89">
  <rect x="180.37" y="51.07" width="502.31" height="326.46" fill="#fbe493" stroke="#002346" stroke-miterlimit="10"></rect>
  <rect x="194.04" y="65.17" width="474.96" height="298.27" fill="#fff" stroke="#002346" stroke-miterlimit="10"></rect>
  <rect x="169.91" y="377.53" width="523.23" height="19.47" fill="#e6e7e8" stroke="#002346" stroke-miterlimit="10"></rect>
  <rect x="528.3" y="361.03" width="45.62" height="11.28" fill="#fff" stroke="#002346" stroke-miterlimit="10"></rect>
  <path d="M102.88,631.82c-6-43,14.76-78.41,14.76-78.41l40.79-1,62.91-2.24,18.79-7.52s2.28,20.62,3.56,39.46l5.19,49.71H102.88Z" fill="#fbe493" stroke="#002346" stroke-miterlimit="10"></path>
  <rect x="242.88" y="596.82" width="13" height="35" fill="#e6e7e8" stroke="#002346" stroke-miterlimit="10"></rect>
  <rect x="732.88" y="596.82" width="13" height="35" fill="#e6e7e8" stroke="#002346" stroke-miterlimit="10"></rect>
  <path d="M741.31,521.83c0,.42-.1,.84-.29,1.21l-12.48,24.69-4.71-2.9,12.42-24.21c.7-1.29,2.31-1.77,3.6-1.08,.84,.46,1.38,1.33,1.4,2.29h.06Z" fill="#231f20" opacity=".2"></path>
  <path d="M760.21,539.02c-1.78,2.27-8.87,10.57-19.17,12.35,0,0-10.06,.17-5.59,6.22,0,0,4.78,2.56,3.2,17.57l-7,10.54-97.16,.3s2.96-24.15-.04-29.26c-.47-.81-1.65-.8-2.15,0l-2.15,3.41c-.15,.93-1.03,1.57-1.96,1.42-.19-.03-.38-.09-.55-.19-3.46-1.88-11-6.81-21.95-18.55-1.12-1.19-1.17-3.03-.12-4.28,5.06-6.28,9.17-13.27,12.18-20.75,0,0,9.14-25,33-24.85h12.5l23.59-1,24.71-6.32-.06,3.88s13.2-4.5,28.84,13.64c0,0,14.61,18.26,20.1,34.67,.13,.42,.05,.87-.22,1.21Z" fill="#fbe493" stroke="#002346" stroke-miterlimit="10"></path>
  <path d="M368.24,350.65c-1.52,.7-2.95,1.57-4.28,2.59l-1.86,1.42c2.64,1.42,3.9,4.52,3,7.38-.05,.18-.11,.36-.18,.55l-.06,.2s2.7,4.81,.6,7.83c0,0,3.31,1.5,.3,8.13,0,0,1.98,5.2-5.96,7.96-1.9,.66-3.7,1.61-5.29,2.84-.86,.67-1.74,1.31-2.64,1.93-.09,.05-.18,.1-.26,.17-3.29,2.3-6.83,4.22-10.54,5.74l-5.13,2.9c-1.19,.68-2.28,1.52-3.23,2.5l-17.29,17.94s-15.91-9-19.1-19.43l18.22-17.13s3-1.81,4.82-10.24c0,0-.9-17.16,7.82-21.67,4.57-3.36,8.48-7.54,11.53-12.33,.83-1.39,1.37-2.94,1.6-4.54,.35-2.54,1.47-6.77,4.88-5.7,.77,.25,1.36,.88,1.57,1.66,1.38,5.97,1.48,12.17,.3,18.19,0,0,32.21-14.15,33.42-9.93,0,0,2.49,4.12-12.24,11.04Z" fill="#f2b3c1" stroke="#002346" stroke-miterlimit="10"></path>
  <path d="M319.34,427.77l-7.96,14.78c-1.53,2.33-2.91,3.19-4.02,3.4-1.47,.28-2.75,1.19-3.28,2.58-2.85,7.4-12.65,21.52-12.65,21.52l-47.4,27.91-3.9,44.69c-2.91,15.18-21.66,15.38-32.89,14.06-2.86-.32-5.7-.8-8.51-1.45-15.3-2.71-25.8,3.3-25.8,3.3-18.87,5.23-33.46,3.43-43,.55-4.37-1.25-8.55-3.1-12.42-5.49l-.66-.46c-5.26-3.8,4-10.18,4.47-10.5h0c-3.83-.51-7.46-.84-9.83-1-1.6-.11-3.21,.07-4.74,.55-4.72,1.45-5.7-.69-5.78-2.52-.09-1.31-1.05-2.39-2.34-2.62l-.4-.09h-.12c-8.36-.32-16.69-5.09-16.69-5.09-3.94-1.66-6.2-6.19-7.36-12,0-.2-.09-.41-.13-.62-3.18-17.3,2.7-45.25,2.7-45.25,4.06-31.1,10.26-61.89,18.57-92.14,6-21.82,21.69-39.39,43.37-45.9,3.35-1.02,6.78-1.72,10.26-2.12,1.78-.18,3.54,.45,4.8,1.72l7.5,4.15,30.83,4.64,8.77-7.95c23.46,2.59,29.65,16.62,29.65,16.62,8.58,13.91,10.79,31.78,11.35,39.86,.24,3.11,.75,6.2,1.52,9.22,2.25,9.51,3.68,19.19,4.27,28.94,1,5.75,6.38,2.4,6.38,2.4l34-28.91c2.84-2.91,4.94-3.94,6.27-4.27,.86-.22,1.76,.2,2.14,1,7.98,8.66,16.91,16.13,21.68,19.93,1.98,1.58,2.55,4.34,1.35,6.57Z" fill="#f69074" stroke="#002346" stroke-miterlimit="10"></path>
  <path d="M153.64,335.57s25.12,26.68,41.6,30.43c0,0,5.9-3.71,5.87-10.86l-.38-18.73h-1.46c-.4,0-.73-.31-.78-.71l-1.26-11.75-7.86-4.74-28.83-10.73c.09,3.61-.17,8.61-1.66,14.34-1.42,5.42-3.48,9.72-5.24,12.75Z" fill="#f2b3c1" stroke="#002346" stroke-miterlimit="10"></path>
  <path d="M194.88,365.82l12.2,6.96c.24,.32,.7,.39,1.02,.14,.12-.09,.21-.22,.26-.36,1.08-3.53,3.63-13.46,1.32-22.46l-4.79-13.09-4.16-.6,.21,10.57c.14,6.75-2.07,13.29-6.02,18.77l-.04,.06Z" fill="#fff" stroke="#002346" stroke-miterlimit="10"></path>
  <path d="M151.72,333.66s24.45,27,43.52,32.34c0,0,1.51-1.21-4.56,12.84,0,0-37.36-13.89-44.39-44.55,1.79-.35,3.61-.56,5.43-.63Z" fill="#fff" stroke="#002346" stroke-miterlimit="10"></path>
  <path d="M269.82,529.8l-56.32,.79-5.89-15.79,5.89-2.67,13.11-13.4c.99-1.08,1.53-2.49,1.51-3.95l19.2-18.68s50.82,4.28,70.82,3.27c.97-.05,1.51,1.1,.85,1.82-6.2,6.77-27.4,29.47-48.46,48.33-.2,.18-.45,.27-.71,.28Z" fill="#fbe493" stroke="#002346" stroke-miterlimit="10"></path>
  <path d="M247.46,476.1l62.33-10.69c.8-.14,1.37,.76,.91,1.43l-8.87,12.61s-32.33-1.06-54.37-3.31c-.02,0-.02-.03,0-.04Z" fill="#fff" stroke="#002346" stroke-miterlimit="10"></path>
  <path d="M663.24,492.93s1.53,2.91-.31,9.37c-.12,.37-.26,.73-.42,1.09-.57,1.27-1.47,5.43,8.11,9.42,0,0,11.74,7.67,22.28-3.35,0,0,13.41-10.3,9.36-23.14l-10.16,2.48-5.26,3.05s-9.19,7.07-23.6,1.08Z" fill="#f2b3c1" stroke="#002346" stroke-miterlimit="10"></path>
  <path d="M624.58,577.3c0,7.67-4.6,4.35-4.6,4.35,0,5.36-4.86,2.3-4.86,2.3-1.79,5.88-7.17,.5-7.17,.5-.76,4.86-6.39,.52-6.39,.52-7.42,3.07-6.39-7.67-6.39-7.67v-.06c-.45-2.21-.6-4.47-.47-6.72,.79-14.58,12.76-26,12.76-26,10.56,11.53,18.78,16.08,18.78,16.08-1.36,1.75-2,5.05-2.28,6.64-.09,.52,.04,1.05,.36,1.46,7.11,9.33,.26,8.6,.26,8.6Z" fill="#f2b3c1" stroke="#002346" stroke-miterlimit="10"></path>
  <path d="M710.1,571.64s-5.62-10.18,3.39-9.5l9.7-.27-13.09,9.77Z" fill="#f2b3c1" stroke="#002346" stroke-miterlimit="10"></path>
  <path d="M648.2,586s-3.44-.94-4.4-10.2c0,0,47.26,10.54,65.78,7.35l.32,2.87-61.7-.02Z" fill="#e6e7e8" stroke="#002346" stroke-miterlimit="10"></path>
  <path d="M794.06,591.99c-.01,3.3-2.7,5.98-6,5.98H206.08c-3.31,0-6-2.69-6-6h0c0-3.31,2.69-6,6-6H788.06c3.32,0,6.01,2.7,6,6.02h0Z" fill="#fff" stroke="#002346" stroke-miterlimit="10"></path>
  <path d="M710.1,571.64l-2.49,10.97c-.04,.17,.17,.27,.28,.14l7.66-8.79-5.46-2.32Z" fill="#fff" stroke="#002346" stroke-miterlimit="10"></path>
  <rect x="149.38" y="221.32" width="74" height="106" rx="37" ry="37" fill="#f2b3c1" stroke="#002346" stroke-miterlimit="10"></rect>
  <path d="M272.63,509.18s-13.91,14.18-26.75,16.33c0,0-7,2.67-16.06,6.43,0,0-4.7,2.79-8.85,4.44-1.8,.72-3.53,1.58-5.25,2.46-3.03,1.57-9.97,3.84-24.73,3.81l-28.26-2.51-22-2c2.57-10.84,6.18-21.41,10.78-31.56,1.86,.95,3.8,1.75,5.79,2.38,6,2,16.72,4.64,32.25,4.72,1.35,.02,2.64-.56,3.52-1.58,3.1-3.6,11.11-12.28,18.47-15,0,0,9.09-5.32,13.55-8.69,.52-.39,1.25-.29,1.64,.23,.07,.09,.12,.19,.16,.29,1,2.46,2.39,7.42-.36,9.78l-13.03,13.41s-1.34,1.6,1.07,2.4c0,0,9.64,.27,16.32-4.81,0,0,17.39-15.79,21.94-13.92,0,0,3.22,1.07,0,4.82,0,0-11.14,9.07-14.7,15.14-.55,.94,.54,1.98,1.46,1.38l10.84-7.16s20.61-13.91,18.46-3.2c0,0,7.49-2.15,3.74,2.4Z" fill="#f2b3c1" stroke="#002346" stroke-miterlimit="10"></path>
  <line x1="268.89" y1="506.78" x2="249.62" y2="519.89" fill="none" stroke="#002346" stroke-linecap="round" stroke-linejoin="round"></line>
  <path d="M225.07,135.15c-.27,0-.5-.2-.55-.46-.07-.3,.12-.6,.42-.67,.02,0,.04,0,.06,0l25.22-4.47c.31-.04,.59,.18,.62,.49,.03,.28-.15,.54-.42,.61l-25.23,4.47-.12,.04Z" fill="#002346" stroke="#002346" stroke-miterlimit="10"></path>
  <path d="M243.2,167.2c-.42,0-.84,0-1.26-.07-4.46-.48-8.16-3.57-11-9.19-2.38-4.85-3.56-10.21-3.44-15.61,0-2.77,.22-5.6,.52-8.44,.06-.3,.35-.5,.65-.45,.27,.05,.46,.29,.46,.57-.3,2.8-.47,5.61-.51,8.34-.1,5.23,1.06,10.4,3.38,15.09,2.64,5.25,6.05,8.14,10.11,8.58,9.54,1,19.84-11.54,19.94-11.66,.17-.26,.52-.32,.78-.15,.26,.17,.32,.52,.15,.78-.02,.02-.03,.05-.05,.07-.47,.51-10,12.14-19.72,12.14Z" fill="#002346" stroke="#002346" stroke-miterlimit="10"></path>
  <path d="M228.58,150.8c-.28,0-.51-.21-.55-.48-.04-.3,.17-.58,.47-.64l16.61-2.55c.31-.01,.57,.23,.58,.54,.01,.26-.16,.5-.41,.56l-16.61,2.56h-.09Z" fill="#002346" stroke="#002346" stroke-miterlimit="10"></path>
  <path d="M280.64,140.58c-.31,0-.57-.23-.58-.54,0-.27,.19-.51,.46-.57l24.59-5.11c.3-.06,.6,.13,.67,.43s-.13,.6-.43,.67l-24.59,5.1-.11,.02Z" fill="#002346" stroke="#002346" stroke-miterlimit="10"></path>
  <path d="M282.23,150.16c-.25,0-.47-.17-.54-.41-.08-.3,.1-.61,.4-.69l22-6.07c.3-.08,.61,.09,.69,.39,.08,.3-.09,.61-.39,.69h0l-22,6.07-.16,.02Z" fill="#002346" stroke="#002346" stroke-miterlimit="10"></path>
  <path d="M323.11,160.38c-.19,0-.37-.1-.47-.26-5.13-8-7-29.06-7.11-30-.03-.31,.19-.58,.5-.61,.31-.02,.58,.2,.61,.51,0,.2,1.64,18.12,5.72,27.15-.61-8.81-1.41-27.15,2.24-27.87,1.52-.31,3.91,1.49,9.18,17.77,.23-6.62,1.12-14.14,4-14.94,1.37-.39,2.87,.71,4.58,3.36,1.05,1.66,1.91,3.44,2.56,5.3,1.54,4.14,2.55,8.46,3,12.86,.06,.3-.14,.6-.44,.66-.3,.06-.6-.14-.66-.44,0-.04-.01-.07,0-.11-.47-4.31-1.48-8.54-3-12.59-.62-1.78-1.45-3.48-2.45-5.07-1.35-2.09-2.54-3.11-3.34-2.89-1.76,.5-3,6.25-3.18,15-.03,.51-.46,.91-.98,.88-.38-.02-.71-.27-.83-.63-5.49-17.18-7.71-18.17-8.24-18.06-2.11,.41-2.24,15.54-1.16,29.32,.03,.26-.13,.5-.37,.58-.05,.04-.1,.07-.15,.09Z" fill="#002346" stroke="#002346" stroke-miterlimit="10"></path>
  <path d="M368,156.64c-.18,0-.35,0-.53,0-6-.54-9.32-10.25-9.46-10.67-3.53-11.11,1-16.86,3.12-18.81,.86-.83,2.01-1.31,3.21-1.35,1.03-.06,2.02,.39,2.66,1.2,1.66,2.18,.42,6.63,.36,6.81-.05,.31-.33,.52-.64,.47s-.52-.33-.47-.64c0-.05,.02-.09,.04-.13,.32-1.14,.92-4.39-.18-5.83-.43-.53-1.1-.81-1.78-.75-.92,.03-1.8,.4-2.46,1.05-2,1.81-6.15,7.15-2.81,17.65,0,.08,3.21,9.42,8.49,9.9,3.37,.32,6.91-3,10.6-9.68,.15-.28,.49-.38,.77-.24,.28,.15,.38,.49,.23,.76-3.74,6.79-7.49,10.25-11.15,10.25Z" fill="#002346" stroke="#002346" stroke-miterlimit="10"></path>
  <path d="M372.6,131.32c-.31-.01-.56-.27-.55-.59,0-.04,0-.09,.02-.13,1.79-5.67,3.03-11.51,3.69-17.42,.15-1.31-.21-2.63-1-3.69-.57-.73-1.11-1-1.59-.95-1.23,.23-2.43,2.88-2.9,4.49-.09,.3-.4,.47-.69,.38-.3-.09-.47-.4-.39-.69,.15-.49,1.47-4.84,3.76-5.28,1.09-.11,2.14,.42,2.69,1.36,.97,1.28,1.41,2.88,1.24,4.48-.63,5.65-1.78,11.22-3.45,16.65l19.77-5.78c.3-.09,.61,.08,.7,.38,.09,.3-.08,.61-.38,.7l-20.76,6.06c-.05,.02-.11,.03-.16,.03Z" fill="#002346" stroke="#002346" stroke-miterlimit="10"></path>
  <g>
    <circle cx="149.98" cy="218.3" r="19.23" fill="#002346" stroke="#002346" stroke-miterlimit="10"></circle>
    <circle cx="162.17" cy="229.14" r="14.79" fill="#f69074" stroke="#002346" stroke-miterlimit="10"></circle>
    <path d="M122.49,323.37c2.29,4.4,6.97,7.06,11.92,6.95,12.24-.3,19.02-8.26,19.02-8.26,11.97,2.98,17.45,1.77,17.45,1.77-12.64-13.57-9.83-26.8-7.03-33.49,1.03-2.45,2.67-4.6,4.79-6.2,14.11-10.63,12.33-21.94,12.33-21.94,16.45-2.59,24.92-8.24,28.8-11.86,.77-.71,1.74-1.07,2.7-1.07,1.16,0,2.3,.51,3.09,1.48,.28,.36,.52,.79,.67,1.24,1.5,4.46,1.99,5.34,4.44,9.8l3.04,5.53c4.98-12.35,.41-40.81-15.65-47.82-2.75-1.2-5.58-2.08-8.34-2.7-4.63-1.03-9.13-1.35-13-1.31-7.2,.06-12.27,1.26-12.27,1.26-38.88,3.07-51.15,70.55-51.15,70.55-5.81,19.34-3.86,30.19-.81,36.09Z" fill="#002346" stroke="#002346" stroke-miterlimit="10"></path>
  </g>
  <path d="M157.76,290.04c-3.65,1.28-8.08-1.88-9.88-7.05-1.69-4.86-.47-9.76,2.72-11.39,.2-.11,.42-.21,.64-.28,1.19-.4,2.48-.38,3.66,.07,2.57,.9,5,3.48,6.22,6.98,1.77,5.17,.29,10.4-3.36,11.67Z" fill="#f2b3c1" stroke="#002346" stroke-miterlimit="10"></path>
  <path d="M121.32,542.65l13.93,2.06c2.31,.34,4.47-1.2,4.91-3.49l.58-3.06" fill="none" stroke="#002346" stroke-linecap="round" stroke-linejoin="round"></path>
  <path d="M140.85,422.21s-5.98,9.53-5.99,19.21c0,5.59-1.37,11.12-4.07,16.02-.04,.07-.08,.15-.12,.22-2.84,5.08-4.89,10.59-5.54,16.38-.68,6.07-.05,13.08,4.61,18.25,1.33,1.47,2.99,2.6,4.83,3.34,3.97,1.61,13.18,5.76,16.94,10.97" fill="none" stroke="#002346" stroke-linecap="round" stroke-linejoin="round"></path>
  <path d="M203.92,423s-4.38,43.26-34.71,56.54" fill="none" stroke="#002346" stroke-linecap="round" stroke-linejoin="round"></path>
  <path d="M284.88,424.82s11,15,21,21" fill="none" stroke="#002346" stroke-linecap="round" stroke-linejoin="round"></path>
  <path d="M246.38,438.32s-2,31-12,48" fill="none" stroke="#002346" stroke-linecap="round" stroke-linejoin="round"></path>
  <line x1="347.06" y1="349.54" x2="338.38" y2="354.32" fill="none" stroke="#002346" stroke-linecap="round" stroke-linejoin="round"></line>
  <line x1="362.1" y1="354.66" x2="343.38" y2="362.32" fill="none" stroke="#002346" stroke-linecap="round" stroke-linejoin="round"></line>
  <line x1="365.1" y1="362.66" x2="346.38" y2="370.32" fill="none" stroke="#002346" stroke-linecap="round" stroke-linejoin="round"></line>
  <line x1="365.1" y1="370.66" x2="346.38" y2="378.32" fill="none" stroke="#002346" stroke-linecap="round" stroke-linejoin="round"></line>
  <line x1="365.1" y1="378.66" x2="349.88" y2="384.82" fill="none" stroke="#002346" stroke-linecap="round" stroke-linejoin="round"></line>
  <rect x="638.38" y="401.32" width="68" height="94" rx="34" ry="34" fill="#f2b3c1" stroke="#002346" stroke-miterlimit="10"></rect>
  <g>
    <circle cx="706.14" cy="395.54" r="17.47" fill="#002346" stroke="#002346" stroke-miterlimit="10"></circle>
    <circle cx="695.06" cy="405.39" r="13.44" fill="#f69074" stroke="#002346" stroke-miterlimit="10"></circle>
    <path d="M731.11,491c-2.08,4-6.33,6.42-10.83,6.32-11.12-.27-17.28-7.51-17.28-7.51-10.88,2.71-15.86,1.61-15.86,1.61,11.48-12.33,8.93-24.35,6.39-30.43-.93-2.23-2.42-4.18-4.35-5.64-12.82-9.66-11.21-19.94-11.21-19.94-14.95-2.35-22.64-7.49-26.17-10.78-.7-.65-1.58-.97-2.45-.97-1.06,0-2.09,.46-2.81,1.34-.26,.32-.48,.71-.61,1.12-1.36,4.05-1.8,4.85-4.03,8.9l-2.76,5.02c-4.53-11.22-.37-37.08,14.22-43.45,2.5-1.09,5.07-1.89,7.58-2.45,4.2-.94,8.29-1.23,11.81-1.19,6.54,.05,11.15,1.14,11.15,1.14,35.33,2.79,46.48,64.1,46.48,64.1,5.28,17.57,3.51,27.43,.73,32.79Z" fill="#002346" stroke="#002346" stroke-miterlimit="10"></path>
  </g>
  <ellipse cx="708.88" cy="449.92" rx="9.49" ry="6.64" transform="translate(128.88 1057) rotate(-78.71)" fill="#f2b3c1" stroke="#002346" stroke-miterlimit="10"></ellipse>
  <path d="M594.88,573.82s3.5-9.5,12.5-8.5" fill="none" stroke="#002346" stroke-linecap="round" stroke-linejoin="round"></path>
  <line x1="632.3" y1="556.73" x2="641.88" y2="542.82" fill="none" stroke="#002346" stroke-linecap="round" stroke-linejoin="round"></line>
  <line x1="607.95" y1="584.45" x2="602.38" y2="578.32" fill="none" stroke="#002346" stroke-linecap="round" stroke-linejoin="round"></line>
  <line x1="615.12" y1="583.95" x2="607.38" y2="575.32" fill="none" stroke="#002346" stroke-linecap="round" stroke-linejoin="round"></line>
  <line x1="620.12" y1="581.95" x2="612.38" y2="573.32" fill="none" stroke="#002346" stroke-linecap="round" stroke-linejoin="round"></line>
  <line x1="624.58" y1="577.3" x2="619.38" y2="571.32" fill="none" stroke="#002346" stroke-linecap="round" stroke-linejoin="round"></line>
  <path d="M735.45,557.59s-13.07-13.27-18.07-25.27" fill="none" stroke="#002346" stroke-linecap="round" stroke-linejoin="round"></path>
  <path d="M759.11,540.35s11.62,24,11.77,33.79c.02,1.76-.89,3.39-2.39,4.31-5,3.12-19.72,11.25-32,7.52l-1.61-18.24c.39,.04,.78,.04,1.17,0,2.39-.17,4.18-2.25,4-4.63-.05-.63-.23-1.24-.53-1.79-.82-1.73-2.28-3.07-4.07-3.74,0,0-4.91-5.92,5.59-6.22,0,.02,7.58-.28,18.07-11Z" fill="#f2b3c1" stroke="#002346" stroke-miterlimit="10"></path>
  <path d="M741.31,521.83c0,.42-.1,.84-.29,1.21l-12.48,24.69-8.49,16.79-10,7.16,13.78-26.85,12.42-24.21c.7-1.29,2.31-1.77,3.6-1.08,.84,.46,1.38,1.33,1.4,2.29h.06Z" fill="#f69074" stroke="#002346" stroke-miterlimit="10"></path>
  <path d="M712.06,578.67c-1.39-.23-2.6-1.09-3.28-2.33-.71-1.68-.16-3.63,1.32-4.7l13.92-10.54c1.33-1.04,3.04-1.45,4.7-1.14,1.99,.3,3.39,2.11,3.19,4.11,2.76,.52,4.59,3.16,4.11,5.93,0,0,4.11,5.25,.91,8.44,0,0,2.74,8.45-3.88,8.9,0,0-9.12,2.74-9.35-1.59,0,0-8.21,3.65-8-1.83,.01,0-4.55,.23-3.64-5.25Z" fill="#f2b3c1" stroke="#002346" stroke-miterlimit="10"></path>
  <line x1="712.06" y1="578.67" x2="724.38" y2="570.32" fill="none" stroke="#002346" stroke-linecap="round" stroke-linejoin="round"></line>
  <line x1="715.7" y1="583.92" x2="728.88" y2="576.82" fill="none" stroke="#002346" stroke-linecap="round" stroke-linejoin="round"></line>
  <line x1="723.7" y1="585.75" x2="729.88" y2="582.82" fill="none" stroke="#002346" stroke-linecap="round" stroke-linejoin="round"></line>
  <g>
    <path d="M551.37,178.24c.03,.7-.52,1.28-1.22,1.31,0,0-.02,0-.02,0-.7,.02-1.29-.54-1.31-1.24-.02-.7,.54-1.29,1.24-1.31h0c.7-.03,1.28,.52,1.31,1.22,0,0,0,.02,0,.02Z" fill="#e0e0e0"></path>
    <ellipse cx="490.42" cy="208.39" rx="95.82" ry="30.55" transform="translate(-3.71 407.82) rotate(-45)" fill="none" stroke="#002346" stroke-linecap="round" stroke-linejoin="round"></ellipse>
    <ellipse cx="492.94" cy="208.51" rx="13.18" ry="100.38" transform="translate(-38.21 274.4) rotate(-30)" fill="none" stroke="#002346" stroke-linecap="round" stroke-linejoin="round"></ellipse>
    <ellipse cx="492.17" cy="207.73" rx="100.38" ry="9.08" transform="translate(-10.08 25.72) rotate(-2.96)" fill="none" stroke="#002346" stroke-linecap="round" stroke-linejoin="round"></ellipse>
    <circle cx="491.16" cy="208.42" r="19.18" fill="#f69074" stroke="#002346" stroke-miterlimit="10"></circle>
    <circle cx="420.97" cy="275.72" r="11.21" fill="#fbe493" stroke="#002346" stroke-miterlimit="10"></circle>
    <circle cx="448.47" cy="151.97" r="11.21" fill="#fbe493" stroke="#002346" stroke-miterlimit="10"></circle>
    <circle cx="592.17" cy="202.73" r="11.21" fill="#f69074" stroke="#002346" stroke-miterlimit="10"></circle>
  </g>
  <g>
    <path d="M399.3,515.09c.2,2.34,.51,4.98,.96,7.67,0,0,9.48-31.02,40.64-27.02l-6.12-13.48-5.06-5.06c-10.16,5.28-20,3.69-26.72,17.32-3.14,6.36-4.31,13.51-3.69,20.58Z" fill="#7cd295" stroke="#002346" stroke-miterlimit="10"></path>
    <path d="M487.15,485.39c-28.12,.03-32.32-41.41-3.91-75.9,.09-.11,.27-.04,.26,.11-1.12,11.76,33.4,53.9,10.78,73.19-1.99,1.69-4.51,2.6-7.12,2.6Z" fill="#7cd295" stroke="#002346" stroke-miterlimit="10"></path>
    <path d="M485.46,469.91c-17.74-10.53-13.74-42.1,38.83-60.73,.1-.03,.2,.06,.16,.15-.6,1.71-4.08,12.88-5.91,44.4-.49,8.4-12.49,28.4-33.08,16.17Z" fill="#7cd295" stroke="#002346" stroke-miterlimit="10"></path>
    <path d="M503.81,539.1c.8,6.21-41.3,6.21-40.5,0-.8-6.21,41.3-6.21,40.5,0Z" fill="#002346" stroke="#002346" stroke-miterlimit="10"></path>
    <path d="M505.48,594.1c-1.82-.27-48.18,.79-48.29-.86-9.13-4.33-9.52-18.47-9.52-18.47-1.38-18.87,15.65-28.99,15.65-28.99v-6.67c-.8,6.21,41.3,6.21,40.5,0v7.13c22.29,14.63,17.77,46.38,1.66,47.86Z" fill="#f69074" stroke="#002346" stroke-miterlimit="10"></path>
    <path d="M505.19,554.52c.05,3.58-5.58,3.58-5.52,0-.05-3.58,5.58-3.58,5.52,0Z" fill="#fff"></path>
    <path d="M513.48,562.8c.05,3.58-5.58,3.58-5.52,0-.05-3.58,5.58-3.58,5.52,0Z" fill="#fff"></path>
    <path d="M514.86,576.15c.05,3.58-5.58,3.58-5.52,0-.05-3.58,5.58-3.58,5.52,0Z" fill="#fff"></path>
    <path d="M507.49,586.27c.05,3.58-5.58,3.58-5.52,0-.05-3.58,5.58-3.58,5.52,0Z" fill="#fff"></path>
    <path d="M484.94,589.03c.05,3.58-5.58,3.58-5.52,0-.05-3.58,5.58-3.58,5.52,0Z" fill="#fff"></path>
    <path d="M467.45,586.27c.05,3.58-5.58,3.58-5.52,0-.05-3.58,5.58-3.58,5.52,0Z" fill="#fff"></path>
    <path d="M457.79,578.45c.05,3.58-5.58,3.58-5.52,0-.05-3.58,5.58-3.58,5.52,0Z" fill="#fff"></path>
    <path d="M459.17,562.8c.05,3.58-5.58,3.58-5.52,0-.05-3.58,5.58-3.58,5.52,0Z" fill="#fff"></path>
    <path d="M469.3,553.6c.05,3.58-5.58,3.58-5.52,0-.05-3.58,5.58-3.58,5.52,0Z" fill="#fff"></path>
    <path d="M478.5,561.88c.05,3.58-5.58,3.58-5.52,0-.05-3.58,5.58-3.58,5.52,0Z" fill="#fff"></path>
    <path d="M467.91,569.24c.05,3.58-5.58,3.58-5.52,0-.05-3.58,5.58-3.58,5.52,0Z" fill="#fff"></path>
    <path d="M477.12,578.45c.05,3.58-5.58,3.58-5.52,0-.05-3.58,5.58-3.58,5.52,0Z" fill="#fff"></path>
    <path d="M487.24,570.62c.05,3.58-5.58,3.58-5.52,0-.05-3.58,5.58-3.58,5.52,0Z" fill="#fff"></path>
    <path d="M489.09,554.98c.05,3.58-5.58,3.58-5.52,0-.05-3.58,5.58-3.58,5.52,0Z" fill="#fff"></path>
    <path d="M497.37,564.64c.05,3.58-5.58,3.58-5.52,0-.05-3.58,5.58-3.58,5.52,0Z" fill="#fff"></path>
    <path d="M503.81,571.08c.05,3.58-5.58,3.58-5.52,0-.05-3.58,5.58-3.58,5.52,0Z" fill="#fff"></path>
    <path d="M494.61,580.29c.05,3.58-5.58,3.58-5.52,0-.05-3.58,5.58-3.58,5.52,0Z" fill="#fff"></path>
    <path d="M528.67,508.03c-15.18-12.36-36.76,4.61-15.19,25.77,0,0,11.05,10.12,15.65,20.71,0,0,21.17-15.19,21.63-35.9,0,0,0-21.17-22.09-10.59Z" fill="#7cd295" stroke="#002346" stroke-miterlimit="10"></path>
    <path d="M399.82,505.47c23.85-42.04,34.03,1.19,69.93-4.8,.54-48.33-69.4-46.3-69.93,4.8Z" fill="#7cd295" stroke="#002346" stroke-miterlimit="10"></path>
    <path d="M463.31,545.77s16.99,8.72,40.5,.46" fill="none" stroke="#002346" stroke-linecap="round" stroke-linejoin="round"></path>
    <path d="M487.82,523.47s10-42,35.45-21.63c3.58,2.86,5.82,7.08,6.91,11.53,1.69,6.9,3.83,19.46,1.14,31.6" fill="none" stroke="#002346" stroke-linecap="round" stroke-linejoin="round"></path>
    <path d="M520.32,412.97s-47,34-31,126" fill="none" stroke="#002346" stroke-linecap="round" stroke-linejoin="round"></path>
    <path d="M418.32,477.97s62-1,64,60" fill="none" stroke="#002346" stroke-linecap="round" stroke-linejoin="round"></path>
  </g>
  <line x1="41.88" y1="631.82" x2="823.88" y2="631.82" fill="none" stroke="#002346" stroke-linecap="round" stroke-linejoin="round"></line>
</svg>
