<svg width="681" height="509" viewBox="0 0 681 509" fill="none" xmlns="http://www.w3.org/2000/svg">
<path d="M615.253 500.51C687.635 445.473 719.871 292.86 602.344 218.025C524.536 168.49 476.144 196.747 388.612 163.978C281.754 123.985 265.827 3.14998 135.847 62.607C66.9861 94.096 19.2498 182.847 10.8517 283.715C2.62128 382.496 37.631 450.274 109.175 496.654C277.182 503.803 445.524 502.507 615.253 500.51Z" fill="#DFF3FC"/>
<path d="M317.895 66.4143C306.962 110.31 347.561 153.763 390.332 171.779C433.104 189.809 482.151 187.66 527.973 179.064C547.744 175.361 568.069 170.148 583.428 157.543C598.788 144.939 607.692 123.052 599.274 105.372C591.845 89.7795 573.76 81.793 556.519 77.693C539.278 73.5931 520.965 71.9165 505.604 63.2898C491.04 55.1051 480.708 41.5555 468.04 30.8254C444.635 11.0267 411.758 1.2112 381.33 7.47546C350.885 13.7397 327.188 29.1031 317.895 66.4143Z" fill="#DFF3FC"/>
<path d="M645.378 268.312V235.104H632.785C631.274 229.299 628.967 223.824 626.014 218.781L634.918 209.863L611.434 186.379L602.516 195.283C597.474 192.329 591.999 190.024 586.192 188.511V175.92H552.984V188.511C547.179 190.024 541.704 192.329 536.66 195.283L527.743 186.379L504.259 209.863L513.163 218.781C510.209 223.822 507.918 229.297 506.391 235.104H493.8V268.312H506.391C507.918 274.118 510.209 279.593 513.163 284.636L504.259 293.554L527.743 317.038L536.66 308.134C541.702 311.088 547.177 313.378 552.984 314.906V327.497H586.192V314.906C591.998 313.378 597.472 311.088 602.516 308.134L611.434 317.038L634.918 293.554L626.014 284.636C628.967 279.594 631.272 274.119 632.785 268.312H645.378ZM569.599 280.48C553.705 280.48 540.818 267.593 540.818 251.699C540.818 235.822 553.705 222.937 569.599 222.937C585.476 222.937 598.361 235.822 598.361 251.699C598.361 267.594 585.476 280.48 569.599 280.48Z" fill="#A2C7EB"/>
<path d="M545.028 351.517L538.711 335.049L532.466 337.445C530.611 334.854 528.427 332.577 526.002 330.638L528.721 324.522L512.608 317.343L509.88 323.455C506.818 322.949 503.664 322.848 500.497 323.202L498.101 316.957L481.633 323.275L484.029 329.519C481.438 331.374 479.161 333.558 477.222 335.983L471.105 333.264L463.927 349.377L470.038 352.106C469.534 355.168 469.439 358.32 469.785 361.488L463.541 363.884L469.859 380.353L476.103 377.957C477.966 380.546 480.142 382.825 482.567 384.764L479.848 390.88L495.961 398.059L498.689 391.947C501.751 392.453 504.903 392.546 508.072 392.2L510.468 398.444L526.936 392.127L524.541 385.882C527.13 384.02 529.409 381.843 531.347 379.418L537.464 382.137L544.643 366.024L538.531 363.296C539.037 360.234 539.137 357.08 538.784 353.913L545.028 351.517ZM509.762 371.97C501.881 374.994 493.038 371.055 490.014 363.172C486.993 355.299 490.932 346.457 498.814 343.433C506.688 340.412 515.53 344.352 518.551 352.224C521.575 360.106 517.636 368.949 509.762 371.97Z" stroke="#A2C7EB" stroke-miterlimit="10"/>
<path d="M491.07 293.752L486.801 282.624L482.582 284.243C481.329 282.491 479.853 280.954 478.214 279.643L480.051 275.509L469.162 270.659L467.318 274.79C465.248 274.449 463.117 274.38 460.977 274.619L459.359 270.4L448.231 274.67L449.85 278.888C448.098 280.141 446.561 281.618 445.25 283.255L441.116 281.418L436.266 292.307L440.397 294.151C440.055 296.221 439.991 298.35 440.226 300.492L436.007 302.11L440.276 313.238L444.495 311.62C445.754 313.369 447.225 314.909 448.864 316.219L447.027 320.353L457.915 325.203L459.76 321.072C461.829 321.414 463.959 321.478 466.1 321.243L467.719 325.462L478.847 321.193L477.228 316.974C478.978 315.716 480.517 314.244 481.826 312.607L485.96 314.444L490.81 303.555L486.679 301.711C487.021 299.641 487.089 297.51 486.85 295.371L491.07 293.752ZM467.242 307.57C461.916 309.612 455.942 306.951 453.898 301.626C451.857 296.305 454.518 290.332 459.844 288.288C465.163 286.247 471.137 288.908 473.178 294.229C475.224 299.554 472.561 305.529 467.242 307.57Z" stroke="#A2C7EB" stroke-miterlimit="10"/>
<path d="M487.196 98.9215C487.196 115.608 479.397 130.482 467.263 140.093C458.328 147.184 447.031 151.39 434.725 151.39C422.451 151.39 411.153 147.184 402.188 140.093C390.039 130.482 382.255 115.608 382.255 98.9215C382.255 69.9444 405.748 46.4512 434.725 46.4512C463.702 46.4512 487.196 69.9444 487.196 98.9215Z" fill="#0097D8" stroke="#0097D8" stroke-miterlimit="10"/>
<path d="M436.842 98.711C446.257 97.549 452.947 88.9755 451.785 79.5617C450.623 70.1478 442.049 63.4583 432.634 64.6204C423.219 65.7824 416.529 74.3558 417.691 83.7697C418.853 93.1836 427.427 99.873 436.842 98.711Z" fill="white"/>
<path d="M467.263 133.475C458.329 140.566 447.032 144.774 434.726 144.774C422.452 144.774 411.153 140.567 402.188 133.475C405.544 118.711 408.632 105.965 411.847 102.735C416.384 98.1975 428.438 95.55 434.709 95.55C440.979 95.55 453.601 98.7645 455.933 101.096C460.692 105.838 464.789 118.932 467.263 133.475Z" fill="white"/>
<path d="M359.318 228.267V202.356C359.318 195.284 365.049 189.553 372.121 189.553H453.755C460.827 189.553 466.558 195.284 466.558 202.356V228.267C466.558 235.339 460.827 241.07 453.755 241.07H372.136C365.064 241.085 359.318 235.339 359.318 228.267Z" fill="#0097D8"/>
<path d="M393.795 226.91L354.289 265.395L418.319 233.037" fill="#0097D8"/>
<path d="M369.225 201.716V201.579C369.225 200.527 370.079 199.674 371.13 199.674H411.49C412.541 199.674 413.395 200.527 413.395 201.579V201.716C413.395 202.768 412.541 203.621 411.49 203.621H371.13C370.079 203.621 369.225 202.768 369.225 201.716Z" fill="white"/>
<path d="M415.208 201.716V201.579C415.208 200.527 416.062 199.674 417.114 199.674H452.337C453.388 199.674 454.242 200.527 454.242 201.579V201.716C454.242 202.768 453.388 203.621 452.337 203.621H417.114C416.062 203.621 415.208 202.768 415.208 201.716Z" fill="white"/>
<path d="M399.83 210.389V210.251C399.83 209.2 400.684 208.346 401.735 208.346H452.337C453.389 208.346 454.242 209.2 454.242 210.251V210.389C454.242 211.44 453.389 212.294 452.337 212.294H401.735C400.684 212.294 399.83 211.44 399.83 210.389Z" fill="white"/>
<path d="M369.225 210.389V210.251C369.225 209.2 370.079 208.346 371.13 208.346H393.733C394.785 208.346 395.639 209.2 395.639 210.251V210.389C395.639 211.44 394.785 212.294 393.733 212.294H371.13C370.079 212.294 369.225 211.44 369.225 210.389Z" fill="white"/>
<path d="M406.856 219.061V218.924C406.856 217.872 407.71 217.019 408.762 217.019H452.337C453.389 217.019 454.242 217.872 454.242 218.924V219.061C454.242 220.113 453.389 220.966 452.337 220.966H408.762C407.71 220.966 406.856 220.113 406.856 219.061Z" fill="white"/>
<path d="M369.225 219.061V218.924C369.225 217.872 370.079 217.019 371.13 217.019H401.232C402.284 217.019 403.137 217.872 403.137 218.924V219.061C403.137 220.113 402.284 220.966 401.232 220.966H371.13C370.079 220.966 369.225 220.113 369.225 219.061Z" fill="white"/>
<path d="M369.225 227.734V227.596C369.225 226.545 370.079 225.691 371.13 225.691H382.302C383.354 225.691 384.208 226.545 384.208 227.596V227.734C384.208 228.785 383.354 229.639 382.302 229.639H371.13C370.079 229.639 369.225 228.785 369.225 227.734Z" fill="white"/>
<path d="M388.155 227.734V227.596C388.155 226.545 389.009 225.691 390.06 225.691H452.337C453.389 225.691 454.242 226.545 454.242 227.596V227.734C454.242 228.785 453.389 229.639 452.337 229.639H390.06C389.009 229.639 388.155 228.785 388.155 227.734Z" fill="white"/>
<path d="M157.824 191.589C169.587 166.31 158.63 136.283 133.352 124.521C108.074 112.759 78.0465 123.715 66.2843 148.994C54.522 174.272 65.4788 204.299 90.7569 216.061C116.035 227.823 146.062 216.867 157.824 191.589Z" fill="#0097D8"/>
<path d="M104.198 206.612C110.573 204.373 113.925 197.391 111.686 191.017C109.447 184.642 102.465 181.29 96.0905 183.529C89.7162 185.768 86.3638 192.75 88.6028 199.125C90.8417 205.499 97.8241 208.851 104.198 206.612Z" fill="white"/>
<path d="M93.7178 199.459L93.1265 191.701L99.5508 187.312L106.565 190.678L107.155 198.436L100.732 202.827L93.7178 199.459Z" fill="#0097D8"/>
<path d="M128.037 157.028C134.399 154.754 137.712 147.753 135.438 141.392C133.164 135.03 126.164 131.717 119.802 133.991C113.441 136.265 110.127 143.265 112.401 149.627C114.675 155.988 121.676 159.302 128.037 157.028Z" fill="white"/>
<path d="M117.865 149.166L118.285 139.302L125.719 132.805L132.733 136.173L132.312 146.037L124.877 152.533L117.865 149.166Z" fill="#0097D8"/>
<path d="M108.613 189.415L99.2563 184.922L106.171 168.968C106.61 167.956 107.087 166.961 107.603 165.986L115.728 150.613L125.085 155.106L118.415 170.817C117.9 172.032 117.327 173.222 116.702 174.385L108.613 189.415Z" fill="white"/>
<path d="M147.102 197.452C148.905 196.615 177.869 197.936 177.869 197.936L156.991 178.769L147.102 197.452Z" fill="#0097D8"/>
<path d="M274.917 84.932C285.795 59.7825 274.227 30.576 249.077 19.6974C223.928 8.81882 194.721 20.3877 183.842 45.5372C172.964 70.6867 184.533 99.8933 209.682 110.772C234.832 121.65 264.038 110.082 274.917 84.932Z" fill="#0097D8"/>
<path d="M231.046 22.9563H227.732V64.6235H231.046V22.9563Z" fill="white"/>
<path d="M192.777 88.6787L194.663 91.4031L229.388 67.3676L227.502 64.6432L192.777 88.6787Z" fill="white"/>
<path d="M233.955 65.2377C233.955 67.7602 231.911 69.8041 229.389 69.8041C226.866 69.8041 224.822 67.7602 224.822 65.2377C224.822 62.7153 226.866 60.6714 229.389 60.6714C231.911 60.6714 233.955 62.7168 233.955 65.2377Z" fill="white"/>
<path d="M364.089 401.197C361.147 355.838 380.991 308.895 414.416 282.039C415.452 327.626 395.806 373.762 364.089 401.197Z" fill="#A2C7EB"/>
<path d="M408.96 294.248C394.876 320.493 382.698 347.959 372.578 376.293C360.278 410.693 350.6 447.242 329.536 476.079" stroke="#6F8BBF" stroke-miterlimit="10" stroke-linecap="round"/>
<path d="M353.542 429.729C370.46 391.885 404.037 363.291 441.058 355.198C425.298 395.756 389.847 426.696 353.542 429.729Z" fill="#A2C7EB"/>
<path d="M431.975 363.535C406.689 385.788 380.977 407.416 354.837 428.403" stroke="#6F8BBF" stroke-miterlimit="10" stroke-linecap="round"/>
<path d="M343.558 462.697C366.161 428.937 407.862 411.317 442.369 420.95C416.992 454.283 375.199 471.948 343.558 462.697Z" fill="#A2C7EB"/>
<path d="M434.093 423.389C404.463 441.922 372.502 455.609 339.55 463.84" stroke="#6F8BBF" stroke-miterlimit="10" stroke-linecap="round"/>
<path d="M355.766 418.252C362.991 380.24 352.154 337.869 328.027 309.84C318.135 347.197 327.57 390.97 355.766 418.252Z" fill="#A2C7EB"/>
<path d="M330.511 319.533C335.267 354.893 343.726 388.013 356.833 420.386" stroke="#6F8BBF" stroke-miterlimit="10" stroke-linecap="round"/>
<path d="M343.36 450.625C340.281 411.546 320.254 374.845 290.96 354.589C292.652 375.287 298.154 395.238 306.887 413.375C316.931 434.21 331.685 447.425 343.36 450.625Z" fill="#A2C7EB"/>
<path d="M295.304 362.499C306.827 395.085 323.41 425.294 344.092 451.448" stroke="#6F8BBF" stroke-miterlimit="10" stroke-linecap="round"/>
<path d="M569.591 441.252C585.579 399.658 622.357 365.913 662.914 355.64C645.143 396.67 608.868 429.744 569.591 441.252Z" fill="#A2C7EB"/>
<path d="M653.083 364.282C629.886 381.917 607.847 401.41 587.301 422.52C562.335 448.156 538.787 476.749 508.35 493.85" stroke="#6F8BBF" stroke-miterlimit="10" stroke-linecap="round"/>
<path d="M548.573 462.361C579.041 435.551 620.436 423.785 656.467 431.68C625.923 461.386 581.906 474.478 548.573 462.361Z" fill="#A2C7EB"/>
<path d="M645.021 435.414C613.547 444.925 581.951 453.689 550.249 461.721" stroke="#6F8BBF" stroke-miterlimit="10" stroke-linecap="round"/>
<path d="M526.228 487.662C560.049 466.812 604.127 468.138 630.678 490.802C594.586 510.128 550.401 508.802 526.228 487.662Z" fill="#A2C7EB"/>
<path d="M622.372 489.582C588.596 494.002 554.714 493.149 522.235 487.037" stroke="#6F8BBF" stroke-miterlimit="10" stroke-linecap="round"/>
<path d="M555.248 453.049C577.211 422.139 585 379.966 575.169 345.154C551.102 374.387 541.5 417.231 555.248 453.049Z" fill="#A2C7EB"/>
<path d="M573.385 354.787C563.082 388.226 557.001 421.179 555.324 455.38" stroke="#6F8BBF" stroke-miterlimit="10" stroke-linecap="round"/>
<path d="M531.014 476.825C544.305 440.764 541.652 399.886 524.064 369.891C517.083 389.019 513.761 409.031 514.05 428.754C514.37 451.403 521.991 469.205 531.014 476.825Z" fill="#A2C7EB"/>
<path d="M524.643 378.701C521.472 412.43 523.743 446.114 531.303 477.846" stroke="#6F8BBF" stroke-miterlimit="10" stroke-linecap="round"/>
<path d="M116.456 368.528C100.156 318.675 54.6712 278.393 1.75732 266.962C24.0038 310.091 64.3526 344.416 116.456 368.528Z" fill="#A2C7EB"/>
<path d="M119.216 376.262C83.5127 356.072 38.7789 351.619 0 364.383C35.9684 382.349 78.5867 387.355 119.216 376.262Z" fill="#A2C7EB"/>
<path d="M129.091 387.073C90.5041 381.724 50.0959 391.237 18.7578 413.04C54.2934 425.957 96.9253 417.58 129.091 387.073Z" fill="#A2C7EB"/>
<path d="M141.122 410.69C102.91 410.531 65.3398 428.691 42.8799 458.179C59.8863 461.587 77.946 459.549 93.5472 452.485C109.148 445.417 122.219 433.36 141.122 410.69Z" fill="#A2C7EB"/>
<path d="M168.062 450.203C130.383 443.744 90.2373 455.419 63.0693 480.742C79.2863 486.902 97.4435 487.886 114.034 483.51C130.626 479.136 145.564 469.42 168.062 450.203Z" fill="#A2C7EB"/>
<path d="M127.384 370.889C102.503 337.353 95.7515 292.162 109.886 253.717C120.68 271.996 129.995 291.323 134.341 311.865C138.688 332.409 137.844 354.311 127.384 370.889Z" fill="#A2C7EB"/>
<path d="M142.584 403.246C136.692 367.616 148.874 329.853 174.606 304.049C177.568 340.911 166.289 378.463 142.584 403.246Z" fill="#A2C7EB"/>
<path d="M13.3408 275.895C89.0667 324.346 148.289 396.565 179.551 478.616" stroke="#6F8BBF" stroke-miterlimit="10" stroke-linecap="round"/>
<path d="M112.239 271.397C121.449 308.799 127.053 346.983 128.95 385.28" stroke="#6F8BBF" stroke-miterlimit="10" stroke-linecap="round"/>
<path d="M168.949 318.515C165.931 348.69 156.607 378.182 141.709 404.747" stroke="#6F8BBF" stroke-miterlimit="10" stroke-linecap="round"/>
<path d="M15.9395 365.253C50.6565 371.854 85.9436 375.433 121.237 375.959" stroke="#6F8BBF" stroke-miterlimit="10" stroke-linecap="round"/>
<path d="M36.8604 410.075C68.8721 407.749 100.366 399.995 129.477 387.256" stroke="#6F8BBF" stroke-miterlimit="10" stroke-linecap="round"/>
<path d="M56.0386 452.796C85.5766 438.062 115.118 423.309 144.656 408.575" stroke="#6F8BBF" stroke-miterlimit="10" stroke-linecap="round"/>
<path d="M75.2505 478.814C113.816 471.373 125.275 462.494 168.077 450.206" stroke="#6F8BBF" stroke-miterlimit="10" stroke-linecap="round"/>
<path d="M319.401 408.177C319.401 408.177 322.739 438.767 326.473 441.221C333.148 445.626 410.423 455.807 410.423 455.807L407.893 475.911C407.893 475.911 302.056 485.421 297.56 480.133C289.756 470.957 276.039 426.696 276.039 426.696L319.401 408.177Z" fill="#E06A58"/>
<path d="M268.373 329.425L276.923 308.894C276.923 308.894 300.121 319.792 307.772 333.25C315.956 347.638 325.97 424.135 325.97 424.135C325.97 424.135 285.016 433.57 277.487 429.561C269.958 425.553 268.373 329.425 268.373 329.425Z" fill="#F2AE30"/>
<path d="M203.245 234.135C197.255 231.94 190.915 230.02 184.498 230.507C178.081 230.995 171.528 234.394 169.348 240.033C167.793 244.027 168.51 248.736 166.056 252.333C163.709 255.778 159.045 257.21 154.686 257.5C150.311 257.805 145.907 257.226 141.563 257.79C128.15 259.573 118.579 274.144 122.983 286.078C124.736 290.833 128.333 295.375 127.51 300.329C126.641 305.633 121.078 309.123 118.792 314.046C115.759 320.6 119.386 328.541 125.376 333.006C131.366 337.457 139.155 339.149 146.714 340.277C157.124 341.831 167.87 342.563 178.158 340.368C188.446 338.173 198.276 332.747 203.596 324.273C205.958 320.524 207.391 316.287 210.134 312.766C215.804 305.496 225.848 302.676 233.759 297.524C242.4 291.87 248.741 280.865 243.65 272.254C238.743 263.978 225.97 262.133 220.849 253.979C218.73 250.611 218.227 246.602 216.856 242.929C215.454 239.241 212.1 237.381 203.245 234.135Z" fill="#0A2240"/>
<path d="M238.148 335.658C239.657 337.396 241.44 339.301 243.91 339.469C246.516 339.652 248.695 337.808 250.372 336.024C259.029 326.864 264.745 315.616 267.061 304.017C264.912 302.798 262.84 301.624 260.965 300.527C259.227 299.49 257.917 298.042 257.17 296.351C256.651 295.101 256.469 293.79 256.606 292.418C257.825 280.957 258.907 274.571 262.931 262.941C243.818 258.628 225.787 253.507 215.423 244.85C214.158 250.184 212.665 260.625 209.479 270.974C206.08 281.932 200.776 292.769 191.784 297.433C209.433 307.858 225.178 320.813 238.148 335.658Z" fill="#F9A07B"/>
<path d="M256.606 292.433C256.469 293.805 256.651 295.131 257.17 296.366C245.86 310.083 220.575 292.159 209.479 270.989C212.664 260.64 214.158 250.199 215.423 244.865C225.772 253.522 243.818 258.658 262.931 262.956C258.907 274.586 257.825 280.957 256.606 292.433Z" fill="#E06A58"/>
<path d="M288.094 458.261C285.595 474.813 303.458 492.631 303.9 501.471C265.964 501.471 186.495 503.787 146.028 498.285C144.184 488.073 164.166 465.104 164.166 442.425C164.166 439.423 164.044 436.13 163.8 432.594C163.16 422.474 161.666 410.433 160.005 398.088C155.493 364.968 149.488 329.547 153.924 322.2C162.611 307.888 182.928 298.164 193.003 293.988C196.463 292.556 198.718 291.778 198.886 291.687C211.521 313.238 237.234 331.619 246.942 330.796C249.64 330.583 257.642 327.794 262.931 301.167C264.988 302.341 267.046 303.423 269.088 304.474C279.132 309.702 288.552 314.016 291.265 320.737C298.428 338.432 305.454 383.044 303.9 398.911C302.33 414.914 295.898 427.138 291.387 443.202C290.335 446.967 289.375 450.96 288.597 455.258C288.399 456.219 288.247 457.225 288.094 458.261Z" fill="#FFC73C"/>
<path d="M303.9 501.471C265.964 501.471 186.495 503.787 146.028 498.285C144.184 488.073 164.166 465.104 164.166 442.425C164.166 439.423 164.044 436.13 163.8 432.594C163.16 422.474 161.666 410.433 160.005 398.088C167.184 405.663 177.655 373.655 182.288 383.029C207.36 433.631 227.128 446.937 261.483 446.937C271.725 446.937 281.175 445.519 291.387 443.202C290.335 446.967 289.375 450.96 288.597 455.258C288.415 456.234 288.247 457.24 288.094 458.276C285.595 474.798 303.458 492.615 303.9 501.471Z" fill="#FFBB33"/>
<path d="M269.088 304.474C267.458 316.317 262.626 332.275 248.573 336.481C229.583 342.167 202.102 306.684 193.003 293.988C196.463 292.556 198.718 291.778 198.886 291.687C211.521 313.238 237.234 331.619 246.943 330.796C249.64 330.583 257.642 327.794 262.931 301.167C264.988 302.325 267.046 303.407 269.088 304.474Z" fill="#FCE172"/>
<path d="M276.893 483.653L276.755 496.868L512.999 498.27L513.486 483.288L276.893 483.653Z" fill="#325F73"/>
<path d="M615.391 365.76L610.132 360.426L438.056 359.298L351.728 484.141L356.239 487.769L615.391 365.76Z" fill="#325F73"/>
<path d="M441.378 363.916L356.239 487.769L518.866 488.576L615.39 365.76L441.378 363.916Z" fill="#0B2D50"/>
<path d="M482.47 442.974C492.924 442.974 501.399 438.736 501.399 433.509C501.399 428.282 492.924 424.044 482.47 424.044C472.015 424.044 463.54 428.282 463.54 433.509C463.54 438.736 472.015 442.974 482.47 442.974Z" fill="#3C738C"/>
<path d="M280.385 241.654C283.068 227.263 292.935 217.031 302.427 218.799C311.92 220.569 317.44 233.667 314.758 248.058C312.075 262.449 302.208 272.681 292.715 270.913C283.225 269.145 277.704 256.045 280.385 241.654Z" fill="#56C4F9"/>
<path d="M314.782 202.89C313.014 215.418 307.421 229.227 299.267 244.484C296.401 231.986 294.572 216.76 292.042 201.533C289.466 186.277 286.189 171.02 280.504 158.552C279.224 155.794 277.837 153.157 276.328 150.718C279.696 150.398 283.111 150.718 286.357 151.617C291.432 152.974 296.188 155.595 300.074 159.101C306.537 164.847 310.865 172.681 313.441 180.942C315.56 187.801 315.941 195.086 314.782 202.89Z" fill="#0B2D50"/>
<path d="M305.211 215.845C305.12 218.314 304.952 220.829 304.724 223.329C301.248 263.871 284.224 291.687 258.176 291.687C221.398 291.687 197.561 250.443 197.561 210.038C197.561 170.182 221.977 141.33 250.555 144.667C267.031 146.557 279.072 152.029 287.623 160.046C293.277 165.381 297.362 171.828 300.151 179.159C303.337 187.374 304.876 196.671 305.196 206.685C305.196 206.716 305.226 206.746 305.226 206.777C305.348 209.733 305.318 212.751 305.211 215.845Z" fill="#F9A07B"/>
<path d="M305.211 215.845C304.113 211.928 302.482 208.102 300.257 204.673C278.569 216.013 252.719 220.387 228.211 216.241C223.547 220.128 218.99 223.954 214.402 227.779C214.493 209.337 214.752 196.854 221.946 187.923C228.698 179.54 239.962 176.385 250.631 175.013C262.641 173.443 274.85 173.504 286.829 175.242C291.417 175.882 296.172 176.873 300.166 179.189C303.351 187.404 304.891 196.702 305.211 206.715C305.211 206.746 305.241 206.776 305.241 206.807C305.348 209.733 305.317 212.751 305.211 215.845Z" fill="#E06A58"/>
<path d="M310.515 190.879C305.47 195.147 299.145 198.683 292.042 201.548C271.832 209.703 245.571 212.4 225.102 211.41C215.042 233.51 210.973 241.435 208.397 260.716C198.566 251.495 190.564 234.607 188.187 221.332C185.84 208.102 186.068 194.217 189.757 181.216C195.564 160.717 210.211 149.743 220.362 144.408C222.892 143.021 225.178 142.061 226.946 141.36C239.916 136.345 254.533 136.803 267.839 140.872C275.094 143.128 281.206 146.938 286.342 151.633C296.721 161.006 303.138 173.702 307.284 183.213C308.595 186.124 309.646 188.761 310.515 190.879Z" fill="#0B2D50"/>
<path d="M314.783 202.89C313.944 198.455 312.695 194.156 310.927 190.011C309.936 187.664 308.717 185.393 307.299 183.198C302.681 175.943 295.959 169.968 287.836 167.331C285.519 164.085 283.08 161.159 280.52 158.568C271.299 149.194 260.477 143.829 249.016 141.954C239.474 140.415 229.552 141.284 220.392 144.393C222.922 143.006 225.208 142.046 226.976 141.345C239.947 136.33 254.564 136.787 267.869 140.857C275.124 143.113 281.236 146.923 286.373 151.617C291.448 152.974 296.203 155.595 300.09 159.101C306.552 164.847 310.881 172.681 313.457 180.942C315.56 187.801 315.941 195.086 314.783 202.89Z" fill="#225570"/>
<path d="M236.822 227.749C243.62 223.862 250.677 222.109 260.569 225.722" stroke="#0B2D50" stroke-width="2" stroke-miterlimit="10" stroke-linecap="round"/>
<path d="M283.37 227.474C289.192 223.131 297.819 222.689 302.315 227.474" stroke="#0B2D50" stroke-width="2" stroke-miterlimit="10" stroke-linecap="round"/>
<path d="M276.343 249.635C276.938 252.714 276.617 259.527 275.154 262.591" stroke="#CC454E" stroke-width="2" stroke-miterlimit="10" stroke-linecap="round"/>
<path d="M253.374 251.708C254.923 251.708 256.179 249.73 256.179 247.288C256.179 244.847 254.923 242.868 253.374 242.868C251.825 242.868 250.57 244.847 250.57 247.288C250.57 249.73 251.825 251.708 253.374 251.708Z" fill="#262D40"/>
<path d="M290.03 249.651C291.579 249.651 292.834 247.672 292.834 245.231C292.834 242.79 291.579 240.811 290.03 240.811C288.481 240.811 287.226 242.79 287.226 245.231C287.226 247.672 288.481 249.651 290.03 249.651Z" fill="#262D40"/>
<path d="M272.869 268.611C272.869 268.611 272.32 269.678 271.268 271.126C269.622 273.336 266.818 276.384 262.992 277.573H262.977C261.361 278.091 259.609 278.274 257.658 277.924C251.927 276.903 250.418 271.614 250.144 267.544C250.083 266.752 250.083 266.02 250.098 265.349C250.128 263.703 250.311 262.606 250.311 262.606C259.441 267.636 272.869 268.611 272.869 268.611Z" fill="#CC454E"/>
<path d="M272.868 268.611C272.868 268.611 272.32 269.678 271.268 271.126C266.604 271.065 257.063 268.672 250.098 265.349C250.128 263.703 250.311 262.606 250.311 262.606C259.441 267.636 272.868 268.611 272.868 268.611Z" fill="white"/>
<path d="M262.977 277.558C261.361 278.076 259.609 278.259 257.658 277.909C251.927 276.887 250.418 271.599 250.144 267.529C252.918 267.864 255.6 268.931 257.825 270.623C260.157 272.406 261.94 274.83 262.977 277.558Z" fill="#E8729B"/>
<path d="M208.489 220.753C208.489 220.753 208.169 201.747 216.079 182.862C226.001 159.162 246.227 149.026 265.842 148.34C289.482 147.502 304.282 163.369 304.282 163.369C304.282 163.369 296.585 149.788 281.404 145.887C271.436 143.326 256.393 142.914 244.322 147.822C231.884 152.867 216.384 166.874 210.775 181.674C205.181 196.473 202.453 219.518 202.453 219.518L208.489 220.753Z" fill="#3D86E0"/>
<path d="M208.083 270.227C218.205 269.174 225.118 255.888 223.523 240.551C221.929 225.214 212.431 213.634 202.309 214.686C192.187 215.739 185.274 229.025 186.868 244.362C188.463 259.699 197.961 271.279 208.083 270.227Z" fill="#56C4F9"/>
<path d="M197.181 223.679C203.715 222.698 210.414 231.221 212.141 242.716C213.867 254.211 209.972 264.327 203.436 265.308C196.902 266.29 190.203 257.767 188.477 246.272C186.75 234.777 190.647 224.661 197.181 223.679Z" fill="#3D86E0"/>
<path d="M265.995 292.251C271.416 292.251 275.81 289.514 275.81 286.139C275.81 282.763 271.416 280.027 265.995 280.027C260.574 280.027 256.179 282.763 256.179 286.139C256.179 289.514 260.574 292.251 265.995 292.251Z" fill="#3A92C9"/>
<path d="M216.688 265.7C216.688 265.7 231.106 284.234 256.179 286.139" stroke="#3A92C9" stroke-width="2" stroke-miterlimit="10" stroke-linecap="round"/>
<path d="M276.755 448.369L275.81 472.74C275.81 472.74 187.668 499.154 173.113 490.802C166.01 486.717 159.38 464.251 154.427 442.318C149.245 419.273 145.922 396.838 145.922 396.838L197.591 386.717C197.591 386.717 197.621 418.222 199.374 436.435C199.999 443.218 200.898 448.156 202.102 448.964C206.659 451.966 276.755 448.369 276.755 448.369Z" fill="#F9A07B"/>
<path d="M199.374 436.405C189.985 439.453 171.863 444.163 154.427 442.303C149.245 419.258 145.922 396.823 145.922 396.823L197.591 386.702C197.591 386.687 197.621 418.191 199.374 436.405Z" fill="#E06A58"/>
<path d="M274.24 448.613C287.348 445.809 309.539 439.072 318.745 436.755C325.284 435.109 342.309 443.919 346.805 452.225C348.771 455.853 350.63 476.398 343.817 474.28C340.403 473.213 340.967 464.403 339.9 460.806C339.032 457.88 336.258 455.045 332.036 452.607C334.855 459.633 334.749 465.76 334.444 473.35C334.383 475.027 334.276 476.78 333.468 478.227C332.645 479.675 330.877 480.712 329.353 480.072C327.799 479.432 327.265 477.496 326.915 475.804C325.711 469.951 324.491 464.099 324.003 457.484C324.125 463.992 323.988 470.515 323.577 477.008C323.272 481.977 320.803 484.705 317.77 483.836C316.413 483.455 315.865 482.205 315.285 480.559C314.371 483.745 312.085 487.266 309.128 485.924C307.329 485.117 306.217 478.624 306.537 471.948C300.867 475.469 294.465 476.962 287.089 477.298C280.474 477.603 273.707 476.368 269.729 471.872C270.125 464.845 272.441 454.451 274.24 448.613Z" fill="#F9A07B"/>
<path d="M315.422 479.553C315.864 474.28 315.407 468.93 314.065 463.839" stroke="#CC454E" stroke-miterlimit="10" stroke-linecap="round"/>
<path d="M191.784 335.598C188.034 325.035 174.302 303.423 174.302 303.423C174.302 303.423 153.345 312.141 145.907 326.94C133.317 351.997 139.719 423.937 139.719 423.937C156.682 431.04 190.732 431.146 205.227 429.104C205.227 429.104 199.298 356.707 191.784 335.598Z" fill="#FFC73C"/>
<path d="M194.45 340.018C200.166 367.376 203.229 392.89 204.205 417.886" stroke="#F2AE30" stroke-miterlimit="10" stroke-linecap="round"/>
<path d="M643.009 493.926H42.0669V509H643.009V493.926Z" fill="#0B2D50"/>
</svg>
