<svg width="177" height="30" viewBox="0 0 177 30" fill="none" xmlns="http://www.w3.org/2000/svg">
<path d="M38.4347 22V7.45455H43.8892C45.0066 7.45455 45.9441 7.64867 46.7017 8.03693C47.464 8.42519 48.0393 8.9697 48.4276 9.67045C48.8205 10.3665 49.017 11.1785 49.017 12.1065C49.017 13.0393 48.8182 13.849 48.4205 14.5355C48.0275 15.2173 47.4474 15.7453 46.6804 16.1193C45.9134 16.4886 44.9711 16.6733 43.8537 16.6733H39.9688V14.4858H43.4986C44.152 14.4858 44.687 14.3958 45.1037 14.2159C45.5204 14.0312 45.8281 13.7637 46.027 13.4134C46.2306 13.0582 46.3324 12.6226 46.3324 12.1065C46.3324 11.5904 46.2306 11.1501 46.027 10.7855C45.8234 10.4162 45.5133 10.1368 45.0966 9.94744C44.6799 9.75331 44.1425 9.65625 43.4844 9.65625H41.0696V22H38.4347ZM45.9489 15.4091L49.5497 22H46.6094L43.0724 15.4091H45.9489ZM56.0021 22.2131C54.9084 22.2131 53.9638 21.9858 53.1683 21.5312C52.3776 21.072 51.7692 20.4233 51.343 19.5852C50.9169 18.7424 50.7038 17.7505 50.7038 16.6094C50.7038 15.4872 50.9169 14.5024 51.343 13.6548C51.7739 12.8026 52.3752 12.1397 53.147 11.6662C53.9188 11.188 54.8255 10.9489 55.8672 10.9489C56.5395 10.9489 57.174 11.0578 57.7706 11.2756C58.3719 11.4886 58.9022 11.8201 59.3615 12.2699C59.8255 12.7197 60.1901 13.2926 60.4553 13.9886C60.7204 14.6799 60.853 15.5038 60.853 16.4602V17.2486H51.9112V15.5156H58.3885C58.3838 15.0232 58.2772 14.5852 58.0689 14.2017C57.8606 13.8134 57.5694 13.508 57.1953 13.2855C56.826 13.063 56.3951 12.9517 55.9027 12.9517C55.3771 12.9517 54.9155 13.0795 54.5178 13.3352C54.12 13.5862 53.8099 13.9176 53.5874 14.3295C53.3696 14.7367 53.2583 15.1842 53.2536 15.6719V17.1847C53.2536 17.8191 53.3696 18.3636 53.6016 18.8182C53.8336 19.268 54.1579 19.6136 54.5746 19.8551C54.9912 20.0919 55.4789 20.2102 56.0376 20.2102C56.4117 20.2102 56.7502 20.1581 57.0533 20.054C57.3563 19.9451 57.6191 19.7865 57.8416 19.5781C58.0642 19.3698 58.2322 19.1117 58.3459 18.804L60.7464 19.0739C60.5949 19.7083 60.3061 20.2623 59.88 20.7358C59.4586 21.2045 58.9188 21.5691 58.2607 21.8295C57.6025 22.0852 56.8497 22.2131 56.0021 22.2131ZM63.0281 22V11.0909H65.4854V12.9446H65.6133C65.8406 12.3196 66.217 11.8319 66.7425 11.4815C67.2681 11.1264 67.8955 10.9489 68.6246 10.9489C69.3633 10.9489 69.9859 11.1288 70.4925 11.4886C71.0039 11.8437 71.3638 12.3291 71.5721 12.9446H71.6857C71.9272 12.3385 72.3344 11.8556 72.9073 11.4957C73.485 11.1312 74.1692 10.9489 74.9599 10.9489C75.9637 10.9489 76.7828 11.2661 77.4173 11.9006C78.0517 12.535 78.369 13.4607 78.369 14.6776V22H75.7908V15.0753C75.7908 14.3982 75.6109 13.9034 75.2511 13.5909C74.8912 13.2737 74.4509 13.1151 73.93 13.1151C73.3098 13.1151 72.8245 13.3092 72.4741 13.6974C72.1284 14.081 71.9556 14.5805 71.9556 15.196V22H69.4343V14.9688C69.4343 14.4053 69.2638 13.9555 68.9229 13.6193C68.5868 13.2831 68.1464 13.1151 67.6019 13.1151C67.2326 13.1151 66.8964 13.2098 66.5934 13.3991C66.2904 13.5838 66.0489 13.8466 65.869 14.1875C65.689 14.5237 65.5991 14.9167 65.5991 15.3665V22H63.0281ZM85.8068 22.2131C84.7131 22.2131 83.7685 21.9858 82.973 21.5312C82.1823 21.072 81.5739 20.4233 81.1477 19.5852C80.7216 18.7424 80.5085 17.7505 80.5085 16.6094C80.5085 15.4872 80.7216 14.5024 81.1477 13.6548C81.5786 12.8026 82.1799 12.1397 82.9517 11.6662C83.7235 11.188 84.6302 10.9489 85.6719 10.9489C86.3442 10.9489 86.9787 11.0578 87.5753 11.2756C88.1766 11.4886 88.7069 11.8201 89.1662 12.2699C89.6302 12.7197 89.9948 13.2926 90.2599 13.9886C90.5251 14.6799 90.6577 15.5038 90.6577 16.4602V17.2486H81.7159V15.5156H88.1932C88.1884 15.0232 88.0819 14.5852 87.8736 14.2017C87.6652 13.8134 87.3741 13.508 87 13.2855C86.6307 13.063 86.1998 12.9517 85.7074 12.9517C85.1818 12.9517 84.7202 13.0795 84.3224 13.3352C83.9247 13.5862 83.6146 13.9176 83.392 14.3295C83.1742 14.7367 83.063 15.1842 83.0582 15.6719V17.1847C83.0582 17.8191 83.1742 18.3636 83.4062 18.8182C83.6383 19.268 83.9626 19.6136 84.3793 19.8551C84.7959 20.0919 85.2836 20.2102 85.8423 20.2102C86.2164 20.2102 86.5549 20.1581 86.858 20.054C87.161 19.9451 87.4238 19.7865 87.6463 19.5781C87.8688 19.3698 88.0369 19.1117 88.1506 18.804L90.5511 19.0739C90.3996 19.7083 90.1108 20.2623 89.6847 20.7358C89.2633 21.2045 88.7235 21.5691 88.0653 21.8295C87.4072 22.0852 86.6544 22.2131 85.8068 22.2131ZM92.8327 22V11.0909H95.2901V12.9446H95.418C95.6452 12.3196 96.0217 11.8319 96.5472 11.4815C97.0728 11.1264 97.7002 10.9489 98.4293 10.9489C99.168 10.9489 99.7906 11.1288 100.297 11.4886C100.809 11.8437 101.168 12.3291 101.377 12.9446H101.49C101.732 12.3385 102.139 11.8556 102.712 11.4957C103.29 11.1312 103.974 10.9489 104.765 10.9489C105.768 10.9489 106.587 11.2661 107.222 11.9006C107.856 12.535 108.174 13.4607 108.174 14.6776V22H105.596V15.0753C105.596 14.3982 105.416 13.9034 105.056 13.5909C104.696 13.2737 104.256 13.1151 103.735 13.1151C103.114 13.1151 102.629 13.3092 102.279 13.6974C101.933 14.081 101.76 14.5805 101.76 15.196V22H99.239V14.9688C99.239 14.4053 99.0685 13.9555 98.7276 13.6193C98.3915 13.2831 97.9511 13.1151 97.4066 13.1151C97.0373 13.1151 96.7011 13.2098 96.3981 13.3991C96.0951 13.5838 95.8536 13.8466 95.6737 14.1875C95.4937 14.5237 95.4038 14.9167 95.4038 15.3665V22H92.8327ZM110.896 22V7.45455H113.467V12.8949H113.573C113.706 12.6297 113.893 12.348 114.134 12.0497C114.376 11.7467 114.702 11.4886 115.114 11.2756C115.526 11.0578 116.052 10.9489 116.691 10.9489C117.534 10.9489 118.294 11.1643 118.971 11.5952C119.653 12.0213 120.192 12.6534 120.59 13.4915C120.993 14.3248 121.194 15.3475 121.194 16.5597C121.194 17.7576 120.997 18.7756 120.604 19.6136C120.211 20.4517 119.676 21.0909 118.999 21.5312C118.322 21.9716 117.555 22.1918 116.698 22.1918C116.073 22.1918 115.555 22.0876 115.143 21.8793C114.731 21.6709 114.399 21.42 114.148 21.1264C113.902 20.8281 113.71 20.5464 113.573 20.2812H113.424V22H110.896ZM113.417 16.5455C113.417 17.2509 113.516 17.8688 113.715 18.3991C113.919 18.9295 114.21 19.3437 114.589 19.642C114.972 19.9356 115.436 20.0824 115.981 20.0824C116.549 20.0824 117.025 19.9309 117.408 19.6278C117.792 19.3201 118.081 18.901 118.275 18.3707C118.474 17.8357 118.573 17.2273 118.573 16.5455C118.573 15.8684 118.476 15.267 118.282 14.7415C118.088 14.2159 117.799 13.804 117.415 13.5057C117.032 13.2074 116.554 13.0582 115.981 13.0582C115.432 13.0582 114.965 13.2027 114.582 13.4915C114.198 13.7803 113.907 14.1851 113.708 14.706C113.514 15.2268 113.417 15.84 113.417 16.5455ZM128.209 22.2131C127.115 22.2131 126.171 21.9858 125.375 21.5312C124.585 21.072 123.976 20.4233 123.55 19.5852C123.124 18.7424 122.911 17.7505 122.911 16.6094C122.911 15.4872 123.124 14.5024 123.55 13.6548C123.981 12.8026 124.582 12.1397 125.354 11.6662C126.126 11.188 127.033 10.9489 128.074 10.9489C128.747 10.9489 129.381 11.0578 129.978 11.2756C130.579 11.4886 131.109 11.8201 131.569 12.2699C132.033 12.7197 132.397 13.2926 132.662 13.9886C132.927 14.6799 133.06 15.5038 133.06 16.4602V17.2486H124.118V15.5156H130.596C130.591 15.0232 130.484 14.5852 130.276 14.2017C130.068 13.8134 129.776 13.508 129.402 13.2855C129.033 13.063 128.602 12.9517 128.11 12.9517C127.584 12.9517 127.123 13.0795 126.725 13.3352C126.327 13.5862 126.017 13.9176 125.794 14.3295C125.577 14.7367 125.465 15.1842 125.461 15.6719V17.1847C125.461 17.8191 125.577 18.3636 125.809 18.8182C126.041 19.268 126.365 19.6136 126.782 19.8551C127.198 20.0919 127.686 20.2102 128.245 20.2102C128.619 20.2102 128.957 20.1581 129.26 20.054C129.563 19.9451 129.826 19.7865 130.049 19.5781C130.271 19.3698 130.439 19.1117 130.553 18.804L132.953 19.0739C132.802 19.7083 132.513 20.2623 132.087 20.7358C131.666 21.2045 131.126 21.5691 130.468 21.8295C129.81 22.0852 129.057 22.2131 128.209 22.2131ZM135.235 22V11.0909H137.728V12.9091H137.842C138.04 12.2794 138.381 11.794 138.864 11.4531C139.352 11.1075 139.908 10.9347 140.533 10.9347C140.675 10.9347 140.834 10.9418 141.009 10.956C141.189 10.9654 141.338 10.982 141.457 11.0057V13.3707C141.348 13.3329 141.175 13.2997 140.938 13.2713C140.706 13.2382 140.481 13.2216 140.263 13.2216C139.795 13.2216 139.373 13.3234 138.999 13.527C138.63 13.7259 138.339 14.0028 138.126 14.358C137.913 14.7131 137.806 15.1226 137.806 15.5866V22H135.235ZM148.126 22V11.0909H150.583V12.9446H150.711C150.938 12.3196 151.315 11.8319 151.84 11.4815C152.366 11.1264 152.993 10.9489 153.722 10.9489C154.461 10.9489 155.084 11.1288 155.59 11.4886C156.102 11.8437 156.461 12.3291 156.67 12.9446H156.783C157.025 12.3385 157.432 11.8556 158.005 11.4957C158.583 11.1312 159.267 10.9489 160.058 10.9489C161.061 10.9489 161.88 11.2661 162.515 11.9006C163.149 12.535 163.467 13.4607 163.467 14.6776V22H160.888V15.0753C160.888 14.3982 160.709 13.9034 160.349 13.5909C159.989 13.2737 159.549 13.1151 159.028 13.1151C158.407 13.1151 157.922 13.3092 157.572 13.6974C157.226 14.081 157.053 14.5805 157.053 15.196V22H154.532V14.9688C154.532 14.4053 154.362 13.9555 154.021 13.6193C153.684 13.2831 153.244 13.1151 152.7 13.1151C152.33 13.1151 151.994 13.2098 151.691 13.3991C151.388 13.5838 151.147 13.8466 150.967 14.1875C150.787 14.5237 150.697 14.9167 150.697 15.3665V22H148.126ZM170.904 22.2131C169.811 22.2131 168.866 21.9858 168.071 21.5312C167.28 21.072 166.672 20.4233 166.245 19.5852C165.819 18.7424 165.606 17.7505 165.606 16.6094C165.606 15.4872 165.819 14.5024 166.245 13.6548C166.676 12.8026 167.278 12.1397 168.049 11.6662C168.821 11.188 169.728 10.9489 170.77 10.9489C171.442 10.9489 172.076 11.0578 172.673 11.2756C173.274 11.4886 173.805 11.8201 174.264 12.2699C174.728 12.7197 175.092 13.2926 175.358 13.9886C175.623 14.6799 175.755 15.5038 175.755 16.4602V17.2486H166.814V15.5156H173.291C173.286 15.0232 173.18 14.5852 172.971 14.2017C172.763 13.8134 172.472 13.508 172.098 13.2855C171.728 13.063 171.297 12.9517 170.805 12.9517C170.279 12.9517 169.818 13.0795 169.42 13.3352C169.022 13.5862 168.712 13.9176 168.49 14.3295C168.272 14.7367 168.161 15.1842 168.156 15.6719V17.1847C168.156 17.8191 168.272 18.3636 168.504 18.8182C168.736 19.268 169.06 19.6136 169.477 19.8551C169.894 20.0919 170.381 20.2102 170.94 20.2102C171.314 20.2102 171.653 20.1581 171.956 20.054C172.259 19.9451 172.521 19.7865 172.744 19.5781C172.967 19.3698 173.135 19.1117 173.248 18.804L175.649 19.0739C175.497 19.7083 175.208 20.2623 174.782 20.7358C174.361 21.2045 173.821 21.5691 173.163 21.8295C172.505 22.0852 171.752 22.2131 170.904 22.2131Z" fill="white"/>
<path d="M15.6521 2.50436H14.3479V0H15.6521V2.50436ZM15.6521 30H14.3479V27.4956H15.6521V30ZM30 15.6521H27.4956V14.3479H30V15.6521ZM2.50436 15.6521H0V14.3479H2.50436V15.6521ZM24.3052 6.6131L23.3818 5.70006L25.1478 3.93398L26.0609 4.85748L24.3052 6.6131ZM4.85736 26.0609L3.93393 25.1479L5.7 23.3818L6.61304 24.3052L4.85736 26.0609ZM25.1478 26.0609L23.3818 24.3052L24.3053 23.3817L26.0609 25.1478L25.1478 26.0609ZM5.7 6.61301L3.93393 4.85736L4.85736 3.93393L6.61304 5.69994L5.7 6.61301ZM15 5.59562C20.1939 5.59562 24.4044 9.8061 24.4044 15C24.4044 20.1939 20.1939 24.4044 15 24.4044C9.80613 24.4044 5.59564 20.1939 5.59564 15C5.60159 9.80851 9.80853 5.60156 14.9994 5.59564H15L15 5.59562ZM15 23.1C19.4735 23.1 23.1 19.4735 23.1 15C23.1 10.5265 19.4735 6.9 15 6.9C10.5265 6.9 6.9 10.5265 6.9 15C6.90519 19.4714 10.5286 23.0948 14.9995 23.1H15Z" fill="white"/>
</svg>
